G04 #@! TF.GenerationSoftware,KiCad,Pcbnew,(5.1.2-1)-1*
G04 #@! TF.CreationDate,2019-07-11T02:04:14+01:00*
G04 #@! TF.ProjectId,tool-lockers-pcb,746f6f6c-2d6c-46f6-936b-6572732d7063,rev?*
G04 #@! TF.SameCoordinates,Original*
G04 #@! TF.FileFunction,Legend,Bot*
G04 #@! TF.FilePolarity,Positive*
%FSLAX46Y46*%
G04 Gerber Fmt 4.6, Leading zero omitted, Abs format (unit mm)*
G04 Created by KiCad (PCBNEW (5.1.2-1)-1) date 2019-07-11 02:04:14*
%MOMM*%
%LPD*%
G04 APERTURE LIST*
%ADD10C,0.300000*%
G04 APERTURE END LIST*
D10*
X147770714Y-119768571D02*
X148270714Y-119054285D01*
X148627857Y-119768571D02*
X148627857Y-118268571D01*
X148056428Y-118268571D01*
X147913571Y-118340000D01*
X147842142Y-118411428D01*
X147770714Y-118554285D01*
X147770714Y-118768571D01*
X147842142Y-118911428D01*
X147913571Y-118982857D01*
X148056428Y-119054285D01*
X148627857Y-119054285D01*
X146556428Y-119697142D02*
X146699285Y-119768571D01*
X146985000Y-119768571D01*
X147127857Y-119697142D01*
X147199285Y-119554285D01*
X147199285Y-118982857D01*
X147127857Y-118840000D01*
X146985000Y-118768571D01*
X146699285Y-118768571D01*
X146556428Y-118840000D01*
X146485000Y-118982857D01*
X146485000Y-119125714D01*
X147199285Y-119268571D01*
X145985000Y-118768571D02*
X145627857Y-119768571D01*
X145270714Y-118768571D01*
X142770714Y-119768571D02*
X143627857Y-119768571D01*
X143199285Y-119768571D02*
X143199285Y-118268571D01*
X143342142Y-118482857D01*
X143485000Y-118625714D01*
X143627857Y-118697142D01*
X140985000Y-119197142D02*
X139842142Y-119197142D01*
X138056428Y-118411428D02*
X137985000Y-118340000D01*
X137842142Y-118268571D01*
X137485000Y-118268571D01*
X137342142Y-118340000D01*
X137270714Y-118411428D01*
X137199285Y-118554285D01*
X137199285Y-118697142D01*
X137270714Y-118911428D01*
X138127857Y-119768571D01*
X137199285Y-119768571D01*
X136270714Y-118268571D02*
X136127857Y-118268571D01*
X135985000Y-118340000D01*
X135913571Y-118411428D01*
X135842142Y-118554285D01*
X135770714Y-118840000D01*
X135770714Y-119197142D01*
X135842142Y-119482857D01*
X135913571Y-119625714D01*
X135985000Y-119697142D01*
X136127857Y-119768571D01*
X136270714Y-119768571D01*
X136413571Y-119697142D01*
X136485000Y-119625714D01*
X136556428Y-119482857D01*
X136627857Y-119197142D01*
X136627857Y-118840000D01*
X136556428Y-118554285D01*
X136485000Y-118411428D01*
X136413571Y-118340000D01*
X136270714Y-118268571D01*
X134342142Y-119768571D02*
X135199285Y-119768571D01*
X134770714Y-119768571D02*
X134770714Y-118268571D01*
X134913571Y-118482857D01*
X135056428Y-118625714D01*
X135199285Y-118697142D01*
X133627857Y-119768571D02*
X133342142Y-119768571D01*
X133199285Y-119697142D01*
X133127857Y-119625714D01*
X132985000Y-119411428D01*
X132913571Y-119125714D01*
X132913571Y-118554285D01*
X132985000Y-118411428D01*
X133056428Y-118340000D01*
X133199285Y-118268571D01*
X133485000Y-118268571D01*
X133627857Y-118340000D01*
X133699285Y-118411428D01*
X133770714Y-118554285D01*
X133770714Y-118911428D01*
X133699285Y-119054285D01*
X133627857Y-119125714D01*
X133485000Y-119197142D01*
X133199285Y-119197142D01*
X133056428Y-119125714D01*
X132985000Y-119054285D01*
X132913571Y-118911428D01*
X132270714Y-119197142D02*
X131127857Y-119197142D01*
X130127857Y-118268571D02*
X129985000Y-118268571D01*
X129842142Y-118340000D01*
X129770714Y-118411428D01*
X129699285Y-118554285D01*
X129627857Y-118840000D01*
X129627857Y-119197142D01*
X129699285Y-119482857D01*
X129770714Y-119625714D01*
X129842142Y-119697142D01*
X129985000Y-119768571D01*
X130127857Y-119768571D01*
X130270714Y-119697142D01*
X130342142Y-119625714D01*
X130413571Y-119482857D01*
X130485000Y-119197142D01*
X130485000Y-118840000D01*
X130413571Y-118554285D01*
X130342142Y-118411428D01*
X130270714Y-118340000D01*
X130127857Y-118268571D01*
X129127857Y-118268571D02*
X128127857Y-118268571D01*
X128770714Y-119768571D01*
X127556428Y-119197142D02*
X126413571Y-119197142D01*
X124913571Y-119768571D02*
X125770714Y-119768571D01*
X125342142Y-119768571D02*
X125342142Y-118268571D01*
X125485000Y-118482857D01*
X125627857Y-118625714D01*
X125770714Y-118697142D01*
X123485000Y-119768571D02*
X124342142Y-119768571D01*
X123913571Y-119768571D02*
X123913571Y-118268571D01*
X124056428Y-118482857D01*
X124199285Y-118625714D01*
X124342142Y-118697142D01*
X174912857Y-79353571D02*
X174912857Y-77853571D01*
X174555714Y-77853571D01*
X174341428Y-77925000D01*
X174198571Y-78067857D01*
X174127142Y-78210714D01*
X174055714Y-78496428D01*
X174055714Y-78710714D01*
X174127142Y-78996428D01*
X174198571Y-79139285D01*
X174341428Y-79282142D01*
X174555714Y-79353571D01*
X174912857Y-79353571D01*
X172841428Y-79282142D02*
X172984285Y-79353571D01*
X173270000Y-79353571D01*
X173412857Y-79282142D01*
X173484285Y-79139285D01*
X173484285Y-78567857D01*
X173412857Y-78425000D01*
X173270000Y-78353571D01*
X172984285Y-78353571D01*
X172841428Y-78425000D01*
X172770000Y-78567857D01*
X172770000Y-78710714D01*
X173484285Y-78853571D01*
X172198571Y-79282142D02*
X172055714Y-79353571D01*
X171770000Y-79353571D01*
X171627142Y-79282142D01*
X171555714Y-79139285D01*
X171555714Y-79067857D01*
X171627142Y-78925000D01*
X171770000Y-78853571D01*
X171984285Y-78853571D01*
X172127142Y-78782142D01*
X172198571Y-78639285D01*
X172198571Y-78567857D01*
X172127142Y-78425000D01*
X171984285Y-78353571D01*
X171770000Y-78353571D01*
X171627142Y-78425000D01*
X170912857Y-79353571D02*
X170912857Y-78353571D01*
X170912857Y-77853571D02*
X170984285Y-77925000D01*
X170912857Y-77996428D01*
X170841428Y-77925000D01*
X170912857Y-77853571D01*
X170912857Y-77996428D01*
X169555714Y-78353571D02*
X169555714Y-79567857D01*
X169627142Y-79710714D01*
X169698571Y-79782142D01*
X169841428Y-79853571D01*
X170055714Y-79853571D01*
X170198571Y-79782142D01*
X169555714Y-79282142D02*
X169698571Y-79353571D01*
X169984285Y-79353571D01*
X170127142Y-79282142D01*
X170198571Y-79210714D01*
X170270000Y-79067857D01*
X170270000Y-78639285D01*
X170198571Y-78496428D01*
X170127142Y-78425000D01*
X169984285Y-78353571D01*
X169698571Y-78353571D01*
X169555714Y-78425000D01*
X168841428Y-78353571D02*
X168841428Y-79353571D01*
X168841428Y-78496428D02*
X168770000Y-78425000D01*
X168627142Y-78353571D01*
X168412857Y-78353571D01*
X168270000Y-78425000D01*
X168198571Y-78567857D01*
X168198571Y-79353571D01*
X166912857Y-79282142D02*
X167055714Y-79353571D01*
X167341428Y-79353571D01*
X167484285Y-79282142D01*
X167555714Y-79139285D01*
X167555714Y-78567857D01*
X167484285Y-78425000D01*
X167341428Y-78353571D01*
X167055714Y-78353571D01*
X166912857Y-78425000D01*
X166841428Y-78567857D01*
X166841428Y-78710714D01*
X167555714Y-78853571D01*
X165555714Y-79353571D02*
X165555714Y-77853571D01*
X165555714Y-79282142D02*
X165698571Y-79353571D01*
X165984285Y-79353571D01*
X166127142Y-79282142D01*
X166198571Y-79210714D01*
X166270000Y-79067857D01*
X166270000Y-78639285D01*
X166198571Y-78496428D01*
X166127142Y-78425000D01*
X165984285Y-78353571D01*
X165698571Y-78353571D01*
X165555714Y-78425000D01*
X163698571Y-79353571D02*
X163698571Y-77853571D01*
X163698571Y-78425000D02*
X163555714Y-78353571D01*
X163270000Y-78353571D01*
X163127142Y-78425000D01*
X163055714Y-78496428D01*
X162984285Y-78639285D01*
X162984285Y-79067857D01*
X163055714Y-79210714D01*
X163127142Y-79282142D01*
X163270000Y-79353571D01*
X163555714Y-79353571D01*
X163698571Y-79282142D01*
X162484285Y-78353571D02*
X162127142Y-79353571D01*
X161770000Y-78353571D02*
X162127142Y-79353571D01*
X162270000Y-79710714D01*
X162341428Y-79782142D01*
X162484285Y-79853571D01*
X160270000Y-77853571D02*
X159412857Y-77853571D01*
X159841428Y-79353571D02*
X159841428Y-77853571D01*
X158912857Y-79353571D02*
X158912857Y-78353571D01*
X158912857Y-77853571D02*
X158984285Y-77925000D01*
X158912857Y-77996428D01*
X158841428Y-77925000D01*
X158912857Y-77853571D01*
X158912857Y-77996428D01*
X158198571Y-79353571D02*
X158198571Y-78353571D01*
X158198571Y-78496428D02*
X158127142Y-78425000D01*
X157984285Y-78353571D01*
X157770000Y-78353571D01*
X157627142Y-78425000D01*
X157555714Y-78567857D01*
X157555714Y-79353571D01*
X157555714Y-78567857D02*
X157484285Y-78425000D01*
X157341428Y-78353571D01*
X157127142Y-78353571D01*
X156984285Y-78425000D01*
X156912857Y-78567857D01*
X156912857Y-79353571D01*
X155055714Y-79353571D02*
X155055714Y-77853571D01*
X155055714Y-78567857D02*
X154198571Y-78567857D01*
X154198571Y-79353571D02*
X154198571Y-77853571D01*
X152841428Y-79353571D02*
X152841428Y-78567857D01*
X152912857Y-78425000D01*
X153055714Y-78353571D01*
X153341428Y-78353571D01*
X153484285Y-78425000D01*
X152841428Y-79282142D02*
X152984285Y-79353571D01*
X153341428Y-79353571D01*
X153484285Y-79282142D01*
X153555714Y-79139285D01*
X153555714Y-78996428D01*
X153484285Y-78853571D01*
X153341428Y-78782142D01*
X152984285Y-78782142D01*
X152841428Y-78710714D01*
X152270000Y-78353571D02*
X151984285Y-79353571D01*
X151698571Y-78639285D01*
X151412857Y-79353571D01*
X151127142Y-78353571D01*
X149984285Y-79282142D02*
X150127142Y-79353571D01*
X150412857Y-79353571D01*
X150555714Y-79282142D01*
X150627142Y-79139285D01*
X150627142Y-78567857D01*
X150555714Y-78425000D01*
X150412857Y-78353571D01*
X150127142Y-78353571D01*
X149984285Y-78425000D01*
X149912857Y-78567857D01*
X149912857Y-78710714D01*
X150627142Y-78853571D01*
X149341428Y-79282142D02*
X149198571Y-79353571D01*
X148912857Y-79353571D01*
X148770000Y-79282142D01*
X148698571Y-79139285D01*
X148698571Y-79067857D01*
X148770000Y-78925000D01*
X148912857Y-78853571D01*
X149127142Y-78853571D01*
X149270000Y-78782142D01*
X149341428Y-78639285D01*
X149341428Y-78567857D01*
X149270000Y-78425000D01*
X149127142Y-78353571D01*
X148912857Y-78353571D01*
X148770000Y-78425000D01*
X147127142Y-78353571D02*
X146555714Y-78353571D01*
X146912857Y-79353571D02*
X146912857Y-78067857D01*
X146841428Y-77925000D01*
X146698571Y-77853571D01*
X146555714Y-77853571D01*
X145841428Y-79353571D02*
X145984285Y-79282142D01*
X146055714Y-79210714D01*
X146127142Y-79067857D01*
X146127142Y-78639285D01*
X146055714Y-78496428D01*
X145984285Y-78425000D01*
X145841428Y-78353571D01*
X145627142Y-78353571D01*
X145484285Y-78425000D01*
X145412857Y-78496428D01*
X145341428Y-78639285D01*
X145341428Y-79067857D01*
X145412857Y-79210714D01*
X145484285Y-79282142D01*
X145627142Y-79353571D01*
X145841428Y-79353571D01*
X144698571Y-79353571D02*
X144698571Y-78353571D01*
X144698571Y-78639285D02*
X144627142Y-78496428D01*
X144555714Y-78425000D01*
X144412857Y-78353571D01*
X144270000Y-78353571D01*
X142627142Y-78567857D02*
X142127142Y-78567857D01*
X141912857Y-79353571D02*
X142627142Y-79353571D01*
X142627142Y-77853571D01*
X141912857Y-77853571D01*
X140627142Y-79353571D02*
X140627142Y-77853571D01*
X140627142Y-79282142D02*
X140770000Y-79353571D01*
X141055714Y-79353571D01*
X141198571Y-79282142D01*
X141270000Y-79210714D01*
X141341428Y-79067857D01*
X141341428Y-78639285D01*
X141270000Y-78496428D01*
X141198571Y-78425000D01*
X141055714Y-78353571D01*
X140770000Y-78353571D01*
X140627142Y-78425000D01*
X139912857Y-79353571D02*
X139912857Y-78353571D01*
X139912857Y-77853571D02*
X139984285Y-77925000D01*
X139912857Y-77996428D01*
X139841428Y-77925000D01*
X139912857Y-77853571D01*
X139912857Y-77996428D01*
X139198571Y-78353571D02*
X139198571Y-79353571D01*
X139198571Y-78496428D02*
X139127142Y-78425000D01*
X138984285Y-78353571D01*
X138770000Y-78353571D01*
X138627142Y-78425000D01*
X138555714Y-78567857D01*
X138555714Y-79353571D01*
X137841428Y-79353571D02*
X137841428Y-77853571D01*
X137841428Y-78425000D02*
X137698571Y-78353571D01*
X137412857Y-78353571D01*
X137270000Y-78425000D01*
X137198571Y-78496428D01*
X137127142Y-78639285D01*
X137127142Y-79067857D01*
X137198571Y-79210714D01*
X137270000Y-79282142D01*
X137412857Y-79353571D01*
X137698571Y-79353571D01*
X137841428Y-79282142D01*
X135841428Y-78353571D02*
X135841428Y-79353571D01*
X136484285Y-78353571D02*
X136484285Y-79139285D01*
X136412857Y-79282142D01*
X136270000Y-79353571D01*
X136055714Y-79353571D01*
X135912857Y-79282142D01*
X135841428Y-79210714D01*
X135127142Y-79353571D02*
X135127142Y-78353571D01*
X135127142Y-78639285D02*
X135055714Y-78496428D01*
X134984285Y-78425000D01*
X134841428Y-78353571D01*
X134698571Y-78353571D01*
X133555714Y-78353571D02*
X133555714Y-79567857D01*
X133627142Y-79710714D01*
X133698571Y-79782142D01*
X133841428Y-79853571D01*
X134055714Y-79853571D01*
X134198571Y-79782142D01*
X133555714Y-79282142D02*
X133698571Y-79353571D01*
X133984285Y-79353571D01*
X134127142Y-79282142D01*
X134198571Y-79210714D01*
X134270000Y-79067857D01*
X134270000Y-78639285D01*
X134198571Y-78496428D01*
X134127142Y-78425000D01*
X133984285Y-78353571D01*
X133698571Y-78353571D01*
X133555714Y-78425000D01*
X132841428Y-79353571D02*
X132841428Y-77853571D01*
X132198571Y-79353571D02*
X132198571Y-78567857D01*
X132270000Y-78425000D01*
X132412857Y-78353571D01*
X132627142Y-78353571D01*
X132770000Y-78425000D01*
X132841428Y-78496428D01*
X130341428Y-79353571D02*
X130341428Y-77853571D01*
X130341428Y-78567857D02*
X129484285Y-78567857D01*
X129484285Y-79353571D02*
X129484285Y-77853571D01*
X128127142Y-79353571D02*
X128127142Y-78567857D01*
X128198571Y-78425000D01*
X128341428Y-78353571D01*
X128627142Y-78353571D01*
X128770000Y-78425000D01*
X128127142Y-79282142D02*
X128270000Y-79353571D01*
X128627142Y-79353571D01*
X128770000Y-79282142D01*
X128841428Y-79139285D01*
X128841428Y-78996428D01*
X128770000Y-78853571D01*
X128627142Y-78782142D01*
X128270000Y-78782142D01*
X128127142Y-78710714D01*
X126770000Y-79282142D02*
X126912857Y-79353571D01*
X127198571Y-79353571D01*
X127341428Y-79282142D01*
X127412857Y-79210714D01*
X127484285Y-79067857D01*
X127484285Y-78639285D01*
X127412857Y-78496428D01*
X127341428Y-78425000D01*
X127198571Y-78353571D01*
X126912857Y-78353571D01*
X126770000Y-78425000D01*
X126127142Y-79353571D02*
X126127142Y-77853571D01*
X125984285Y-78782142D02*
X125555714Y-79353571D01*
X125555714Y-78353571D02*
X126127142Y-78925000D01*
X124698571Y-79353571D02*
X124841428Y-79282142D01*
X124912857Y-79139285D01*
X124912857Y-77853571D01*
X123484285Y-79353571D02*
X123484285Y-78567857D01*
X123555714Y-78425000D01*
X123698571Y-78353571D01*
X123984285Y-78353571D01*
X124127142Y-78425000D01*
X123484285Y-79282142D02*
X123627142Y-79353571D01*
X123984285Y-79353571D01*
X124127142Y-79282142D01*
X124198571Y-79139285D01*
X124198571Y-78996428D01*
X124127142Y-78853571D01*
X123984285Y-78782142D01*
X123627142Y-78782142D01*
X123484285Y-78710714D01*
X122770000Y-79353571D02*
X122770000Y-77853571D01*
X122770000Y-78425000D02*
X122627142Y-78353571D01*
X122341428Y-78353571D01*
X122198571Y-78425000D01*
X122127142Y-78496428D01*
X122055714Y-78639285D01*
X122055714Y-79067857D01*
X122127142Y-79210714D01*
X122198571Y-79282142D01*
X122341428Y-79353571D01*
X122627142Y-79353571D01*
X122770000Y-79282142D01*
X175234285Y-80903571D02*
X175234285Y-82117857D01*
X175305714Y-82260714D01*
X175377142Y-82332142D01*
X175520000Y-82403571D01*
X175734285Y-82403571D01*
X175877142Y-82332142D01*
X175234285Y-81832142D02*
X175377142Y-81903571D01*
X175662857Y-81903571D01*
X175805714Y-81832142D01*
X175877142Y-81760714D01*
X175948571Y-81617857D01*
X175948571Y-81189285D01*
X175877142Y-81046428D01*
X175805714Y-80975000D01*
X175662857Y-80903571D01*
X175377142Y-80903571D01*
X175234285Y-80975000D01*
X174520000Y-81903571D02*
X174520000Y-80903571D01*
X174520000Y-80403571D02*
X174591428Y-80475000D01*
X174520000Y-80546428D01*
X174448571Y-80475000D01*
X174520000Y-80403571D01*
X174520000Y-80546428D01*
X174020000Y-80903571D02*
X173448571Y-80903571D01*
X173805714Y-80403571D02*
X173805714Y-81689285D01*
X173734285Y-81832142D01*
X173591428Y-81903571D01*
X173448571Y-81903571D01*
X172948571Y-81903571D02*
X172948571Y-80403571D01*
X172305714Y-81903571D02*
X172305714Y-81117857D01*
X172377142Y-80975000D01*
X172520000Y-80903571D01*
X172734285Y-80903571D01*
X172877142Y-80975000D01*
X172948571Y-81046428D01*
X170948571Y-80903571D02*
X170948571Y-81903571D01*
X171591428Y-80903571D02*
X171591428Y-81689285D01*
X171520000Y-81832142D01*
X171377142Y-81903571D01*
X171162857Y-81903571D01*
X171020000Y-81832142D01*
X170948571Y-81760714D01*
X170234285Y-81903571D02*
X170234285Y-80403571D01*
X170234285Y-80975000D02*
X170091428Y-80903571D01*
X169805714Y-80903571D01*
X169662857Y-80975000D01*
X169591428Y-81046428D01*
X169520000Y-81189285D01*
X169520000Y-81617857D01*
X169591428Y-81760714D01*
X169662857Y-81832142D01*
X169805714Y-81903571D01*
X170091428Y-81903571D01*
X170234285Y-81832142D01*
X168877142Y-81760714D02*
X168805714Y-81832142D01*
X168877142Y-81903571D01*
X168948571Y-81832142D01*
X168877142Y-81760714D01*
X168877142Y-81903571D01*
X167520000Y-81832142D02*
X167662857Y-81903571D01*
X167948571Y-81903571D01*
X168091428Y-81832142D01*
X168162857Y-81760714D01*
X168234285Y-81617857D01*
X168234285Y-81189285D01*
X168162857Y-81046428D01*
X168091428Y-80975000D01*
X167948571Y-80903571D01*
X167662857Y-80903571D01*
X167520000Y-80975000D01*
X166662857Y-81903571D02*
X166805714Y-81832142D01*
X166877142Y-81760714D01*
X166948571Y-81617857D01*
X166948571Y-81189285D01*
X166877142Y-81046428D01*
X166805714Y-80975000D01*
X166662857Y-80903571D01*
X166448571Y-80903571D01*
X166305714Y-80975000D01*
X166234285Y-81046428D01*
X166162857Y-81189285D01*
X166162857Y-81617857D01*
X166234285Y-81760714D01*
X166305714Y-81832142D01*
X166448571Y-81903571D01*
X166662857Y-81903571D01*
X165520000Y-81903571D02*
X165520000Y-80903571D01*
X165520000Y-81046428D02*
X165448571Y-80975000D01*
X165305714Y-80903571D01*
X165091428Y-80903571D01*
X164948571Y-80975000D01*
X164877142Y-81117857D01*
X164877142Y-81903571D01*
X164877142Y-81117857D02*
X164805714Y-80975000D01*
X164662857Y-80903571D01*
X164448571Y-80903571D01*
X164305714Y-80975000D01*
X164234285Y-81117857D01*
X164234285Y-81903571D01*
X162448571Y-80332142D02*
X163734285Y-82260714D01*
X161377142Y-81832142D02*
X161520000Y-81903571D01*
X161805714Y-81903571D01*
X161948571Y-81832142D01*
X162020000Y-81689285D01*
X162020000Y-81117857D01*
X161948571Y-80975000D01*
X161805714Y-80903571D01*
X161520000Y-80903571D01*
X161377142Y-80975000D01*
X161305714Y-81117857D01*
X161305714Y-81260714D01*
X162020000Y-81403571D01*
X160020000Y-81903571D02*
X160020000Y-80403571D01*
X160020000Y-81832142D02*
X160162857Y-81903571D01*
X160448571Y-81903571D01*
X160591428Y-81832142D01*
X160662857Y-81760714D01*
X160734285Y-81617857D01*
X160734285Y-81189285D01*
X160662857Y-81046428D01*
X160591428Y-80975000D01*
X160448571Y-80903571D01*
X160162857Y-80903571D01*
X160020000Y-80975000D01*
X159305714Y-81903571D02*
X159305714Y-80903571D01*
X159305714Y-80403571D02*
X159377142Y-80475000D01*
X159305714Y-80546428D01*
X159234285Y-80475000D01*
X159305714Y-80403571D01*
X159305714Y-80546428D01*
X158591428Y-80903571D02*
X158591428Y-81903571D01*
X158591428Y-81046428D02*
X158520000Y-80975000D01*
X158377142Y-80903571D01*
X158162857Y-80903571D01*
X158020000Y-80975000D01*
X157948571Y-81117857D01*
X157948571Y-81903571D01*
X157234285Y-81903571D02*
X157234285Y-80403571D01*
X157234285Y-80975000D02*
X157091428Y-80903571D01*
X156805714Y-80903571D01*
X156662857Y-80975000D01*
X156591428Y-81046428D01*
X156520000Y-81189285D01*
X156520000Y-81617857D01*
X156591428Y-81760714D01*
X156662857Y-81832142D01*
X156805714Y-81903571D01*
X157091428Y-81903571D01*
X157234285Y-81832142D01*
X155234285Y-80903571D02*
X155234285Y-81903571D01*
X155877142Y-80903571D02*
X155877142Y-81689285D01*
X155805714Y-81832142D01*
X155662857Y-81903571D01*
X155448571Y-81903571D01*
X155305714Y-81832142D01*
X155234285Y-81760714D01*
X154520000Y-81903571D02*
X154520000Y-80903571D01*
X154520000Y-81189285D02*
X154448571Y-81046428D01*
X154377142Y-80975000D01*
X154234285Y-80903571D01*
X154091428Y-80903571D01*
X152948571Y-80903571D02*
X152948571Y-82117857D01*
X153020000Y-82260714D01*
X153091428Y-82332142D01*
X153234285Y-82403571D01*
X153448571Y-82403571D01*
X153591428Y-82332142D01*
X152948571Y-81832142D02*
X153091428Y-81903571D01*
X153377142Y-81903571D01*
X153520000Y-81832142D01*
X153591428Y-81760714D01*
X153662857Y-81617857D01*
X153662857Y-81189285D01*
X153591428Y-81046428D01*
X153520000Y-80975000D01*
X153377142Y-80903571D01*
X153091428Y-80903571D01*
X152948571Y-80975000D01*
X152234285Y-81903571D02*
X152234285Y-80403571D01*
X151591428Y-81903571D02*
X151591428Y-81117857D01*
X151662857Y-80975000D01*
X151805714Y-80903571D01*
X152020000Y-80903571D01*
X152162857Y-80975000D01*
X152234285Y-81046428D01*
X150877142Y-81903571D02*
X150877142Y-80403571D01*
X150234285Y-81903571D02*
X150234285Y-81117857D01*
X150305714Y-80975000D01*
X150448571Y-80903571D01*
X150662857Y-80903571D01*
X150805714Y-80975000D01*
X150877142Y-81046428D01*
X148877142Y-81903571D02*
X148877142Y-81117857D01*
X148948571Y-80975000D01*
X149091428Y-80903571D01*
X149377142Y-80903571D01*
X149519999Y-80975000D01*
X148877142Y-81832142D02*
X149019999Y-81903571D01*
X149377142Y-81903571D01*
X149519999Y-81832142D01*
X149591428Y-81689285D01*
X149591428Y-81546428D01*
X149519999Y-81403571D01*
X149377142Y-81332142D01*
X149019999Y-81332142D01*
X148877142Y-81260714D01*
X147519999Y-81832142D02*
X147662857Y-81903571D01*
X147948571Y-81903571D01*
X148091428Y-81832142D01*
X148162857Y-81760714D01*
X148234285Y-81617857D01*
X148234285Y-81189285D01*
X148162857Y-81046428D01*
X148091428Y-80975000D01*
X147948571Y-80903571D01*
X147662857Y-80903571D01*
X147519999Y-80975000D01*
X146877142Y-81903571D02*
X146877142Y-80403571D01*
X146734285Y-81332142D02*
X146305714Y-81903571D01*
X146305714Y-80903571D02*
X146877142Y-81475000D01*
X145448571Y-81903571D02*
X145591428Y-81832142D01*
X145662857Y-81689285D01*
X145662857Y-80403571D01*
X144234285Y-81903571D02*
X144234285Y-81117857D01*
X144305714Y-80975000D01*
X144448571Y-80903571D01*
X144734285Y-80903571D01*
X144877142Y-80975000D01*
X144234285Y-81832142D02*
X144377142Y-81903571D01*
X144734285Y-81903571D01*
X144877142Y-81832142D01*
X144948571Y-81689285D01*
X144948571Y-81546428D01*
X144877142Y-81403571D01*
X144734285Y-81332142D01*
X144377142Y-81332142D01*
X144234285Y-81260714D01*
X143519999Y-81903571D02*
X143519999Y-80403571D01*
X143519999Y-80975000D02*
X143377142Y-80903571D01*
X143091428Y-80903571D01*
X142948571Y-80975000D01*
X142877142Y-81046428D01*
X142805714Y-81189285D01*
X142805714Y-81617857D01*
X142877142Y-81760714D01*
X142948571Y-81832142D01*
X143091428Y-81903571D01*
X143377142Y-81903571D01*
X143519999Y-81832142D01*
X141091428Y-80332142D02*
X142377142Y-82260714D01*
X140805714Y-80903571D02*
X140234285Y-80903571D01*
X140591428Y-80403571D02*
X140591428Y-81689285D01*
X140519999Y-81832142D01*
X140377142Y-81903571D01*
X140234285Y-81903571D01*
X139519999Y-81903571D02*
X139662857Y-81832142D01*
X139734285Y-81760714D01*
X139805714Y-81617857D01*
X139805714Y-81189285D01*
X139734285Y-81046428D01*
X139662857Y-80975000D01*
X139519999Y-80903571D01*
X139305714Y-80903571D01*
X139162857Y-80975000D01*
X139091428Y-81046428D01*
X139019999Y-81189285D01*
X139019999Y-81617857D01*
X139091428Y-81760714D01*
X139162857Y-81832142D01*
X139305714Y-81903571D01*
X139519999Y-81903571D01*
X138162857Y-81903571D02*
X138305714Y-81832142D01*
X138377142Y-81760714D01*
X138448571Y-81617857D01*
X138448571Y-81189285D01*
X138377142Y-81046428D01*
X138305714Y-80975000D01*
X138162857Y-80903571D01*
X137948571Y-80903571D01*
X137805714Y-80975000D01*
X137734285Y-81046428D01*
X137662857Y-81189285D01*
X137662857Y-81617857D01*
X137734285Y-81760714D01*
X137805714Y-81832142D01*
X137948571Y-81903571D01*
X138162857Y-81903571D01*
X136805714Y-81903571D02*
X136948571Y-81832142D01*
X137019999Y-81689285D01*
X137019999Y-80403571D01*
X136234285Y-81332142D02*
X135091428Y-81332142D01*
X134162857Y-81903571D02*
X134305714Y-81832142D01*
X134377142Y-81689285D01*
X134377142Y-80403571D01*
X133377142Y-81903571D02*
X133519999Y-81832142D01*
X133591428Y-81760714D01*
X133662857Y-81617857D01*
X133662857Y-81189285D01*
X133591428Y-81046428D01*
X133519999Y-80975000D01*
X133377142Y-80903571D01*
X133162857Y-80903571D01*
X133019999Y-80975000D01*
X132948571Y-81046428D01*
X132877142Y-81189285D01*
X132877142Y-81617857D01*
X132948571Y-81760714D01*
X133019999Y-81832142D01*
X133162857Y-81903571D01*
X133377142Y-81903571D01*
X131591428Y-81832142D02*
X131734285Y-81903571D01*
X132019999Y-81903571D01*
X132162857Y-81832142D01*
X132234285Y-81760714D01*
X132305714Y-81617857D01*
X132305714Y-81189285D01*
X132234285Y-81046428D01*
X132162857Y-80975000D01*
X132019999Y-80903571D01*
X131734285Y-80903571D01*
X131591428Y-80975000D01*
X130948571Y-81903571D02*
X130948571Y-80403571D01*
X130805714Y-81332142D02*
X130377142Y-81903571D01*
X130377142Y-80903571D02*
X130948571Y-81475000D01*
X129162857Y-81832142D02*
X129305714Y-81903571D01*
X129591428Y-81903571D01*
X129734285Y-81832142D01*
X129805714Y-81689285D01*
X129805714Y-81117857D01*
X129734285Y-80975000D01*
X129591428Y-80903571D01*
X129305714Y-80903571D01*
X129162857Y-80975000D01*
X129091428Y-81117857D01*
X129091428Y-81260714D01*
X129805714Y-81403571D01*
X128448571Y-81903571D02*
X128448571Y-80903571D01*
X128448571Y-81189285D02*
X128377142Y-81046428D01*
X128305714Y-80975000D01*
X128162857Y-80903571D01*
X128019999Y-80903571D01*
X127591428Y-81832142D02*
X127448571Y-81903571D01*
X127162857Y-81903571D01*
X127019999Y-81832142D01*
X126948571Y-81689285D01*
X126948571Y-81617857D01*
X127019999Y-81475000D01*
X127162857Y-81403571D01*
X127377142Y-81403571D01*
X127519999Y-81332142D01*
X127591428Y-81189285D01*
X127591428Y-81117857D01*
X127519999Y-80975000D01*
X127377142Y-80903571D01*
X127162857Y-80903571D01*
X127019999Y-80975000D01*
X126305714Y-81332142D02*
X125162857Y-81332142D01*
X124448571Y-80903571D02*
X124448571Y-82403571D01*
X124448571Y-80975000D02*
X124305714Y-80903571D01*
X124019999Y-80903571D01*
X123877142Y-80975000D01*
X123805714Y-81046428D01*
X123734285Y-81189285D01*
X123734285Y-81617857D01*
X123805714Y-81760714D01*
X123877142Y-81832142D01*
X124019999Y-81903571D01*
X124305714Y-81903571D01*
X124448571Y-81832142D01*
X122448571Y-81832142D02*
X122591428Y-81903571D01*
X122877142Y-81903571D01*
X123019999Y-81832142D01*
X123091428Y-81760714D01*
X123162857Y-81617857D01*
X123162857Y-81189285D01*
X123091428Y-81046428D01*
X123019999Y-80975000D01*
X122877142Y-80903571D01*
X122591428Y-80903571D01*
X122448571Y-80975000D01*
X121805714Y-81903571D02*
X121805714Y-80403571D01*
X121805714Y-80975000D02*
X121662857Y-80903571D01*
X121377142Y-80903571D01*
X121234285Y-80975000D01*
X121162857Y-81046428D01*
X121091428Y-81189285D01*
X121091428Y-81617857D01*
X121162857Y-81760714D01*
X121234285Y-81832142D01*
X121377142Y-81903571D01*
X121662857Y-81903571D01*
X121805714Y-81832142D01*
M02*
