G04 #@! TF.GenerationSoftware,KiCad,Pcbnew,(5.1.2-1)-1*
G04 #@! TF.CreationDate,2019-07-26T11:47:48+01:00*
G04 #@! TF.ProjectId,tool-lockers-pcb,746f6f6c-2d6c-46f6-936b-6572732d7063,rev?*
G04 #@! TF.SameCoordinates,Original*
G04 #@! TF.FileFunction,Copper,L2,Bot*
G04 #@! TF.FilePolarity,Positive*
%FSLAX46Y46*%
G04 Gerber Fmt 4.6, Leading zero omitted, Abs format (unit mm)*
G04 Created by KiCad (PCBNEW (5.1.2-1)-1) date 2019-07-26 11:47:48*
%MOMM*%
%LPD*%
G04 APERTURE LIST*
%ADD10O,1.700000X1.700000*%
%ADD11R,1.700000X1.700000*%
%ADD12C,3.200400*%
%ADD13C,2.200000*%
%ADD14R,2.000000X2.000000*%
%ADD15C,2.000000*%
%ADD16O,3.600000X1.800000*%
%ADD17C,0.100000*%
%ADD18C,1.800000*%
%ADD19O,1.800000X3.600000*%
%ADD20O,2.000000X1.600000*%
%ADD21R,2.300000X1.500000*%
%ADD22O,2.300000X1.500000*%
%ADD23C,0.800000*%
%ADD24C,0.250000*%
%ADD25C,0.500000*%
%ADD26C,0.254000*%
G04 APERTURE END LIST*
D10*
X126960000Y-98160000D03*
D11*
X126960000Y-95620000D03*
D12*
X184589420Y-120195340D03*
X112590580Y-120195340D03*
X184589420Y-79194660D03*
X112590580Y-79194660D03*
D13*
X168569000Y-104180000D03*
X168569000Y-109180000D03*
X173569000Y-109180000D03*
X173569000Y-104180000D03*
D14*
X153289000Y-96520000D03*
D15*
X160889000Y-96520000D03*
D16*
X183769000Y-89281000D03*
X183769000Y-93091000D03*
D17*
G36*
X185343504Y-96002204D02*
G01*
X185367773Y-96005804D01*
X185391571Y-96011765D01*
X185414671Y-96020030D01*
X185436849Y-96030520D01*
X185457893Y-96043133D01*
X185477598Y-96057747D01*
X185495777Y-96074223D01*
X185512253Y-96092402D01*
X185526867Y-96112107D01*
X185539480Y-96133151D01*
X185549970Y-96155329D01*
X185558235Y-96178429D01*
X185564196Y-96202227D01*
X185567796Y-96226496D01*
X185569000Y-96251000D01*
X185569000Y-97551000D01*
X185567796Y-97575504D01*
X185564196Y-97599773D01*
X185558235Y-97623571D01*
X185549970Y-97646671D01*
X185539480Y-97668849D01*
X185526867Y-97689893D01*
X185512253Y-97709598D01*
X185495777Y-97727777D01*
X185477598Y-97744253D01*
X185457893Y-97758867D01*
X185436849Y-97771480D01*
X185414671Y-97781970D01*
X185391571Y-97790235D01*
X185367773Y-97796196D01*
X185343504Y-97799796D01*
X185319000Y-97801000D01*
X182219000Y-97801000D01*
X182194496Y-97799796D01*
X182170227Y-97796196D01*
X182146429Y-97790235D01*
X182123329Y-97781970D01*
X182101151Y-97771480D01*
X182080107Y-97758867D01*
X182060402Y-97744253D01*
X182042223Y-97727777D01*
X182025747Y-97709598D01*
X182011133Y-97689893D01*
X181998520Y-97668849D01*
X181988030Y-97646671D01*
X181979765Y-97623571D01*
X181973804Y-97599773D01*
X181970204Y-97575504D01*
X181969000Y-97551000D01*
X181969000Y-96251000D01*
X181970204Y-96226496D01*
X181973804Y-96202227D01*
X181979765Y-96178429D01*
X181988030Y-96155329D01*
X181998520Y-96133151D01*
X182011133Y-96112107D01*
X182025747Y-96092402D01*
X182042223Y-96074223D01*
X182060402Y-96057747D01*
X182080107Y-96043133D01*
X182101151Y-96030520D01*
X182123329Y-96020030D01*
X182146429Y-96011765D01*
X182170227Y-96005804D01*
X182194496Y-96002204D01*
X182219000Y-96001000D01*
X185319000Y-96001000D01*
X185343504Y-96002204D01*
X185343504Y-96002204D01*
G37*
D18*
X183769000Y-96901000D03*
D16*
X183769000Y-105664000D03*
D17*
G36*
X185343504Y-108575204D02*
G01*
X185367773Y-108578804D01*
X185391571Y-108584765D01*
X185414671Y-108593030D01*
X185436849Y-108603520D01*
X185457893Y-108616133D01*
X185477598Y-108630747D01*
X185495777Y-108647223D01*
X185512253Y-108665402D01*
X185526867Y-108685107D01*
X185539480Y-108706151D01*
X185549970Y-108728329D01*
X185558235Y-108751429D01*
X185564196Y-108775227D01*
X185567796Y-108799496D01*
X185569000Y-108824000D01*
X185569000Y-110124000D01*
X185567796Y-110148504D01*
X185564196Y-110172773D01*
X185558235Y-110196571D01*
X185549970Y-110219671D01*
X185539480Y-110241849D01*
X185526867Y-110262893D01*
X185512253Y-110282598D01*
X185495777Y-110300777D01*
X185477598Y-110317253D01*
X185457893Y-110331867D01*
X185436849Y-110344480D01*
X185414671Y-110354970D01*
X185391571Y-110363235D01*
X185367773Y-110369196D01*
X185343504Y-110372796D01*
X185319000Y-110374000D01*
X182219000Y-110374000D01*
X182194496Y-110372796D01*
X182170227Y-110369196D01*
X182146429Y-110363235D01*
X182123329Y-110354970D01*
X182101151Y-110344480D01*
X182080107Y-110331867D01*
X182060402Y-110317253D01*
X182042223Y-110300777D01*
X182025747Y-110282598D01*
X182011133Y-110262893D01*
X181998520Y-110241849D01*
X181988030Y-110219671D01*
X181979765Y-110196571D01*
X181973804Y-110172773D01*
X181970204Y-110148504D01*
X181969000Y-110124000D01*
X181969000Y-108824000D01*
X181970204Y-108799496D01*
X181973804Y-108775227D01*
X181979765Y-108751429D01*
X181988030Y-108728329D01*
X181998520Y-108706151D01*
X182011133Y-108685107D01*
X182025747Y-108665402D01*
X182042223Y-108647223D01*
X182060402Y-108630747D01*
X182080107Y-108616133D01*
X182101151Y-108603520D01*
X182123329Y-108593030D01*
X182146429Y-108584765D01*
X182170227Y-108578804D01*
X182194496Y-108575204D01*
X182219000Y-108574000D01*
X185319000Y-108574000D01*
X185343504Y-108575204D01*
X185343504Y-108575204D01*
G37*
D18*
X183769000Y-109474000D03*
D16*
X113284000Y-99187000D03*
X113284000Y-95377000D03*
X113284000Y-91567000D03*
D17*
G36*
X114858504Y-86858204D02*
G01*
X114882773Y-86861804D01*
X114906571Y-86867765D01*
X114929671Y-86876030D01*
X114951849Y-86886520D01*
X114972893Y-86899133D01*
X114992598Y-86913747D01*
X115010777Y-86930223D01*
X115027253Y-86948402D01*
X115041867Y-86968107D01*
X115054480Y-86989151D01*
X115064970Y-87011329D01*
X115073235Y-87034429D01*
X115079196Y-87058227D01*
X115082796Y-87082496D01*
X115084000Y-87107000D01*
X115084000Y-88407000D01*
X115082796Y-88431504D01*
X115079196Y-88455773D01*
X115073235Y-88479571D01*
X115064970Y-88502671D01*
X115054480Y-88524849D01*
X115041867Y-88545893D01*
X115027253Y-88565598D01*
X115010777Y-88583777D01*
X114992598Y-88600253D01*
X114972893Y-88614867D01*
X114951849Y-88627480D01*
X114929671Y-88637970D01*
X114906571Y-88646235D01*
X114882773Y-88652196D01*
X114858504Y-88655796D01*
X114834000Y-88657000D01*
X111734000Y-88657000D01*
X111709496Y-88655796D01*
X111685227Y-88652196D01*
X111661429Y-88646235D01*
X111638329Y-88637970D01*
X111616151Y-88627480D01*
X111595107Y-88614867D01*
X111575402Y-88600253D01*
X111557223Y-88583777D01*
X111540747Y-88565598D01*
X111526133Y-88545893D01*
X111513520Y-88524849D01*
X111503030Y-88502671D01*
X111494765Y-88479571D01*
X111488804Y-88455773D01*
X111485204Y-88431504D01*
X111484000Y-88407000D01*
X111484000Y-87107000D01*
X111485204Y-87082496D01*
X111488804Y-87058227D01*
X111494765Y-87034429D01*
X111503030Y-87011329D01*
X111513520Y-86989151D01*
X111526133Y-86968107D01*
X111540747Y-86948402D01*
X111557223Y-86930223D01*
X111575402Y-86913747D01*
X111595107Y-86899133D01*
X111616151Y-86886520D01*
X111638329Y-86876030D01*
X111661429Y-86867765D01*
X111685227Y-86861804D01*
X111709496Y-86858204D01*
X111734000Y-86857000D01*
X114834000Y-86857000D01*
X114858504Y-86858204D01*
X114858504Y-86858204D01*
G37*
D18*
X113284000Y-87757000D03*
D17*
G36*
X159932504Y-117454204D02*
G01*
X159956773Y-117457804D01*
X159980571Y-117463765D01*
X160003671Y-117472030D01*
X160025849Y-117482520D01*
X160046893Y-117495133D01*
X160066598Y-117509747D01*
X160084777Y-117526223D01*
X160101253Y-117544402D01*
X160115867Y-117564107D01*
X160128480Y-117585151D01*
X160138970Y-117607329D01*
X160147235Y-117630429D01*
X160153196Y-117654227D01*
X160156796Y-117678496D01*
X160158000Y-117703000D01*
X160158000Y-120803000D01*
X160156796Y-120827504D01*
X160153196Y-120851773D01*
X160147235Y-120875571D01*
X160138970Y-120898671D01*
X160128480Y-120920849D01*
X160115867Y-120941893D01*
X160101253Y-120961598D01*
X160084777Y-120979777D01*
X160066598Y-120996253D01*
X160046893Y-121010867D01*
X160025849Y-121023480D01*
X160003671Y-121033970D01*
X159980571Y-121042235D01*
X159956773Y-121048196D01*
X159932504Y-121051796D01*
X159908000Y-121053000D01*
X158608000Y-121053000D01*
X158583496Y-121051796D01*
X158559227Y-121048196D01*
X158535429Y-121042235D01*
X158512329Y-121033970D01*
X158490151Y-121023480D01*
X158469107Y-121010867D01*
X158449402Y-120996253D01*
X158431223Y-120979777D01*
X158414747Y-120961598D01*
X158400133Y-120941893D01*
X158387520Y-120920849D01*
X158377030Y-120898671D01*
X158368765Y-120875571D01*
X158362804Y-120851773D01*
X158359204Y-120827504D01*
X158358000Y-120803000D01*
X158358000Y-117703000D01*
X158359204Y-117678496D01*
X158362804Y-117654227D01*
X158368765Y-117630429D01*
X158377030Y-117607329D01*
X158387520Y-117585151D01*
X158400133Y-117564107D01*
X158414747Y-117544402D01*
X158431223Y-117526223D01*
X158449402Y-117509747D01*
X158469107Y-117495133D01*
X158490151Y-117482520D01*
X158512329Y-117472030D01*
X158535429Y-117463765D01*
X158559227Y-117457804D01*
X158583496Y-117454204D01*
X158608000Y-117453000D01*
X159908000Y-117453000D01*
X159932504Y-117454204D01*
X159932504Y-117454204D01*
G37*
D18*
X159258000Y-119253000D03*
D19*
X163068000Y-119253000D03*
X166878000Y-119253000D03*
X170688000Y-119253000D03*
X174498000Y-119253000D03*
D20*
X123190000Y-88011000D03*
D14*
X123190000Y-85471000D03*
D20*
X123190000Y-90551000D03*
X123190000Y-93091000D03*
X123190000Y-95631000D03*
X123190000Y-98171000D03*
X123190000Y-100711000D03*
X123190000Y-103251000D03*
X146050000Y-103251000D03*
X146050000Y-100711000D03*
X146050000Y-98171000D03*
X146050000Y-95631000D03*
X146050000Y-93091000D03*
X146050000Y-90551000D03*
X146050000Y-88011000D03*
X146050000Y-85471000D03*
D21*
X116459000Y-111887000D03*
D22*
X116459000Y-109347000D03*
X116459000Y-106807000D03*
D23*
X133096000Y-110236000D03*
X150320000Y-113160000D03*
X156845000Y-96520000D03*
X155067000Y-103505000D03*
X137922000Y-104267000D03*
X137922000Y-107950000D03*
D24*
X116859000Y-109347000D02*
X116459000Y-109347000D01*
X118618000Y-107588000D02*
X116859000Y-109347000D01*
X116205000Y-87757000D02*
X118618000Y-90170000D01*
X113284000Y-87757000D02*
X116205000Y-87757000D01*
X118618000Y-100457000D02*
X118618000Y-107588000D01*
X118618000Y-90170000D02*
X118618000Y-100457000D01*
X118618000Y-101219000D02*
X118618000Y-100457000D01*
X124079000Y-104775000D02*
X122174000Y-104775000D01*
X122174000Y-104775000D02*
X118618000Y-101219000D01*
X168569000Y-109180000D02*
X173569000Y-109180000D01*
X173863000Y-109474000D02*
X173569000Y-109180000D01*
X183769000Y-109474000D02*
X173863000Y-109474000D01*
X183769000Y-96901000D02*
X183769000Y-97901000D01*
X146050000Y-100711000D02*
X143764000Y-100711000D01*
X172469001Y-108080001D02*
X173569000Y-109180000D01*
X171069000Y-106680000D02*
X172469001Y-108080001D01*
X165735000Y-96520000D02*
X171069000Y-101854000D01*
X171069000Y-101854000D02*
X171069000Y-106680000D01*
X160889000Y-96520000D02*
X165735000Y-96520000D01*
X127508000Y-104648000D02*
X124206000Y-104648000D01*
X133096000Y-110236000D02*
X127508000Y-104648000D01*
X124206000Y-104648000D02*
X124079000Y-104775000D01*
X166878000Y-119253000D02*
X166878000Y-110871000D01*
X135890000Y-110236000D02*
X139954000Y-110236000D01*
X166878000Y-110871000D02*
X166243000Y-110236000D01*
X133096000Y-110236000D02*
X135890000Y-110236000D01*
X166243000Y-110236000D02*
X154305000Y-110236000D01*
X184739710Y-108503290D02*
X183769000Y-109474000D01*
X186563000Y-104521000D02*
X186563000Y-106680000D01*
X186563000Y-106680000D02*
X184739710Y-108503290D01*
X183769000Y-101727000D02*
X186563000Y-104521000D01*
X183769000Y-96901000D02*
X183769000Y-101727000D01*
X159889001Y-95520001D02*
X160889000Y-96520000D01*
X143764000Y-100711000D02*
X143383000Y-100711000D01*
X145384006Y-89425990D02*
X153794990Y-89425990D01*
X143383000Y-91426996D02*
X145384006Y-89425990D01*
X143383000Y-100711000D02*
X143383000Y-91426996D01*
X153794990Y-89425990D02*
X159889001Y-95520001D01*
X143764000Y-100711000D02*
X128143000Y-100711000D01*
X128143000Y-100711000D02*
X124206000Y-104648000D01*
X147396000Y-110236000D02*
X146876000Y-110236000D01*
X146876000Y-110236000D02*
X135890000Y-110236000D01*
X150320000Y-113160000D02*
X147396000Y-110236000D01*
X154305000Y-110236000D02*
X146876000Y-110236000D01*
D25*
X158258000Y-119253000D02*
X159258000Y-119253000D01*
X113284000Y-99187000D02*
X109601000Y-102870000D01*
X121588610Y-122809000D02*
X154702000Y-122809000D01*
X154702000Y-122809000D02*
X158258000Y-119253000D01*
X109601000Y-102870000D02*
X109601000Y-110821390D01*
X109601000Y-110821390D02*
X121588610Y-122809000D01*
D24*
X146050000Y-93091000D02*
X146250000Y-93091000D01*
X156845000Y-101727000D02*
X155067000Y-103505000D01*
X156845000Y-96520000D02*
X156845000Y-101727000D01*
X137922000Y-107950000D02*
X137922000Y-104267000D01*
D26*
G36*
X121564188Y-84346518D02*
G01*
X121551928Y-84471000D01*
X121551928Y-86471000D01*
X121564188Y-86595482D01*
X121600498Y-86715180D01*
X121659463Y-86825494D01*
X121738815Y-86922185D01*
X121835506Y-87001537D01*
X121923476Y-87048559D01*
X121791068Y-87209899D01*
X121657818Y-87459192D01*
X121575764Y-87729691D01*
X121548057Y-88011000D01*
X121575764Y-88292309D01*
X121657818Y-88562808D01*
X121791068Y-88812101D01*
X121970392Y-89030608D01*
X122188899Y-89209932D01*
X122321858Y-89281000D01*
X122188899Y-89352068D01*
X121970392Y-89531392D01*
X121791068Y-89749899D01*
X121657818Y-89999192D01*
X121575764Y-90269691D01*
X121548057Y-90551000D01*
X121575764Y-90832309D01*
X121657818Y-91102808D01*
X121791068Y-91352101D01*
X121970392Y-91570608D01*
X122188899Y-91749932D01*
X122321858Y-91821000D01*
X122188899Y-91892068D01*
X121970392Y-92071392D01*
X121791068Y-92289899D01*
X121657818Y-92539192D01*
X121575764Y-92809691D01*
X121548057Y-93091000D01*
X121575764Y-93372309D01*
X121657818Y-93642808D01*
X121791068Y-93892101D01*
X121970392Y-94110608D01*
X122188899Y-94289932D01*
X122321858Y-94361000D01*
X122188899Y-94432068D01*
X121970392Y-94611392D01*
X121791068Y-94829899D01*
X121657818Y-95079192D01*
X121575764Y-95349691D01*
X121548057Y-95631000D01*
X121575764Y-95912309D01*
X121657818Y-96182808D01*
X121791068Y-96432101D01*
X121970392Y-96650608D01*
X122188899Y-96829932D01*
X122321858Y-96901000D01*
X122188899Y-96972068D01*
X121970392Y-97151392D01*
X121791068Y-97369899D01*
X121657818Y-97619192D01*
X121575764Y-97889691D01*
X121548057Y-98171000D01*
X121575764Y-98452309D01*
X121657818Y-98722808D01*
X121791068Y-98972101D01*
X121970392Y-99190608D01*
X122188899Y-99369932D01*
X122321858Y-99441000D01*
X122188899Y-99512068D01*
X121970392Y-99691392D01*
X121791068Y-99909899D01*
X121657818Y-100159192D01*
X121575764Y-100429691D01*
X121548057Y-100711000D01*
X121575764Y-100992309D01*
X121657818Y-101262808D01*
X121791068Y-101512101D01*
X121970392Y-101730608D01*
X122188899Y-101909932D01*
X122321858Y-101981000D01*
X122188899Y-102052068D01*
X121970392Y-102231392D01*
X121791068Y-102449899D01*
X121657818Y-102699192D01*
X121575764Y-102969691D01*
X121548057Y-103251000D01*
X121575764Y-103532309D01*
X121657818Y-103802808D01*
X121791068Y-104052101D01*
X121970392Y-104270608D01*
X122188899Y-104449932D01*
X122438192Y-104583182D01*
X122708691Y-104665236D01*
X122919508Y-104686000D01*
X123460492Y-104686000D01*
X123671309Y-104665236D01*
X123941808Y-104583182D01*
X124191101Y-104449932D01*
X124409608Y-104270608D01*
X124496228Y-104165061D01*
X136887000Y-104165061D01*
X136887000Y-104368939D01*
X136926774Y-104568898D01*
X137004795Y-104757256D01*
X137118063Y-104926774D01*
X137162001Y-104970712D01*
X137162000Y-107246289D01*
X137118063Y-107290226D01*
X137004795Y-107459744D01*
X136926774Y-107648102D01*
X136887000Y-107848061D01*
X136887000Y-108051939D01*
X136926774Y-108251898D01*
X137004795Y-108440256D01*
X137118063Y-108609774D01*
X137262226Y-108753937D01*
X137431744Y-108867205D01*
X137620102Y-108945226D01*
X137820061Y-108985000D01*
X138023939Y-108985000D01*
X138223898Y-108945226D01*
X138412256Y-108867205D01*
X138581774Y-108753937D01*
X138725937Y-108609774D01*
X138839205Y-108440256D01*
X138917226Y-108251898D01*
X138957000Y-108051939D01*
X138957000Y-107973288D01*
X167541893Y-107973288D01*
X168569000Y-109000395D01*
X169596107Y-107973288D01*
X172541893Y-107973288D01*
X173569000Y-109000395D01*
X174596107Y-107973288D01*
X174488274Y-107698662D01*
X174181616Y-107547784D01*
X173851415Y-107459631D01*
X173510361Y-107437591D01*
X173171561Y-107482511D01*
X172848034Y-107592664D01*
X172649726Y-107698662D01*
X172541893Y-107973288D01*
X169596107Y-107973288D01*
X169488274Y-107698662D01*
X169181616Y-107547784D01*
X168851415Y-107459631D01*
X168510361Y-107437591D01*
X168171561Y-107482511D01*
X167848034Y-107592664D01*
X167649726Y-107698662D01*
X167541893Y-107973288D01*
X138957000Y-107973288D01*
X138957000Y-107848061D01*
X138917226Y-107648102D01*
X138839205Y-107459744D01*
X138725937Y-107290226D01*
X138682000Y-107246289D01*
X138682000Y-104970711D01*
X138725937Y-104926774D01*
X138839205Y-104757256D01*
X138917226Y-104568898D01*
X138957000Y-104368939D01*
X138957000Y-104165061D01*
X138917226Y-103965102D01*
X138839205Y-103776744D01*
X138725937Y-103607226D01*
X138581774Y-103463063D01*
X138412256Y-103349795D01*
X138223898Y-103271774D01*
X138119460Y-103251000D01*
X144408057Y-103251000D01*
X144435764Y-103532309D01*
X144517818Y-103802808D01*
X144651068Y-104052101D01*
X144830392Y-104270608D01*
X145048899Y-104449932D01*
X145298192Y-104583182D01*
X145568691Y-104665236D01*
X145779508Y-104686000D01*
X146320492Y-104686000D01*
X146531309Y-104665236D01*
X146801808Y-104583182D01*
X147051101Y-104449932D01*
X147269608Y-104270608D01*
X147448932Y-104052101D01*
X147582182Y-103802808D01*
X147664236Y-103532309D01*
X147676966Y-103403061D01*
X154032000Y-103403061D01*
X154032000Y-103606939D01*
X154071774Y-103806898D01*
X154149795Y-103995256D01*
X154263063Y-104164774D01*
X154407226Y-104308937D01*
X154576744Y-104422205D01*
X154765102Y-104500226D01*
X154965061Y-104540000D01*
X155168939Y-104540000D01*
X155368898Y-104500226D01*
X155557256Y-104422205D01*
X155726774Y-104308937D01*
X155870937Y-104164774D01*
X155974943Y-104009117D01*
X166834000Y-104009117D01*
X166834000Y-104350883D01*
X166900675Y-104686081D01*
X167031463Y-105001831D01*
X167221337Y-105285998D01*
X167463002Y-105527663D01*
X167747169Y-105717537D01*
X168062919Y-105848325D01*
X168398117Y-105915000D01*
X168739883Y-105915000D01*
X169075081Y-105848325D01*
X169390831Y-105717537D01*
X169674998Y-105527663D01*
X169916663Y-105285998D01*
X170106537Y-105001831D01*
X170237325Y-104686081D01*
X170304000Y-104350883D01*
X170304000Y-104009117D01*
X171834000Y-104009117D01*
X171834000Y-104350883D01*
X171900675Y-104686081D01*
X172031463Y-105001831D01*
X172221337Y-105285998D01*
X172463002Y-105527663D01*
X172747169Y-105717537D01*
X173062919Y-105848325D01*
X173398117Y-105915000D01*
X173739883Y-105915000D01*
X174075081Y-105848325D01*
X174390831Y-105717537D01*
X174470954Y-105664000D01*
X181326573Y-105664000D01*
X181356210Y-105964913D01*
X181443983Y-106254261D01*
X181586519Y-106520927D01*
X181778339Y-106754661D01*
X182012073Y-106946481D01*
X182278739Y-107089017D01*
X182568087Y-107176790D01*
X182793592Y-107199000D01*
X184744408Y-107199000D01*
X184969913Y-107176790D01*
X185259261Y-107089017D01*
X185525927Y-106946481D01*
X185759661Y-106754661D01*
X185951481Y-106520927D01*
X186094017Y-106254261D01*
X186181790Y-105964913D01*
X186211427Y-105664000D01*
X186181790Y-105363087D01*
X186094017Y-105073739D01*
X185951481Y-104807073D01*
X185759661Y-104573339D01*
X185525927Y-104381519D01*
X185259261Y-104238983D01*
X184969913Y-104151210D01*
X184744408Y-104129000D01*
X182793592Y-104129000D01*
X182568087Y-104151210D01*
X182278739Y-104238983D01*
X182012073Y-104381519D01*
X181778339Y-104573339D01*
X181586519Y-104807073D01*
X181443983Y-105073739D01*
X181356210Y-105363087D01*
X181326573Y-105664000D01*
X174470954Y-105664000D01*
X174674998Y-105527663D01*
X174916663Y-105285998D01*
X175106537Y-105001831D01*
X175237325Y-104686081D01*
X175304000Y-104350883D01*
X175304000Y-104009117D01*
X175237325Y-103673919D01*
X175106537Y-103358169D01*
X174916663Y-103074002D01*
X174674998Y-102832337D01*
X174390831Y-102642463D01*
X174075081Y-102511675D01*
X173739883Y-102445000D01*
X173398117Y-102445000D01*
X173062919Y-102511675D01*
X172747169Y-102642463D01*
X172463002Y-102832337D01*
X172221337Y-103074002D01*
X172031463Y-103358169D01*
X171900675Y-103673919D01*
X171834000Y-104009117D01*
X170304000Y-104009117D01*
X170237325Y-103673919D01*
X170106537Y-103358169D01*
X169916663Y-103074002D01*
X169674998Y-102832337D01*
X169390831Y-102642463D01*
X169075081Y-102511675D01*
X168739883Y-102445000D01*
X168398117Y-102445000D01*
X168062919Y-102511675D01*
X167747169Y-102642463D01*
X167463002Y-102832337D01*
X167221337Y-103074002D01*
X167031463Y-103358169D01*
X166900675Y-103673919D01*
X166834000Y-104009117D01*
X155974943Y-104009117D01*
X155984205Y-103995256D01*
X156062226Y-103806898D01*
X156102000Y-103606939D01*
X156102000Y-103544801D01*
X157356003Y-102290799D01*
X157385001Y-102267001D01*
X157479974Y-102151276D01*
X157550546Y-102019247D01*
X157594003Y-101875986D01*
X157605000Y-101764333D01*
X157605000Y-101764325D01*
X157608676Y-101727000D01*
X157605000Y-101689675D01*
X157605000Y-97655413D01*
X159933192Y-97655413D01*
X160028956Y-97919814D01*
X160318571Y-98060704D01*
X160630108Y-98142384D01*
X160951595Y-98161718D01*
X161270675Y-98117961D01*
X161575088Y-98012795D01*
X161749044Y-97919814D01*
X161792077Y-97801000D01*
X181330928Y-97801000D01*
X181343188Y-97925482D01*
X181379498Y-98045180D01*
X181438463Y-98155494D01*
X181517815Y-98252185D01*
X181614506Y-98331537D01*
X181724820Y-98390502D01*
X181844518Y-98426812D01*
X181969000Y-98439072D01*
X183483250Y-98436000D01*
X183642000Y-98277250D01*
X183642000Y-97028000D01*
X183896000Y-97028000D01*
X183896000Y-98277250D01*
X184054750Y-98436000D01*
X185569000Y-98439072D01*
X185693482Y-98426812D01*
X185813180Y-98390502D01*
X185923494Y-98331537D01*
X186020185Y-98252185D01*
X186099537Y-98155494D01*
X186158502Y-98045180D01*
X186194812Y-97925482D01*
X186207072Y-97801000D01*
X186204000Y-97186750D01*
X186045250Y-97028000D01*
X183896000Y-97028000D01*
X183642000Y-97028000D01*
X181492750Y-97028000D01*
X181334000Y-97186750D01*
X181330928Y-97801000D01*
X161792077Y-97801000D01*
X161844808Y-97655413D01*
X160889000Y-96699605D01*
X159933192Y-97655413D01*
X157605000Y-97655413D01*
X157605000Y-97223711D01*
X157648937Y-97179774D01*
X157762205Y-97010256D01*
X157840226Y-96821898D01*
X157880000Y-96621939D01*
X157880000Y-96582595D01*
X159247282Y-96582595D01*
X159291039Y-96901675D01*
X159396205Y-97206088D01*
X159489186Y-97380044D01*
X159753587Y-97475808D01*
X160709395Y-96520000D01*
X161068605Y-96520000D01*
X162024413Y-97475808D01*
X162288814Y-97380044D01*
X162429704Y-97090429D01*
X162511384Y-96778892D01*
X162530718Y-96457405D01*
X162486961Y-96138325D01*
X162439520Y-96001000D01*
X181330928Y-96001000D01*
X181334000Y-96615250D01*
X181492750Y-96774000D01*
X183642000Y-96774000D01*
X183642000Y-95524750D01*
X183896000Y-95524750D01*
X183896000Y-96774000D01*
X186045250Y-96774000D01*
X186204000Y-96615250D01*
X186207072Y-96001000D01*
X186194812Y-95876518D01*
X186158502Y-95756820D01*
X186099537Y-95646506D01*
X186020185Y-95549815D01*
X185923494Y-95470463D01*
X185813180Y-95411498D01*
X185693482Y-95375188D01*
X185569000Y-95362928D01*
X184054750Y-95366000D01*
X183896000Y-95524750D01*
X183642000Y-95524750D01*
X183483250Y-95366000D01*
X181969000Y-95362928D01*
X181844518Y-95375188D01*
X181724820Y-95411498D01*
X181614506Y-95470463D01*
X181517815Y-95549815D01*
X181438463Y-95646506D01*
X181379498Y-95756820D01*
X181343188Y-95876518D01*
X181330928Y-96001000D01*
X162439520Y-96001000D01*
X162381795Y-95833912D01*
X162288814Y-95659956D01*
X162024413Y-95564192D01*
X161068605Y-96520000D01*
X160709395Y-96520000D01*
X159753587Y-95564192D01*
X159489186Y-95659956D01*
X159348296Y-95949571D01*
X159266616Y-96261108D01*
X159247282Y-96582595D01*
X157880000Y-96582595D01*
X157880000Y-96418061D01*
X157840226Y-96218102D01*
X157762205Y-96029744D01*
X157648937Y-95860226D01*
X157504774Y-95716063D01*
X157335256Y-95602795D01*
X157146898Y-95524774D01*
X156946939Y-95485000D01*
X156743061Y-95485000D01*
X156543102Y-95524774D01*
X156354744Y-95602795D01*
X156185226Y-95716063D01*
X156041063Y-95860226D01*
X155927795Y-96029744D01*
X155849774Y-96218102D01*
X155810000Y-96418061D01*
X155810000Y-96621939D01*
X155849774Y-96821898D01*
X155927795Y-97010256D01*
X156041063Y-97179774D01*
X156085000Y-97223711D01*
X156085001Y-101412197D01*
X155027199Y-102470000D01*
X154965061Y-102470000D01*
X154765102Y-102509774D01*
X154576744Y-102587795D01*
X154407226Y-102701063D01*
X154263063Y-102845226D01*
X154149795Y-103014744D01*
X154071774Y-103203102D01*
X154032000Y-103403061D01*
X147676966Y-103403061D01*
X147691943Y-103251000D01*
X147664236Y-102969691D01*
X147582182Y-102699192D01*
X147448932Y-102449899D01*
X147269608Y-102231392D01*
X147051101Y-102052068D01*
X146921655Y-101982878D01*
X146939227Y-101975430D01*
X147172662Y-101816673D01*
X147370639Y-101615425D01*
X147525551Y-101379421D01*
X147631444Y-101117730D01*
X147641904Y-101060039D01*
X147519915Y-100838000D01*
X146177000Y-100838000D01*
X146177000Y-100858000D01*
X145923000Y-100858000D01*
X145923000Y-100838000D01*
X144580085Y-100838000D01*
X144458096Y-101060039D01*
X144468556Y-101117730D01*
X144574449Y-101379421D01*
X144729361Y-101615425D01*
X144927338Y-101816673D01*
X145160773Y-101975430D01*
X145178345Y-101982878D01*
X145048899Y-102052068D01*
X144830392Y-102231392D01*
X144651068Y-102449899D01*
X144517818Y-102699192D01*
X144435764Y-102969691D01*
X144408057Y-103251000D01*
X138119460Y-103251000D01*
X138023939Y-103232000D01*
X137820061Y-103232000D01*
X137620102Y-103271774D01*
X137431744Y-103349795D01*
X137262226Y-103463063D01*
X137118063Y-103607226D01*
X137004795Y-103776744D01*
X136926774Y-103965102D01*
X136887000Y-104165061D01*
X124496228Y-104165061D01*
X124588932Y-104052101D01*
X124722182Y-103802808D01*
X124804236Y-103532309D01*
X124831943Y-103251000D01*
X124804236Y-102969691D01*
X124722182Y-102699192D01*
X124588932Y-102449899D01*
X124409608Y-102231392D01*
X124191101Y-102052068D01*
X124058142Y-101981000D01*
X124191101Y-101909932D01*
X124409608Y-101730608D01*
X124588932Y-101512101D01*
X124722182Y-101262808D01*
X124804236Y-100992309D01*
X124831943Y-100711000D01*
X124804236Y-100429691D01*
X124722182Y-100159192D01*
X124588932Y-99909899D01*
X124409608Y-99691392D01*
X124191101Y-99512068D01*
X124058142Y-99441000D01*
X124191101Y-99369932D01*
X124409608Y-99190608D01*
X124588932Y-98972101D01*
X124722182Y-98722808D01*
X124804236Y-98452309D01*
X124831943Y-98171000D01*
X124830860Y-98160000D01*
X125467815Y-98160000D01*
X125496487Y-98451111D01*
X125581401Y-98731034D01*
X125719294Y-98989014D01*
X125904866Y-99215134D01*
X126130986Y-99400706D01*
X126388966Y-99538599D01*
X126668889Y-99623513D01*
X126887050Y-99645000D01*
X127032950Y-99645000D01*
X127251111Y-99623513D01*
X127531034Y-99538599D01*
X127789014Y-99400706D01*
X128015134Y-99215134D01*
X128200706Y-98989014D01*
X128338599Y-98731034D01*
X128423513Y-98451111D01*
X128452185Y-98160000D01*
X128423513Y-97868889D01*
X128338599Y-97588966D01*
X128200706Y-97330986D01*
X128015134Y-97104866D01*
X127985313Y-97080393D01*
X128054180Y-97059502D01*
X128164494Y-97000537D01*
X128261185Y-96921185D01*
X128340537Y-96824494D01*
X128399502Y-96714180D01*
X128435812Y-96594482D01*
X128448072Y-96470000D01*
X128448072Y-94770000D01*
X128435812Y-94645518D01*
X128399502Y-94525820D01*
X128340537Y-94415506D01*
X128261185Y-94318815D01*
X128164494Y-94239463D01*
X128054180Y-94180498D01*
X127934482Y-94144188D01*
X127810000Y-94131928D01*
X126110000Y-94131928D01*
X125985518Y-94144188D01*
X125865820Y-94180498D01*
X125755506Y-94239463D01*
X125658815Y-94318815D01*
X125579463Y-94415506D01*
X125520498Y-94525820D01*
X125484188Y-94645518D01*
X125471928Y-94770000D01*
X125471928Y-96470000D01*
X125484188Y-96594482D01*
X125520498Y-96714180D01*
X125579463Y-96824494D01*
X125658815Y-96921185D01*
X125755506Y-97000537D01*
X125865820Y-97059502D01*
X125934687Y-97080393D01*
X125904866Y-97104866D01*
X125719294Y-97330986D01*
X125581401Y-97588966D01*
X125496487Y-97868889D01*
X125467815Y-98160000D01*
X124830860Y-98160000D01*
X124804236Y-97889691D01*
X124722182Y-97619192D01*
X124588932Y-97369899D01*
X124409608Y-97151392D01*
X124191101Y-96972068D01*
X124058142Y-96901000D01*
X124191101Y-96829932D01*
X124409608Y-96650608D01*
X124588932Y-96432101D01*
X124722182Y-96182808D01*
X124804236Y-95912309D01*
X124831943Y-95631000D01*
X124804236Y-95349691D01*
X124722182Y-95079192D01*
X124588932Y-94829899D01*
X124409608Y-94611392D01*
X124191101Y-94432068D01*
X124058142Y-94361000D01*
X124191101Y-94289932D01*
X124409608Y-94110608D01*
X124588932Y-93892101D01*
X124722182Y-93642808D01*
X124804236Y-93372309D01*
X124831943Y-93091000D01*
X124804236Y-92809691D01*
X124722182Y-92539192D01*
X124588932Y-92289899D01*
X124409608Y-92071392D01*
X124191101Y-91892068D01*
X124058142Y-91821000D01*
X124191101Y-91749932D01*
X124409608Y-91570608D01*
X124588932Y-91352101D01*
X124722182Y-91102808D01*
X124804236Y-90832309D01*
X124831943Y-90551000D01*
X124804236Y-90269691D01*
X124722182Y-89999192D01*
X124588932Y-89749899D01*
X124409608Y-89531392D01*
X124191101Y-89352068D01*
X124058142Y-89281000D01*
X124191101Y-89209932D01*
X124409608Y-89030608D01*
X124588932Y-88812101D01*
X124722182Y-88562808D01*
X124804236Y-88292309D01*
X124831943Y-88011000D01*
X124804236Y-87729691D01*
X124722182Y-87459192D01*
X124588932Y-87209899D01*
X124456524Y-87048559D01*
X124544494Y-87001537D01*
X124641185Y-86922185D01*
X124720537Y-86825494D01*
X124779502Y-86715180D01*
X124815812Y-86595482D01*
X124828072Y-86471000D01*
X124828072Y-84471000D01*
X124815812Y-84346518D01*
X124810195Y-84328000D01*
X144980746Y-84328000D01*
X144830392Y-84451392D01*
X144651068Y-84669899D01*
X144517818Y-84919192D01*
X144435764Y-85189691D01*
X144408057Y-85471000D01*
X144435764Y-85752309D01*
X144517818Y-86022808D01*
X144651068Y-86272101D01*
X144830392Y-86490608D01*
X145048899Y-86669932D01*
X145181858Y-86741000D01*
X145048899Y-86812068D01*
X144830392Y-86991392D01*
X144651068Y-87209899D01*
X144517818Y-87459192D01*
X144435764Y-87729691D01*
X144408057Y-88011000D01*
X144435764Y-88292309D01*
X144517818Y-88562808D01*
X144651068Y-88812101D01*
X144830392Y-89030608D01*
X145048899Y-89209932D01*
X145181858Y-89281000D01*
X145048899Y-89352068D01*
X144830392Y-89531392D01*
X144651068Y-89749899D01*
X144517818Y-89999192D01*
X144435764Y-90269691D01*
X144408057Y-90551000D01*
X144435764Y-90832309D01*
X144517818Y-91102808D01*
X144651068Y-91352101D01*
X144830392Y-91570608D01*
X145048899Y-91749932D01*
X145181858Y-91821000D01*
X145048899Y-91892068D01*
X144830392Y-92071392D01*
X144651068Y-92289899D01*
X144517818Y-92539192D01*
X144435764Y-92809691D01*
X144408057Y-93091000D01*
X144435764Y-93372309D01*
X144517818Y-93642808D01*
X144651068Y-93892101D01*
X144830392Y-94110608D01*
X145048899Y-94289932D01*
X145181858Y-94361000D01*
X145048899Y-94432068D01*
X144830392Y-94611392D01*
X144651068Y-94829899D01*
X144517818Y-95079192D01*
X144435764Y-95349691D01*
X144408057Y-95631000D01*
X144435764Y-95912309D01*
X144517818Y-96182808D01*
X144651068Y-96432101D01*
X144830392Y-96650608D01*
X145048899Y-96829932D01*
X145181858Y-96901000D01*
X145048899Y-96972068D01*
X144830392Y-97151392D01*
X144651068Y-97369899D01*
X144517818Y-97619192D01*
X144435764Y-97889691D01*
X144408057Y-98171000D01*
X144435764Y-98452309D01*
X144517818Y-98722808D01*
X144651068Y-98972101D01*
X144830392Y-99190608D01*
X145048899Y-99369932D01*
X145178345Y-99439122D01*
X145160773Y-99446570D01*
X144927338Y-99605327D01*
X144729361Y-99806575D01*
X144574449Y-100042579D01*
X144468556Y-100304270D01*
X144458096Y-100361961D01*
X144580085Y-100584000D01*
X145923000Y-100584000D01*
X145923000Y-100564000D01*
X146177000Y-100564000D01*
X146177000Y-100584000D01*
X147519915Y-100584000D01*
X147641904Y-100361961D01*
X147631444Y-100304270D01*
X147525551Y-100042579D01*
X147370639Y-99806575D01*
X147172662Y-99605327D01*
X146939227Y-99446570D01*
X146921655Y-99439122D01*
X147051101Y-99369932D01*
X147269608Y-99190608D01*
X147448932Y-98972101D01*
X147582182Y-98722808D01*
X147664236Y-98452309D01*
X147691943Y-98171000D01*
X147664236Y-97889691D01*
X147582182Y-97619192D01*
X147448932Y-97369899D01*
X147269608Y-97151392D01*
X147051101Y-96972068D01*
X146918142Y-96901000D01*
X147051101Y-96829932D01*
X147269608Y-96650608D01*
X147448932Y-96432101D01*
X147582182Y-96182808D01*
X147664236Y-95912309D01*
X147691943Y-95631000D01*
X147681011Y-95520000D01*
X151650928Y-95520000D01*
X151650928Y-97520000D01*
X151663188Y-97644482D01*
X151699498Y-97764180D01*
X151758463Y-97874494D01*
X151837815Y-97971185D01*
X151934506Y-98050537D01*
X152044820Y-98109502D01*
X152164518Y-98145812D01*
X152289000Y-98158072D01*
X154289000Y-98158072D01*
X154413482Y-98145812D01*
X154533180Y-98109502D01*
X154643494Y-98050537D01*
X154740185Y-97971185D01*
X154819537Y-97874494D01*
X154878502Y-97764180D01*
X154914812Y-97644482D01*
X154927072Y-97520000D01*
X154927072Y-95520000D01*
X154914812Y-95395518D01*
X154911497Y-95384587D01*
X159933192Y-95384587D01*
X160889000Y-96340395D01*
X161844808Y-95384587D01*
X161749044Y-95120186D01*
X161459429Y-94979296D01*
X161147892Y-94897616D01*
X160826405Y-94878282D01*
X160507325Y-94922039D01*
X160202912Y-95027205D01*
X160028956Y-95120186D01*
X159933192Y-95384587D01*
X154911497Y-95384587D01*
X154878502Y-95275820D01*
X154819537Y-95165506D01*
X154740185Y-95068815D01*
X154643494Y-94989463D01*
X154533180Y-94930498D01*
X154413482Y-94894188D01*
X154289000Y-94881928D01*
X152289000Y-94881928D01*
X152164518Y-94894188D01*
X152044820Y-94930498D01*
X151934506Y-94989463D01*
X151837815Y-95068815D01*
X151758463Y-95165506D01*
X151699498Y-95275820D01*
X151663188Y-95395518D01*
X151650928Y-95520000D01*
X147681011Y-95520000D01*
X147664236Y-95349691D01*
X147582182Y-95079192D01*
X147448932Y-94829899D01*
X147269608Y-94611392D01*
X147051101Y-94432068D01*
X146918142Y-94361000D01*
X147051101Y-94289932D01*
X147269608Y-94110608D01*
X147448932Y-93892101D01*
X147582182Y-93642808D01*
X147664236Y-93372309D01*
X147691943Y-93091000D01*
X181326573Y-93091000D01*
X181356210Y-93391913D01*
X181443983Y-93681261D01*
X181586519Y-93947927D01*
X181778339Y-94181661D01*
X182012073Y-94373481D01*
X182278739Y-94516017D01*
X182568087Y-94603790D01*
X182793592Y-94626000D01*
X184744408Y-94626000D01*
X184969913Y-94603790D01*
X185259261Y-94516017D01*
X185525927Y-94373481D01*
X185759661Y-94181661D01*
X185951481Y-93947927D01*
X186094017Y-93681261D01*
X186181790Y-93391913D01*
X186211427Y-93091000D01*
X186181790Y-92790087D01*
X186094017Y-92500739D01*
X185951481Y-92234073D01*
X185759661Y-92000339D01*
X185525927Y-91808519D01*
X185259261Y-91665983D01*
X184969913Y-91578210D01*
X184744408Y-91556000D01*
X182793592Y-91556000D01*
X182568087Y-91578210D01*
X182278739Y-91665983D01*
X182012073Y-91808519D01*
X181778339Y-92000339D01*
X181586519Y-92234073D01*
X181443983Y-92500739D01*
X181356210Y-92790087D01*
X181326573Y-93091000D01*
X147691943Y-93091000D01*
X147664236Y-92809691D01*
X147582182Y-92539192D01*
X147448932Y-92289899D01*
X147269608Y-92071392D01*
X147051101Y-91892068D01*
X146918142Y-91821000D01*
X147051101Y-91749932D01*
X147269608Y-91570608D01*
X147448932Y-91352101D01*
X147582182Y-91102808D01*
X147664236Y-90832309D01*
X147691943Y-90551000D01*
X147664236Y-90269691D01*
X147582182Y-89999192D01*
X147448932Y-89749899D01*
X147269608Y-89531392D01*
X147051101Y-89352068D01*
X146918142Y-89281000D01*
X181326573Y-89281000D01*
X181356210Y-89581913D01*
X181443983Y-89871261D01*
X181586519Y-90137927D01*
X181778339Y-90371661D01*
X182012073Y-90563481D01*
X182278739Y-90706017D01*
X182568087Y-90793790D01*
X182793592Y-90816000D01*
X184744408Y-90816000D01*
X184969913Y-90793790D01*
X185259261Y-90706017D01*
X185525927Y-90563481D01*
X185759661Y-90371661D01*
X185951481Y-90137927D01*
X186094017Y-89871261D01*
X186181790Y-89581913D01*
X186211427Y-89281000D01*
X186181790Y-88980087D01*
X186094017Y-88690739D01*
X185951481Y-88424073D01*
X185759661Y-88190339D01*
X185525927Y-87998519D01*
X185259261Y-87855983D01*
X184969913Y-87768210D01*
X184744408Y-87746000D01*
X182793592Y-87746000D01*
X182568087Y-87768210D01*
X182278739Y-87855983D01*
X182012073Y-87998519D01*
X181778339Y-88190339D01*
X181586519Y-88424073D01*
X181443983Y-88690739D01*
X181356210Y-88980087D01*
X181326573Y-89281000D01*
X146918142Y-89281000D01*
X147051101Y-89209932D01*
X147269608Y-89030608D01*
X147448932Y-88812101D01*
X147582182Y-88562808D01*
X147664236Y-88292309D01*
X147691943Y-88011000D01*
X147664236Y-87729691D01*
X147582182Y-87459192D01*
X147448932Y-87209899D01*
X147269608Y-86991392D01*
X147051101Y-86812068D01*
X146918142Y-86741000D01*
X147051101Y-86669932D01*
X147269608Y-86490608D01*
X147448932Y-86272101D01*
X147582182Y-86022808D01*
X147664236Y-85752309D01*
X147691943Y-85471000D01*
X147664236Y-85189691D01*
X147582182Y-84919192D01*
X147448932Y-84669899D01*
X147269608Y-84451392D01*
X147119254Y-84328000D01*
X187805060Y-84328000D01*
X187805061Y-119733511D01*
X187806089Y-119743944D01*
X187824288Y-120425543D01*
X187717967Y-121049481D01*
X187492479Y-121640888D01*
X187156416Y-122177231D01*
X186722577Y-122638086D01*
X186207489Y-123005894D01*
X185630763Y-123266653D01*
X185011999Y-123410980D01*
X155352842Y-123410980D01*
X155358534Y-123404044D01*
X157748474Y-121014105D01*
X157787528Y-121142850D01*
X157869595Y-121296386D01*
X157980038Y-121430962D01*
X158114614Y-121541405D01*
X158268150Y-121623472D01*
X158434746Y-121674008D01*
X158608000Y-121691072D01*
X159908000Y-121691072D01*
X160081254Y-121674008D01*
X160247850Y-121623472D01*
X160401386Y-121541405D01*
X160535962Y-121430962D01*
X160646405Y-121296386D01*
X160728472Y-121142850D01*
X160779008Y-120976254D01*
X160796072Y-120803000D01*
X160796072Y-118277593D01*
X161533000Y-118277593D01*
X161533000Y-120228408D01*
X161555211Y-120453913D01*
X161642984Y-120743261D01*
X161785520Y-121009927D01*
X161977340Y-121243661D01*
X162211074Y-121435481D01*
X162477740Y-121578017D01*
X162767088Y-121665790D01*
X163068000Y-121695427D01*
X163368913Y-121665790D01*
X163658261Y-121578017D01*
X163924927Y-121435481D01*
X164158661Y-121243661D01*
X164350481Y-121009927D01*
X164493017Y-120743261D01*
X164580790Y-120453913D01*
X164603000Y-120228408D01*
X164603000Y-119380000D01*
X165343000Y-119380000D01*
X165343000Y-120280000D01*
X165397271Y-120577023D01*
X165508446Y-120857751D01*
X165672252Y-121111396D01*
X165882394Y-121328210D01*
X166130796Y-121499862D01*
X166407913Y-121619755D01*
X166513260Y-121644036D01*
X166751000Y-121523378D01*
X166751000Y-119380000D01*
X167005000Y-119380000D01*
X167005000Y-121523378D01*
X167242740Y-121644036D01*
X167348087Y-121619755D01*
X167625204Y-121499862D01*
X167873606Y-121328210D01*
X168083748Y-121111396D01*
X168247554Y-120857751D01*
X168358729Y-120577023D01*
X168413000Y-120280000D01*
X168413000Y-119380000D01*
X167005000Y-119380000D01*
X166751000Y-119380000D01*
X165343000Y-119380000D01*
X164603000Y-119380000D01*
X164603000Y-118277592D01*
X164597919Y-118226000D01*
X165343000Y-118226000D01*
X165343000Y-119126000D01*
X166751000Y-119126000D01*
X166751000Y-116982622D01*
X167005000Y-116982622D01*
X167005000Y-119126000D01*
X168413000Y-119126000D01*
X168413000Y-118277593D01*
X169153000Y-118277593D01*
X169153000Y-120228408D01*
X169175211Y-120453913D01*
X169262984Y-120743261D01*
X169405520Y-121009927D01*
X169597340Y-121243661D01*
X169831074Y-121435481D01*
X170097740Y-121578017D01*
X170387088Y-121665790D01*
X170688000Y-121695427D01*
X170988913Y-121665790D01*
X171278261Y-121578017D01*
X171544927Y-121435481D01*
X171778661Y-121243661D01*
X171970481Y-121009927D01*
X172113017Y-120743261D01*
X172200790Y-120453913D01*
X172223000Y-120228408D01*
X172223000Y-118277593D01*
X172963000Y-118277593D01*
X172963000Y-120228408D01*
X172985211Y-120453913D01*
X173072984Y-120743261D01*
X173215520Y-121009927D01*
X173407340Y-121243661D01*
X173641074Y-121435481D01*
X173907740Y-121578017D01*
X174197088Y-121665790D01*
X174498000Y-121695427D01*
X174798913Y-121665790D01*
X175088261Y-121578017D01*
X175354927Y-121435481D01*
X175588661Y-121243661D01*
X175780481Y-121009927D01*
X175923017Y-120743261D01*
X176010790Y-120453913D01*
X176033000Y-120228408D01*
X176033000Y-119887383D01*
X181462680Y-119887383D01*
X181462680Y-120503297D01*
X181582839Y-121107376D01*
X181818539Y-121676407D01*
X182160722Y-122188521D01*
X182596239Y-122624038D01*
X183108353Y-122966221D01*
X183677384Y-123201921D01*
X184281463Y-123322080D01*
X184897377Y-123322080D01*
X185501456Y-123201921D01*
X186070487Y-122966221D01*
X186582601Y-122624038D01*
X187018118Y-122188521D01*
X187360301Y-121676407D01*
X187596001Y-121107376D01*
X187716160Y-120503297D01*
X187716160Y-119887383D01*
X187596001Y-119283304D01*
X187360301Y-118714273D01*
X187018118Y-118202159D01*
X186582601Y-117766642D01*
X186070487Y-117424459D01*
X185501456Y-117188759D01*
X184897377Y-117068600D01*
X184281463Y-117068600D01*
X183677384Y-117188759D01*
X183108353Y-117424459D01*
X182596239Y-117766642D01*
X182160722Y-118202159D01*
X181818539Y-118714273D01*
X181582839Y-119283304D01*
X181462680Y-119887383D01*
X176033000Y-119887383D01*
X176033000Y-118277592D01*
X176010790Y-118052087D01*
X175923017Y-117762739D01*
X175780481Y-117496073D01*
X175588661Y-117262339D01*
X175354926Y-117070519D01*
X175088260Y-116927983D01*
X174798912Y-116840210D01*
X174498000Y-116810573D01*
X174197087Y-116840210D01*
X173907739Y-116927983D01*
X173641073Y-117070519D01*
X173407339Y-117262339D01*
X173215519Y-117496074D01*
X173072983Y-117762740D01*
X172985210Y-118052088D01*
X172963000Y-118277593D01*
X172223000Y-118277593D01*
X172223000Y-118277592D01*
X172200790Y-118052087D01*
X172113017Y-117762739D01*
X171970481Y-117496073D01*
X171778661Y-117262339D01*
X171544926Y-117070519D01*
X171278260Y-116927983D01*
X170988912Y-116840210D01*
X170688000Y-116810573D01*
X170387087Y-116840210D01*
X170097739Y-116927983D01*
X169831073Y-117070519D01*
X169597339Y-117262339D01*
X169405519Y-117496074D01*
X169262983Y-117762740D01*
X169175210Y-118052088D01*
X169153000Y-118277593D01*
X168413000Y-118277593D01*
X168413000Y-118226000D01*
X168358729Y-117928977D01*
X168247554Y-117648249D01*
X168083748Y-117394604D01*
X167873606Y-117177790D01*
X167625204Y-117006138D01*
X167348087Y-116886245D01*
X167242740Y-116861964D01*
X167005000Y-116982622D01*
X166751000Y-116982622D01*
X166513260Y-116861964D01*
X166407913Y-116886245D01*
X166130796Y-117006138D01*
X165882394Y-117177790D01*
X165672252Y-117394604D01*
X165508446Y-117648249D01*
X165397271Y-117928977D01*
X165343000Y-118226000D01*
X164597919Y-118226000D01*
X164580790Y-118052087D01*
X164493017Y-117762739D01*
X164350481Y-117496073D01*
X164158661Y-117262339D01*
X163924926Y-117070519D01*
X163658260Y-116927983D01*
X163368912Y-116840210D01*
X163068000Y-116810573D01*
X162767087Y-116840210D01*
X162477739Y-116927983D01*
X162211073Y-117070519D01*
X161977339Y-117262339D01*
X161785519Y-117496074D01*
X161642983Y-117762740D01*
X161555210Y-118052088D01*
X161533000Y-118277593D01*
X160796072Y-118277593D01*
X160796072Y-117703000D01*
X160779008Y-117529746D01*
X160728472Y-117363150D01*
X160646405Y-117209614D01*
X160535962Y-117075038D01*
X160401386Y-116964595D01*
X160247850Y-116882528D01*
X160081254Y-116831992D01*
X159908000Y-116814928D01*
X158608000Y-116814928D01*
X158434746Y-116831992D01*
X158268150Y-116882528D01*
X158114614Y-116964595D01*
X157980038Y-117075038D01*
X157869595Y-117209614D01*
X157787528Y-117363150D01*
X157736992Y-117529746D01*
X157719928Y-117703000D01*
X157719928Y-118549710D01*
X157662953Y-118596468D01*
X157662951Y-118596470D01*
X157629183Y-118624183D01*
X157601470Y-118657951D01*
X154335422Y-121924000D01*
X121955189Y-121924000D01*
X111168189Y-111137000D01*
X114670928Y-111137000D01*
X114670928Y-112637000D01*
X114683188Y-112761482D01*
X114719498Y-112881180D01*
X114778463Y-112991494D01*
X114857815Y-113088185D01*
X114954506Y-113167537D01*
X115064820Y-113226502D01*
X115184518Y-113262812D01*
X115309000Y-113275072D01*
X117609000Y-113275072D01*
X117733482Y-113262812D01*
X117853180Y-113226502D01*
X117963494Y-113167537D01*
X118060185Y-113088185D01*
X118139537Y-112991494D01*
X118198502Y-112881180D01*
X118234812Y-112761482D01*
X118247072Y-112637000D01*
X118247072Y-111137000D01*
X118234812Y-111012518D01*
X118198502Y-110892820D01*
X118139537Y-110782506D01*
X118060185Y-110685815D01*
X117963494Y-110606463D01*
X117853180Y-110547498D01*
X117733482Y-110511188D01*
X117624126Y-110500418D01*
X117734061Y-110428028D01*
X117775937Y-110386712D01*
X167541893Y-110386712D01*
X167649726Y-110661338D01*
X167956384Y-110812216D01*
X168286585Y-110900369D01*
X168627639Y-110922409D01*
X168966439Y-110877489D01*
X169289966Y-110767336D01*
X169488274Y-110661338D01*
X169596107Y-110386712D01*
X172541893Y-110386712D01*
X172649726Y-110661338D01*
X172956384Y-110812216D01*
X173286585Y-110900369D01*
X173627639Y-110922409D01*
X173966439Y-110877489D01*
X174289966Y-110767336D01*
X174488274Y-110661338D01*
X174596107Y-110386712D01*
X174583395Y-110374000D01*
X181330928Y-110374000D01*
X181343188Y-110498482D01*
X181379498Y-110618180D01*
X181438463Y-110728494D01*
X181517815Y-110825185D01*
X181614506Y-110904537D01*
X181724820Y-110963502D01*
X181844518Y-110999812D01*
X181969000Y-111012072D01*
X183483250Y-111009000D01*
X183642000Y-110850250D01*
X183642000Y-109601000D01*
X183896000Y-109601000D01*
X183896000Y-110850250D01*
X184054750Y-111009000D01*
X185569000Y-111012072D01*
X185693482Y-110999812D01*
X185813180Y-110963502D01*
X185923494Y-110904537D01*
X186020185Y-110825185D01*
X186099537Y-110728494D01*
X186158502Y-110618180D01*
X186194812Y-110498482D01*
X186207072Y-110374000D01*
X186204000Y-109759750D01*
X186045250Y-109601000D01*
X183896000Y-109601000D01*
X183642000Y-109601000D01*
X181492750Y-109601000D01*
X181334000Y-109759750D01*
X181330928Y-110374000D01*
X174583395Y-110374000D01*
X173569000Y-109359605D01*
X172541893Y-110386712D01*
X169596107Y-110386712D01*
X168569000Y-109359605D01*
X167541893Y-110386712D01*
X117775937Y-110386712D01*
X117928145Y-110236540D01*
X118081142Y-110010868D01*
X118187173Y-109759684D01*
X118201318Y-109688185D01*
X118078656Y-109474000D01*
X116586000Y-109474000D01*
X116586000Y-109494000D01*
X116332000Y-109494000D01*
X116332000Y-109474000D01*
X114839344Y-109474000D01*
X114716682Y-109688185D01*
X114730827Y-109759684D01*
X114836858Y-110010868D01*
X114989855Y-110236540D01*
X115183939Y-110428028D01*
X115293874Y-110500418D01*
X115184518Y-110511188D01*
X115064820Y-110547498D01*
X114954506Y-110606463D01*
X114857815Y-110685815D01*
X114778463Y-110782506D01*
X114719498Y-110892820D01*
X114683188Y-111012518D01*
X114670928Y-111137000D01*
X111168189Y-111137000D01*
X110486000Y-110454812D01*
X110486000Y-109238639D01*
X166826591Y-109238639D01*
X166871511Y-109577439D01*
X166981664Y-109900966D01*
X167087662Y-110099274D01*
X167362288Y-110207107D01*
X168389395Y-109180000D01*
X168748605Y-109180000D01*
X169775712Y-110207107D01*
X170050338Y-110099274D01*
X170201216Y-109792616D01*
X170289369Y-109462415D01*
X170303830Y-109238639D01*
X171826591Y-109238639D01*
X171871511Y-109577439D01*
X171981664Y-109900966D01*
X172087662Y-110099274D01*
X172362288Y-110207107D01*
X173389395Y-109180000D01*
X173748605Y-109180000D01*
X174775712Y-110207107D01*
X175050338Y-110099274D01*
X175201216Y-109792616D01*
X175289369Y-109462415D01*
X175311409Y-109121361D01*
X175266489Y-108782561D01*
X175195480Y-108574000D01*
X181330928Y-108574000D01*
X181334000Y-109188250D01*
X181492750Y-109347000D01*
X183642000Y-109347000D01*
X183642000Y-108097750D01*
X183896000Y-108097750D01*
X183896000Y-109347000D01*
X186045250Y-109347000D01*
X186204000Y-109188250D01*
X186207072Y-108574000D01*
X186194812Y-108449518D01*
X186158502Y-108329820D01*
X186099537Y-108219506D01*
X186020185Y-108122815D01*
X185923494Y-108043463D01*
X185813180Y-107984498D01*
X185693482Y-107948188D01*
X185569000Y-107935928D01*
X184054750Y-107939000D01*
X183896000Y-108097750D01*
X183642000Y-108097750D01*
X183483250Y-107939000D01*
X181969000Y-107935928D01*
X181844518Y-107948188D01*
X181724820Y-107984498D01*
X181614506Y-108043463D01*
X181517815Y-108122815D01*
X181438463Y-108219506D01*
X181379498Y-108329820D01*
X181343188Y-108449518D01*
X181330928Y-108574000D01*
X175195480Y-108574000D01*
X175156336Y-108459034D01*
X175050338Y-108260726D01*
X174775712Y-108152893D01*
X173748605Y-109180000D01*
X173389395Y-109180000D01*
X172362288Y-108152893D01*
X172087662Y-108260726D01*
X171936784Y-108567384D01*
X171848631Y-108897585D01*
X171826591Y-109238639D01*
X170303830Y-109238639D01*
X170311409Y-109121361D01*
X170266489Y-108782561D01*
X170156336Y-108459034D01*
X170050338Y-108260726D01*
X169775712Y-108152893D01*
X168748605Y-109180000D01*
X168389395Y-109180000D01*
X167362288Y-108152893D01*
X167087662Y-108260726D01*
X166936784Y-108567384D01*
X166848631Y-108897585D01*
X166826591Y-109238639D01*
X110486000Y-109238639D01*
X110486000Y-106807000D01*
X114667299Y-106807000D01*
X114694040Y-107078507D01*
X114773236Y-107339581D01*
X114901843Y-107580188D01*
X115074919Y-107791081D01*
X115285812Y-107964157D01*
X115501578Y-108079486D01*
X115411651Y-108116028D01*
X115183939Y-108265972D01*
X114989855Y-108457460D01*
X114836858Y-108683132D01*
X114730827Y-108934316D01*
X114716682Y-109005815D01*
X114839344Y-109220000D01*
X116332000Y-109220000D01*
X116332000Y-109200000D01*
X116586000Y-109200000D01*
X116586000Y-109220000D01*
X118078656Y-109220000D01*
X118201318Y-109005815D01*
X118187173Y-108934316D01*
X118081142Y-108683132D01*
X117928145Y-108457460D01*
X117734061Y-108265972D01*
X117506349Y-108116028D01*
X117416422Y-108079486D01*
X117632188Y-107964157D01*
X117843081Y-107791081D01*
X118016157Y-107580188D01*
X118144764Y-107339581D01*
X118223960Y-107078507D01*
X118250701Y-106807000D01*
X118223960Y-106535493D01*
X118144764Y-106274419D01*
X118016157Y-106033812D01*
X117843081Y-105822919D01*
X117632188Y-105649843D01*
X117391581Y-105521236D01*
X117130507Y-105442040D01*
X116927037Y-105422000D01*
X115990963Y-105422000D01*
X115787493Y-105442040D01*
X115526419Y-105521236D01*
X115285812Y-105649843D01*
X115074919Y-105822919D01*
X114901843Y-106033812D01*
X114773236Y-106274419D01*
X114694040Y-106535493D01*
X114667299Y-106807000D01*
X110486000Y-106807000D01*
X110486000Y-103236578D01*
X113000579Y-100722000D01*
X114259408Y-100722000D01*
X114484913Y-100699790D01*
X114774261Y-100612017D01*
X115040927Y-100469481D01*
X115274661Y-100277661D01*
X115466481Y-100043927D01*
X115609017Y-99777261D01*
X115696790Y-99487913D01*
X115726427Y-99187000D01*
X115696790Y-98886087D01*
X115609017Y-98596739D01*
X115466481Y-98330073D01*
X115274661Y-98096339D01*
X115040927Y-97904519D01*
X114774261Y-97761983D01*
X114484913Y-97674210D01*
X114259408Y-97652000D01*
X112308592Y-97652000D01*
X112083087Y-97674210D01*
X111793739Y-97761983D01*
X111527073Y-97904519D01*
X111293339Y-98096339D01*
X111101519Y-98330073D01*
X110958983Y-98596739D01*
X110871210Y-98886087D01*
X110841573Y-99187000D01*
X110871210Y-99487913D01*
X110958983Y-99777261D01*
X111101519Y-100043927D01*
X111134864Y-100084558D01*
X109374940Y-101844482D01*
X109374940Y-95377000D01*
X110841573Y-95377000D01*
X110871210Y-95677913D01*
X110958983Y-95967261D01*
X111101519Y-96233927D01*
X111293339Y-96467661D01*
X111527073Y-96659481D01*
X111793739Y-96802017D01*
X112083087Y-96889790D01*
X112308592Y-96912000D01*
X114259408Y-96912000D01*
X114484913Y-96889790D01*
X114774261Y-96802017D01*
X115040927Y-96659481D01*
X115274661Y-96467661D01*
X115466481Y-96233927D01*
X115609017Y-95967261D01*
X115696790Y-95677913D01*
X115726427Y-95377000D01*
X115696790Y-95076087D01*
X115609017Y-94786739D01*
X115466481Y-94520073D01*
X115274661Y-94286339D01*
X115040927Y-94094519D01*
X114774261Y-93951983D01*
X114484913Y-93864210D01*
X114259408Y-93842000D01*
X112308592Y-93842000D01*
X112083087Y-93864210D01*
X111793739Y-93951983D01*
X111527073Y-94094519D01*
X111293339Y-94286339D01*
X111101519Y-94520073D01*
X110958983Y-94786739D01*
X110871210Y-95076087D01*
X110841573Y-95377000D01*
X109374940Y-95377000D01*
X109374940Y-91567000D01*
X110841573Y-91567000D01*
X110871210Y-91867913D01*
X110958983Y-92157261D01*
X111101519Y-92423927D01*
X111293339Y-92657661D01*
X111527073Y-92849481D01*
X111793739Y-92992017D01*
X112083087Y-93079790D01*
X112308592Y-93102000D01*
X114259408Y-93102000D01*
X114484913Y-93079790D01*
X114774261Y-92992017D01*
X115040927Y-92849481D01*
X115274661Y-92657661D01*
X115466481Y-92423927D01*
X115609017Y-92157261D01*
X115696790Y-91867913D01*
X115726427Y-91567000D01*
X115696790Y-91266087D01*
X115609017Y-90976739D01*
X115466481Y-90710073D01*
X115274661Y-90476339D01*
X115040927Y-90284519D01*
X114774261Y-90141983D01*
X114484913Y-90054210D01*
X114259408Y-90032000D01*
X112308592Y-90032000D01*
X112083087Y-90054210D01*
X111793739Y-90141983D01*
X111527073Y-90284519D01*
X111293339Y-90476339D01*
X111101519Y-90710073D01*
X110958983Y-90976739D01*
X110871210Y-91266087D01*
X110841573Y-91567000D01*
X109374940Y-91567000D01*
X109374940Y-88657000D01*
X110845928Y-88657000D01*
X110858188Y-88781482D01*
X110894498Y-88901180D01*
X110953463Y-89011494D01*
X111032815Y-89108185D01*
X111129506Y-89187537D01*
X111239820Y-89246502D01*
X111359518Y-89282812D01*
X111484000Y-89295072D01*
X112998250Y-89292000D01*
X113157000Y-89133250D01*
X113157000Y-87884000D01*
X113411000Y-87884000D01*
X113411000Y-89133250D01*
X113569750Y-89292000D01*
X115084000Y-89295072D01*
X115208482Y-89282812D01*
X115328180Y-89246502D01*
X115438494Y-89187537D01*
X115535185Y-89108185D01*
X115614537Y-89011494D01*
X115673502Y-88901180D01*
X115709812Y-88781482D01*
X115722072Y-88657000D01*
X115719000Y-88042750D01*
X115560250Y-87884000D01*
X113411000Y-87884000D01*
X113157000Y-87884000D01*
X111007750Y-87884000D01*
X110849000Y-88042750D01*
X110845928Y-88657000D01*
X109374940Y-88657000D01*
X109374940Y-86857000D01*
X110845928Y-86857000D01*
X110849000Y-87471250D01*
X111007750Y-87630000D01*
X113157000Y-87630000D01*
X113157000Y-86380750D01*
X113411000Y-86380750D01*
X113411000Y-87630000D01*
X115560250Y-87630000D01*
X115719000Y-87471250D01*
X115722072Y-86857000D01*
X115709812Y-86732518D01*
X115673502Y-86612820D01*
X115614537Y-86502506D01*
X115535185Y-86405815D01*
X115438494Y-86326463D01*
X115328180Y-86267498D01*
X115208482Y-86231188D01*
X115084000Y-86218928D01*
X113569750Y-86222000D01*
X113411000Y-86380750D01*
X113157000Y-86380750D01*
X112998250Y-86222000D01*
X111484000Y-86218928D01*
X111359518Y-86231188D01*
X111239820Y-86267498D01*
X111129506Y-86326463D01*
X111032815Y-86405815D01*
X110953463Y-86502506D01*
X110894498Y-86612820D01*
X110858188Y-86732518D01*
X110845928Y-86857000D01*
X109374940Y-86857000D01*
X109374940Y-84328000D01*
X121569805Y-84328000D01*
X121564188Y-84346518D01*
X121564188Y-84346518D01*
G37*
X121564188Y-84346518D02*
X121551928Y-84471000D01*
X121551928Y-86471000D01*
X121564188Y-86595482D01*
X121600498Y-86715180D01*
X121659463Y-86825494D01*
X121738815Y-86922185D01*
X121835506Y-87001537D01*
X121923476Y-87048559D01*
X121791068Y-87209899D01*
X121657818Y-87459192D01*
X121575764Y-87729691D01*
X121548057Y-88011000D01*
X121575764Y-88292309D01*
X121657818Y-88562808D01*
X121791068Y-88812101D01*
X121970392Y-89030608D01*
X122188899Y-89209932D01*
X122321858Y-89281000D01*
X122188899Y-89352068D01*
X121970392Y-89531392D01*
X121791068Y-89749899D01*
X121657818Y-89999192D01*
X121575764Y-90269691D01*
X121548057Y-90551000D01*
X121575764Y-90832309D01*
X121657818Y-91102808D01*
X121791068Y-91352101D01*
X121970392Y-91570608D01*
X122188899Y-91749932D01*
X122321858Y-91821000D01*
X122188899Y-91892068D01*
X121970392Y-92071392D01*
X121791068Y-92289899D01*
X121657818Y-92539192D01*
X121575764Y-92809691D01*
X121548057Y-93091000D01*
X121575764Y-93372309D01*
X121657818Y-93642808D01*
X121791068Y-93892101D01*
X121970392Y-94110608D01*
X122188899Y-94289932D01*
X122321858Y-94361000D01*
X122188899Y-94432068D01*
X121970392Y-94611392D01*
X121791068Y-94829899D01*
X121657818Y-95079192D01*
X121575764Y-95349691D01*
X121548057Y-95631000D01*
X121575764Y-95912309D01*
X121657818Y-96182808D01*
X121791068Y-96432101D01*
X121970392Y-96650608D01*
X122188899Y-96829932D01*
X122321858Y-96901000D01*
X122188899Y-96972068D01*
X121970392Y-97151392D01*
X121791068Y-97369899D01*
X121657818Y-97619192D01*
X121575764Y-97889691D01*
X121548057Y-98171000D01*
X121575764Y-98452309D01*
X121657818Y-98722808D01*
X121791068Y-98972101D01*
X121970392Y-99190608D01*
X122188899Y-99369932D01*
X122321858Y-99441000D01*
X122188899Y-99512068D01*
X121970392Y-99691392D01*
X121791068Y-99909899D01*
X121657818Y-100159192D01*
X121575764Y-100429691D01*
X121548057Y-100711000D01*
X121575764Y-100992309D01*
X121657818Y-101262808D01*
X121791068Y-101512101D01*
X121970392Y-101730608D01*
X122188899Y-101909932D01*
X122321858Y-101981000D01*
X122188899Y-102052068D01*
X121970392Y-102231392D01*
X121791068Y-102449899D01*
X121657818Y-102699192D01*
X121575764Y-102969691D01*
X121548057Y-103251000D01*
X121575764Y-103532309D01*
X121657818Y-103802808D01*
X121791068Y-104052101D01*
X121970392Y-104270608D01*
X122188899Y-104449932D01*
X122438192Y-104583182D01*
X122708691Y-104665236D01*
X122919508Y-104686000D01*
X123460492Y-104686000D01*
X123671309Y-104665236D01*
X123941808Y-104583182D01*
X124191101Y-104449932D01*
X124409608Y-104270608D01*
X124496228Y-104165061D01*
X136887000Y-104165061D01*
X136887000Y-104368939D01*
X136926774Y-104568898D01*
X137004795Y-104757256D01*
X137118063Y-104926774D01*
X137162001Y-104970712D01*
X137162000Y-107246289D01*
X137118063Y-107290226D01*
X137004795Y-107459744D01*
X136926774Y-107648102D01*
X136887000Y-107848061D01*
X136887000Y-108051939D01*
X136926774Y-108251898D01*
X137004795Y-108440256D01*
X137118063Y-108609774D01*
X137262226Y-108753937D01*
X137431744Y-108867205D01*
X137620102Y-108945226D01*
X137820061Y-108985000D01*
X138023939Y-108985000D01*
X138223898Y-108945226D01*
X138412256Y-108867205D01*
X138581774Y-108753937D01*
X138725937Y-108609774D01*
X138839205Y-108440256D01*
X138917226Y-108251898D01*
X138957000Y-108051939D01*
X138957000Y-107973288D01*
X167541893Y-107973288D01*
X168569000Y-109000395D01*
X169596107Y-107973288D01*
X172541893Y-107973288D01*
X173569000Y-109000395D01*
X174596107Y-107973288D01*
X174488274Y-107698662D01*
X174181616Y-107547784D01*
X173851415Y-107459631D01*
X173510361Y-107437591D01*
X173171561Y-107482511D01*
X172848034Y-107592664D01*
X172649726Y-107698662D01*
X172541893Y-107973288D01*
X169596107Y-107973288D01*
X169488274Y-107698662D01*
X169181616Y-107547784D01*
X168851415Y-107459631D01*
X168510361Y-107437591D01*
X168171561Y-107482511D01*
X167848034Y-107592664D01*
X167649726Y-107698662D01*
X167541893Y-107973288D01*
X138957000Y-107973288D01*
X138957000Y-107848061D01*
X138917226Y-107648102D01*
X138839205Y-107459744D01*
X138725937Y-107290226D01*
X138682000Y-107246289D01*
X138682000Y-104970711D01*
X138725937Y-104926774D01*
X138839205Y-104757256D01*
X138917226Y-104568898D01*
X138957000Y-104368939D01*
X138957000Y-104165061D01*
X138917226Y-103965102D01*
X138839205Y-103776744D01*
X138725937Y-103607226D01*
X138581774Y-103463063D01*
X138412256Y-103349795D01*
X138223898Y-103271774D01*
X138119460Y-103251000D01*
X144408057Y-103251000D01*
X144435764Y-103532309D01*
X144517818Y-103802808D01*
X144651068Y-104052101D01*
X144830392Y-104270608D01*
X145048899Y-104449932D01*
X145298192Y-104583182D01*
X145568691Y-104665236D01*
X145779508Y-104686000D01*
X146320492Y-104686000D01*
X146531309Y-104665236D01*
X146801808Y-104583182D01*
X147051101Y-104449932D01*
X147269608Y-104270608D01*
X147448932Y-104052101D01*
X147582182Y-103802808D01*
X147664236Y-103532309D01*
X147676966Y-103403061D01*
X154032000Y-103403061D01*
X154032000Y-103606939D01*
X154071774Y-103806898D01*
X154149795Y-103995256D01*
X154263063Y-104164774D01*
X154407226Y-104308937D01*
X154576744Y-104422205D01*
X154765102Y-104500226D01*
X154965061Y-104540000D01*
X155168939Y-104540000D01*
X155368898Y-104500226D01*
X155557256Y-104422205D01*
X155726774Y-104308937D01*
X155870937Y-104164774D01*
X155974943Y-104009117D01*
X166834000Y-104009117D01*
X166834000Y-104350883D01*
X166900675Y-104686081D01*
X167031463Y-105001831D01*
X167221337Y-105285998D01*
X167463002Y-105527663D01*
X167747169Y-105717537D01*
X168062919Y-105848325D01*
X168398117Y-105915000D01*
X168739883Y-105915000D01*
X169075081Y-105848325D01*
X169390831Y-105717537D01*
X169674998Y-105527663D01*
X169916663Y-105285998D01*
X170106537Y-105001831D01*
X170237325Y-104686081D01*
X170304000Y-104350883D01*
X170304000Y-104009117D01*
X171834000Y-104009117D01*
X171834000Y-104350883D01*
X171900675Y-104686081D01*
X172031463Y-105001831D01*
X172221337Y-105285998D01*
X172463002Y-105527663D01*
X172747169Y-105717537D01*
X173062919Y-105848325D01*
X173398117Y-105915000D01*
X173739883Y-105915000D01*
X174075081Y-105848325D01*
X174390831Y-105717537D01*
X174470954Y-105664000D01*
X181326573Y-105664000D01*
X181356210Y-105964913D01*
X181443983Y-106254261D01*
X181586519Y-106520927D01*
X181778339Y-106754661D01*
X182012073Y-106946481D01*
X182278739Y-107089017D01*
X182568087Y-107176790D01*
X182793592Y-107199000D01*
X184744408Y-107199000D01*
X184969913Y-107176790D01*
X185259261Y-107089017D01*
X185525927Y-106946481D01*
X185759661Y-106754661D01*
X185951481Y-106520927D01*
X186094017Y-106254261D01*
X186181790Y-105964913D01*
X186211427Y-105664000D01*
X186181790Y-105363087D01*
X186094017Y-105073739D01*
X185951481Y-104807073D01*
X185759661Y-104573339D01*
X185525927Y-104381519D01*
X185259261Y-104238983D01*
X184969913Y-104151210D01*
X184744408Y-104129000D01*
X182793592Y-104129000D01*
X182568087Y-104151210D01*
X182278739Y-104238983D01*
X182012073Y-104381519D01*
X181778339Y-104573339D01*
X181586519Y-104807073D01*
X181443983Y-105073739D01*
X181356210Y-105363087D01*
X181326573Y-105664000D01*
X174470954Y-105664000D01*
X174674998Y-105527663D01*
X174916663Y-105285998D01*
X175106537Y-105001831D01*
X175237325Y-104686081D01*
X175304000Y-104350883D01*
X175304000Y-104009117D01*
X175237325Y-103673919D01*
X175106537Y-103358169D01*
X174916663Y-103074002D01*
X174674998Y-102832337D01*
X174390831Y-102642463D01*
X174075081Y-102511675D01*
X173739883Y-102445000D01*
X173398117Y-102445000D01*
X173062919Y-102511675D01*
X172747169Y-102642463D01*
X172463002Y-102832337D01*
X172221337Y-103074002D01*
X172031463Y-103358169D01*
X171900675Y-103673919D01*
X171834000Y-104009117D01*
X170304000Y-104009117D01*
X170237325Y-103673919D01*
X170106537Y-103358169D01*
X169916663Y-103074002D01*
X169674998Y-102832337D01*
X169390831Y-102642463D01*
X169075081Y-102511675D01*
X168739883Y-102445000D01*
X168398117Y-102445000D01*
X168062919Y-102511675D01*
X167747169Y-102642463D01*
X167463002Y-102832337D01*
X167221337Y-103074002D01*
X167031463Y-103358169D01*
X166900675Y-103673919D01*
X166834000Y-104009117D01*
X155974943Y-104009117D01*
X155984205Y-103995256D01*
X156062226Y-103806898D01*
X156102000Y-103606939D01*
X156102000Y-103544801D01*
X157356003Y-102290799D01*
X157385001Y-102267001D01*
X157479974Y-102151276D01*
X157550546Y-102019247D01*
X157594003Y-101875986D01*
X157605000Y-101764333D01*
X157605000Y-101764325D01*
X157608676Y-101727000D01*
X157605000Y-101689675D01*
X157605000Y-97655413D01*
X159933192Y-97655413D01*
X160028956Y-97919814D01*
X160318571Y-98060704D01*
X160630108Y-98142384D01*
X160951595Y-98161718D01*
X161270675Y-98117961D01*
X161575088Y-98012795D01*
X161749044Y-97919814D01*
X161792077Y-97801000D01*
X181330928Y-97801000D01*
X181343188Y-97925482D01*
X181379498Y-98045180D01*
X181438463Y-98155494D01*
X181517815Y-98252185D01*
X181614506Y-98331537D01*
X181724820Y-98390502D01*
X181844518Y-98426812D01*
X181969000Y-98439072D01*
X183483250Y-98436000D01*
X183642000Y-98277250D01*
X183642000Y-97028000D01*
X183896000Y-97028000D01*
X183896000Y-98277250D01*
X184054750Y-98436000D01*
X185569000Y-98439072D01*
X185693482Y-98426812D01*
X185813180Y-98390502D01*
X185923494Y-98331537D01*
X186020185Y-98252185D01*
X186099537Y-98155494D01*
X186158502Y-98045180D01*
X186194812Y-97925482D01*
X186207072Y-97801000D01*
X186204000Y-97186750D01*
X186045250Y-97028000D01*
X183896000Y-97028000D01*
X183642000Y-97028000D01*
X181492750Y-97028000D01*
X181334000Y-97186750D01*
X181330928Y-97801000D01*
X161792077Y-97801000D01*
X161844808Y-97655413D01*
X160889000Y-96699605D01*
X159933192Y-97655413D01*
X157605000Y-97655413D01*
X157605000Y-97223711D01*
X157648937Y-97179774D01*
X157762205Y-97010256D01*
X157840226Y-96821898D01*
X157880000Y-96621939D01*
X157880000Y-96582595D01*
X159247282Y-96582595D01*
X159291039Y-96901675D01*
X159396205Y-97206088D01*
X159489186Y-97380044D01*
X159753587Y-97475808D01*
X160709395Y-96520000D01*
X161068605Y-96520000D01*
X162024413Y-97475808D01*
X162288814Y-97380044D01*
X162429704Y-97090429D01*
X162511384Y-96778892D01*
X162530718Y-96457405D01*
X162486961Y-96138325D01*
X162439520Y-96001000D01*
X181330928Y-96001000D01*
X181334000Y-96615250D01*
X181492750Y-96774000D01*
X183642000Y-96774000D01*
X183642000Y-95524750D01*
X183896000Y-95524750D01*
X183896000Y-96774000D01*
X186045250Y-96774000D01*
X186204000Y-96615250D01*
X186207072Y-96001000D01*
X186194812Y-95876518D01*
X186158502Y-95756820D01*
X186099537Y-95646506D01*
X186020185Y-95549815D01*
X185923494Y-95470463D01*
X185813180Y-95411498D01*
X185693482Y-95375188D01*
X185569000Y-95362928D01*
X184054750Y-95366000D01*
X183896000Y-95524750D01*
X183642000Y-95524750D01*
X183483250Y-95366000D01*
X181969000Y-95362928D01*
X181844518Y-95375188D01*
X181724820Y-95411498D01*
X181614506Y-95470463D01*
X181517815Y-95549815D01*
X181438463Y-95646506D01*
X181379498Y-95756820D01*
X181343188Y-95876518D01*
X181330928Y-96001000D01*
X162439520Y-96001000D01*
X162381795Y-95833912D01*
X162288814Y-95659956D01*
X162024413Y-95564192D01*
X161068605Y-96520000D01*
X160709395Y-96520000D01*
X159753587Y-95564192D01*
X159489186Y-95659956D01*
X159348296Y-95949571D01*
X159266616Y-96261108D01*
X159247282Y-96582595D01*
X157880000Y-96582595D01*
X157880000Y-96418061D01*
X157840226Y-96218102D01*
X157762205Y-96029744D01*
X157648937Y-95860226D01*
X157504774Y-95716063D01*
X157335256Y-95602795D01*
X157146898Y-95524774D01*
X156946939Y-95485000D01*
X156743061Y-95485000D01*
X156543102Y-95524774D01*
X156354744Y-95602795D01*
X156185226Y-95716063D01*
X156041063Y-95860226D01*
X155927795Y-96029744D01*
X155849774Y-96218102D01*
X155810000Y-96418061D01*
X155810000Y-96621939D01*
X155849774Y-96821898D01*
X155927795Y-97010256D01*
X156041063Y-97179774D01*
X156085000Y-97223711D01*
X156085001Y-101412197D01*
X155027199Y-102470000D01*
X154965061Y-102470000D01*
X154765102Y-102509774D01*
X154576744Y-102587795D01*
X154407226Y-102701063D01*
X154263063Y-102845226D01*
X154149795Y-103014744D01*
X154071774Y-103203102D01*
X154032000Y-103403061D01*
X147676966Y-103403061D01*
X147691943Y-103251000D01*
X147664236Y-102969691D01*
X147582182Y-102699192D01*
X147448932Y-102449899D01*
X147269608Y-102231392D01*
X147051101Y-102052068D01*
X146921655Y-101982878D01*
X146939227Y-101975430D01*
X147172662Y-101816673D01*
X147370639Y-101615425D01*
X147525551Y-101379421D01*
X147631444Y-101117730D01*
X147641904Y-101060039D01*
X147519915Y-100838000D01*
X146177000Y-100838000D01*
X146177000Y-100858000D01*
X145923000Y-100858000D01*
X145923000Y-100838000D01*
X144580085Y-100838000D01*
X144458096Y-101060039D01*
X144468556Y-101117730D01*
X144574449Y-101379421D01*
X144729361Y-101615425D01*
X144927338Y-101816673D01*
X145160773Y-101975430D01*
X145178345Y-101982878D01*
X145048899Y-102052068D01*
X144830392Y-102231392D01*
X144651068Y-102449899D01*
X144517818Y-102699192D01*
X144435764Y-102969691D01*
X144408057Y-103251000D01*
X138119460Y-103251000D01*
X138023939Y-103232000D01*
X137820061Y-103232000D01*
X137620102Y-103271774D01*
X137431744Y-103349795D01*
X137262226Y-103463063D01*
X137118063Y-103607226D01*
X137004795Y-103776744D01*
X136926774Y-103965102D01*
X136887000Y-104165061D01*
X124496228Y-104165061D01*
X124588932Y-104052101D01*
X124722182Y-103802808D01*
X124804236Y-103532309D01*
X124831943Y-103251000D01*
X124804236Y-102969691D01*
X124722182Y-102699192D01*
X124588932Y-102449899D01*
X124409608Y-102231392D01*
X124191101Y-102052068D01*
X124058142Y-101981000D01*
X124191101Y-101909932D01*
X124409608Y-101730608D01*
X124588932Y-101512101D01*
X124722182Y-101262808D01*
X124804236Y-100992309D01*
X124831943Y-100711000D01*
X124804236Y-100429691D01*
X124722182Y-100159192D01*
X124588932Y-99909899D01*
X124409608Y-99691392D01*
X124191101Y-99512068D01*
X124058142Y-99441000D01*
X124191101Y-99369932D01*
X124409608Y-99190608D01*
X124588932Y-98972101D01*
X124722182Y-98722808D01*
X124804236Y-98452309D01*
X124831943Y-98171000D01*
X124830860Y-98160000D01*
X125467815Y-98160000D01*
X125496487Y-98451111D01*
X125581401Y-98731034D01*
X125719294Y-98989014D01*
X125904866Y-99215134D01*
X126130986Y-99400706D01*
X126388966Y-99538599D01*
X126668889Y-99623513D01*
X126887050Y-99645000D01*
X127032950Y-99645000D01*
X127251111Y-99623513D01*
X127531034Y-99538599D01*
X127789014Y-99400706D01*
X128015134Y-99215134D01*
X128200706Y-98989014D01*
X128338599Y-98731034D01*
X128423513Y-98451111D01*
X128452185Y-98160000D01*
X128423513Y-97868889D01*
X128338599Y-97588966D01*
X128200706Y-97330986D01*
X128015134Y-97104866D01*
X127985313Y-97080393D01*
X128054180Y-97059502D01*
X128164494Y-97000537D01*
X128261185Y-96921185D01*
X128340537Y-96824494D01*
X128399502Y-96714180D01*
X128435812Y-96594482D01*
X128448072Y-96470000D01*
X128448072Y-94770000D01*
X128435812Y-94645518D01*
X128399502Y-94525820D01*
X128340537Y-94415506D01*
X128261185Y-94318815D01*
X128164494Y-94239463D01*
X128054180Y-94180498D01*
X127934482Y-94144188D01*
X127810000Y-94131928D01*
X126110000Y-94131928D01*
X125985518Y-94144188D01*
X125865820Y-94180498D01*
X125755506Y-94239463D01*
X125658815Y-94318815D01*
X125579463Y-94415506D01*
X125520498Y-94525820D01*
X125484188Y-94645518D01*
X125471928Y-94770000D01*
X125471928Y-96470000D01*
X125484188Y-96594482D01*
X125520498Y-96714180D01*
X125579463Y-96824494D01*
X125658815Y-96921185D01*
X125755506Y-97000537D01*
X125865820Y-97059502D01*
X125934687Y-97080393D01*
X125904866Y-97104866D01*
X125719294Y-97330986D01*
X125581401Y-97588966D01*
X125496487Y-97868889D01*
X125467815Y-98160000D01*
X124830860Y-98160000D01*
X124804236Y-97889691D01*
X124722182Y-97619192D01*
X124588932Y-97369899D01*
X124409608Y-97151392D01*
X124191101Y-96972068D01*
X124058142Y-96901000D01*
X124191101Y-96829932D01*
X124409608Y-96650608D01*
X124588932Y-96432101D01*
X124722182Y-96182808D01*
X124804236Y-95912309D01*
X124831943Y-95631000D01*
X124804236Y-95349691D01*
X124722182Y-95079192D01*
X124588932Y-94829899D01*
X124409608Y-94611392D01*
X124191101Y-94432068D01*
X124058142Y-94361000D01*
X124191101Y-94289932D01*
X124409608Y-94110608D01*
X124588932Y-93892101D01*
X124722182Y-93642808D01*
X124804236Y-93372309D01*
X124831943Y-93091000D01*
X124804236Y-92809691D01*
X124722182Y-92539192D01*
X124588932Y-92289899D01*
X124409608Y-92071392D01*
X124191101Y-91892068D01*
X124058142Y-91821000D01*
X124191101Y-91749932D01*
X124409608Y-91570608D01*
X124588932Y-91352101D01*
X124722182Y-91102808D01*
X124804236Y-90832309D01*
X124831943Y-90551000D01*
X124804236Y-90269691D01*
X124722182Y-89999192D01*
X124588932Y-89749899D01*
X124409608Y-89531392D01*
X124191101Y-89352068D01*
X124058142Y-89281000D01*
X124191101Y-89209932D01*
X124409608Y-89030608D01*
X124588932Y-88812101D01*
X124722182Y-88562808D01*
X124804236Y-88292309D01*
X124831943Y-88011000D01*
X124804236Y-87729691D01*
X124722182Y-87459192D01*
X124588932Y-87209899D01*
X124456524Y-87048559D01*
X124544494Y-87001537D01*
X124641185Y-86922185D01*
X124720537Y-86825494D01*
X124779502Y-86715180D01*
X124815812Y-86595482D01*
X124828072Y-86471000D01*
X124828072Y-84471000D01*
X124815812Y-84346518D01*
X124810195Y-84328000D01*
X144980746Y-84328000D01*
X144830392Y-84451392D01*
X144651068Y-84669899D01*
X144517818Y-84919192D01*
X144435764Y-85189691D01*
X144408057Y-85471000D01*
X144435764Y-85752309D01*
X144517818Y-86022808D01*
X144651068Y-86272101D01*
X144830392Y-86490608D01*
X145048899Y-86669932D01*
X145181858Y-86741000D01*
X145048899Y-86812068D01*
X144830392Y-86991392D01*
X144651068Y-87209899D01*
X144517818Y-87459192D01*
X144435764Y-87729691D01*
X144408057Y-88011000D01*
X144435764Y-88292309D01*
X144517818Y-88562808D01*
X144651068Y-88812101D01*
X144830392Y-89030608D01*
X145048899Y-89209932D01*
X145181858Y-89281000D01*
X145048899Y-89352068D01*
X144830392Y-89531392D01*
X144651068Y-89749899D01*
X144517818Y-89999192D01*
X144435764Y-90269691D01*
X144408057Y-90551000D01*
X144435764Y-90832309D01*
X144517818Y-91102808D01*
X144651068Y-91352101D01*
X144830392Y-91570608D01*
X145048899Y-91749932D01*
X145181858Y-91821000D01*
X145048899Y-91892068D01*
X144830392Y-92071392D01*
X144651068Y-92289899D01*
X144517818Y-92539192D01*
X144435764Y-92809691D01*
X144408057Y-93091000D01*
X144435764Y-93372309D01*
X144517818Y-93642808D01*
X144651068Y-93892101D01*
X144830392Y-94110608D01*
X145048899Y-94289932D01*
X145181858Y-94361000D01*
X145048899Y-94432068D01*
X144830392Y-94611392D01*
X144651068Y-94829899D01*
X144517818Y-95079192D01*
X144435764Y-95349691D01*
X144408057Y-95631000D01*
X144435764Y-95912309D01*
X144517818Y-96182808D01*
X144651068Y-96432101D01*
X144830392Y-96650608D01*
X145048899Y-96829932D01*
X145181858Y-96901000D01*
X145048899Y-96972068D01*
X144830392Y-97151392D01*
X144651068Y-97369899D01*
X144517818Y-97619192D01*
X144435764Y-97889691D01*
X144408057Y-98171000D01*
X144435764Y-98452309D01*
X144517818Y-98722808D01*
X144651068Y-98972101D01*
X144830392Y-99190608D01*
X145048899Y-99369932D01*
X145178345Y-99439122D01*
X145160773Y-99446570D01*
X144927338Y-99605327D01*
X144729361Y-99806575D01*
X144574449Y-100042579D01*
X144468556Y-100304270D01*
X144458096Y-100361961D01*
X144580085Y-100584000D01*
X145923000Y-100584000D01*
X145923000Y-100564000D01*
X146177000Y-100564000D01*
X146177000Y-100584000D01*
X147519915Y-100584000D01*
X147641904Y-100361961D01*
X147631444Y-100304270D01*
X147525551Y-100042579D01*
X147370639Y-99806575D01*
X147172662Y-99605327D01*
X146939227Y-99446570D01*
X146921655Y-99439122D01*
X147051101Y-99369932D01*
X147269608Y-99190608D01*
X147448932Y-98972101D01*
X147582182Y-98722808D01*
X147664236Y-98452309D01*
X147691943Y-98171000D01*
X147664236Y-97889691D01*
X147582182Y-97619192D01*
X147448932Y-97369899D01*
X147269608Y-97151392D01*
X147051101Y-96972068D01*
X146918142Y-96901000D01*
X147051101Y-96829932D01*
X147269608Y-96650608D01*
X147448932Y-96432101D01*
X147582182Y-96182808D01*
X147664236Y-95912309D01*
X147691943Y-95631000D01*
X147681011Y-95520000D01*
X151650928Y-95520000D01*
X151650928Y-97520000D01*
X151663188Y-97644482D01*
X151699498Y-97764180D01*
X151758463Y-97874494D01*
X151837815Y-97971185D01*
X151934506Y-98050537D01*
X152044820Y-98109502D01*
X152164518Y-98145812D01*
X152289000Y-98158072D01*
X154289000Y-98158072D01*
X154413482Y-98145812D01*
X154533180Y-98109502D01*
X154643494Y-98050537D01*
X154740185Y-97971185D01*
X154819537Y-97874494D01*
X154878502Y-97764180D01*
X154914812Y-97644482D01*
X154927072Y-97520000D01*
X154927072Y-95520000D01*
X154914812Y-95395518D01*
X154911497Y-95384587D01*
X159933192Y-95384587D01*
X160889000Y-96340395D01*
X161844808Y-95384587D01*
X161749044Y-95120186D01*
X161459429Y-94979296D01*
X161147892Y-94897616D01*
X160826405Y-94878282D01*
X160507325Y-94922039D01*
X160202912Y-95027205D01*
X160028956Y-95120186D01*
X159933192Y-95384587D01*
X154911497Y-95384587D01*
X154878502Y-95275820D01*
X154819537Y-95165506D01*
X154740185Y-95068815D01*
X154643494Y-94989463D01*
X154533180Y-94930498D01*
X154413482Y-94894188D01*
X154289000Y-94881928D01*
X152289000Y-94881928D01*
X152164518Y-94894188D01*
X152044820Y-94930498D01*
X151934506Y-94989463D01*
X151837815Y-95068815D01*
X151758463Y-95165506D01*
X151699498Y-95275820D01*
X151663188Y-95395518D01*
X151650928Y-95520000D01*
X147681011Y-95520000D01*
X147664236Y-95349691D01*
X147582182Y-95079192D01*
X147448932Y-94829899D01*
X147269608Y-94611392D01*
X147051101Y-94432068D01*
X146918142Y-94361000D01*
X147051101Y-94289932D01*
X147269608Y-94110608D01*
X147448932Y-93892101D01*
X147582182Y-93642808D01*
X147664236Y-93372309D01*
X147691943Y-93091000D01*
X181326573Y-93091000D01*
X181356210Y-93391913D01*
X181443983Y-93681261D01*
X181586519Y-93947927D01*
X181778339Y-94181661D01*
X182012073Y-94373481D01*
X182278739Y-94516017D01*
X182568087Y-94603790D01*
X182793592Y-94626000D01*
X184744408Y-94626000D01*
X184969913Y-94603790D01*
X185259261Y-94516017D01*
X185525927Y-94373481D01*
X185759661Y-94181661D01*
X185951481Y-93947927D01*
X186094017Y-93681261D01*
X186181790Y-93391913D01*
X186211427Y-93091000D01*
X186181790Y-92790087D01*
X186094017Y-92500739D01*
X185951481Y-92234073D01*
X185759661Y-92000339D01*
X185525927Y-91808519D01*
X185259261Y-91665983D01*
X184969913Y-91578210D01*
X184744408Y-91556000D01*
X182793592Y-91556000D01*
X182568087Y-91578210D01*
X182278739Y-91665983D01*
X182012073Y-91808519D01*
X181778339Y-92000339D01*
X181586519Y-92234073D01*
X181443983Y-92500739D01*
X181356210Y-92790087D01*
X181326573Y-93091000D01*
X147691943Y-93091000D01*
X147664236Y-92809691D01*
X147582182Y-92539192D01*
X147448932Y-92289899D01*
X147269608Y-92071392D01*
X147051101Y-91892068D01*
X146918142Y-91821000D01*
X147051101Y-91749932D01*
X147269608Y-91570608D01*
X147448932Y-91352101D01*
X147582182Y-91102808D01*
X147664236Y-90832309D01*
X147691943Y-90551000D01*
X147664236Y-90269691D01*
X147582182Y-89999192D01*
X147448932Y-89749899D01*
X147269608Y-89531392D01*
X147051101Y-89352068D01*
X146918142Y-89281000D01*
X181326573Y-89281000D01*
X181356210Y-89581913D01*
X181443983Y-89871261D01*
X181586519Y-90137927D01*
X181778339Y-90371661D01*
X182012073Y-90563481D01*
X182278739Y-90706017D01*
X182568087Y-90793790D01*
X182793592Y-90816000D01*
X184744408Y-90816000D01*
X184969913Y-90793790D01*
X185259261Y-90706017D01*
X185525927Y-90563481D01*
X185759661Y-90371661D01*
X185951481Y-90137927D01*
X186094017Y-89871261D01*
X186181790Y-89581913D01*
X186211427Y-89281000D01*
X186181790Y-88980087D01*
X186094017Y-88690739D01*
X185951481Y-88424073D01*
X185759661Y-88190339D01*
X185525927Y-87998519D01*
X185259261Y-87855983D01*
X184969913Y-87768210D01*
X184744408Y-87746000D01*
X182793592Y-87746000D01*
X182568087Y-87768210D01*
X182278739Y-87855983D01*
X182012073Y-87998519D01*
X181778339Y-88190339D01*
X181586519Y-88424073D01*
X181443983Y-88690739D01*
X181356210Y-88980087D01*
X181326573Y-89281000D01*
X146918142Y-89281000D01*
X147051101Y-89209932D01*
X147269608Y-89030608D01*
X147448932Y-88812101D01*
X147582182Y-88562808D01*
X147664236Y-88292309D01*
X147691943Y-88011000D01*
X147664236Y-87729691D01*
X147582182Y-87459192D01*
X147448932Y-87209899D01*
X147269608Y-86991392D01*
X147051101Y-86812068D01*
X146918142Y-86741000D01*
X147051101Y-86669932D01*
X147269608Y-86490608D01*
X147448932Y-86272101D01*
X147582182Y-86022808D01*
X147664236Y-85752309D01*
X147691943Y-85471000D01*
X147664236Y-85189691D01*
X147582182Y-84919192D01*
X147448932Y-84669899D01*
X147269608Y-84451392D01*
X147119254Y-84328000D01*
X187805060Y-84328000D01*
X187805061Y-119733511D01*
X187806089Y-119743944D01*
X187824288Y-120425543D01*
X187717967Y-121049481D01*
X187492479Y-121640888D01*
X187156416Y-122177231D01*
X186722577Y-122638086D01*
X186207489Y-123005894D01*
X185630763Y-123266653D01*
X185011999Y-123410980D01*
X155352842Y-123410980D01*
X155358534Y-123404044D01*
X157748474Y-121014105D01*
X157787528Y-121142850D01*
X157869595Y-121296386D01*
X157980038Y-121430962D01*
X158114614Y-121541405D01*
X158268150Y-121623472D01*
X158434746Y-121674008D01*
X158608000Y-121691072D01*
X159908000Y-121691072D01*
X160081254Y-121674008D01*
X160247850Y-121623472D01*
X160401386Y-121541405D01*
X160535962Y-121430962D01*
X160646405Y-121296386D01*
X160728472Y-121142850D01*
X160779008Y-120976254D01*
X160796072Y-120803000D01*
X160796072Y-118277593D01*
X161533000Y-118277593D01*
X161533000Y-120228408D01*
X161555211Y-120453913D01*
X161642984Y-120743261D01*
X161785520Y-121009927D01*
X161977340Y-121243661D01*
X162211074Y-121435481D01*
X162477740Y-121578017D01*
X162767088Y-121665790D01*
X163068000Y-121695427D01*
X163368913Y-121665790D01*
X163658261Y-121578017D01*
X163924927Y-121435481D01*
X164158661Y-121243661D01*
X164350481Y-121009927D01*
X164493017Y-120743261D01*
X164580790Y-120453913D01*
X164603000Y-120228408D01*
X164603000Y-119380000D01*
X165343000Y-119380000D01*
X165343000Y-120280000D01*
X165397271Y-120577023D01*
X165508446Y-120857751D01*
X165672252Y-121111396D01*
X165882394Y-121328210D01*
X166130796Y-121499862D01*
X166407913Y-121619755D01*
X166513260Y-121644036D01*
X166751000Y-121523378D01*
X166751000Y-119380000D01*
X167005000Y-119380000D01*
X167005000Y-121523378D01*
X167242740Y-121644036D01*
X167348087Y-121619755D01*
X167625204Y-121499862D01*
X167873606Y-121328210D01*
X168083748Y-121111396D01*
X168247554Y-120857751D01*
X168358729Y-120577023D01*
X168413000Y-120280000D01*
X168413000Y-119380000D01*
X167005000Y-119380000D01*
X166751000Y-119380000D01*
X165343000Y-119380000D01*
X164603000Y-119380000D01*
X164603000Y-118277592D01*
X164597919Y-118226000D01*
X165343000Y-118226000D01*
X165343000Y-119126000D01*
X166751000Y-119126000D01*
X166751000Y-116982622D01*
X167005000Y-116982622D01*
X167005000Y-119126000D01*
X168413000Y-119126000D01*
X168413000Y-118277593D01*
X169153000Y-118277593D01*
X169153000Y-120228408D01*
X169175211Y-120453913D01*
X169262984Y-120743261D01*
X169405520Y-121009927D01*
X169597340Y-121243661D01*
X169831074Y-121435481D01*
X170097740Y-121578017D01*
X170387088Y-121665790D01*
X170688000Y-121695427D01*
X170988913Y-121665790D01*
X171278261Y-121578017D01*
X171544927Y-121435481D01*
X171778661Y-121243661D01*
X171970481Y-121009927D01*
X172113017Y-120743261D01*
X172200790Y-120453913D01*
X172223000Y-120228408D01*
X172223000Y-118277593D01*
X172963000Y-118277593D01*
X172963000Y-120228408D01*
X172985211Y-120453913D01*
X173072984Y-120743261D01*
X173215520Y-121009927D01*
X173407340Y-121243661D01*
X173641074Y-121435481D01*
X173907740Y-121578017D01*
X174197088Y-121665790D01*
X174498000Y-121695427D01*
X174798913Y-121665790D01*
X175088261Y-121578017D01*
X175354927Y-121435481D01*
X175588661Y-121243661D01*
X175780481Y-121009927D01*
X175923017Y-120743261D01*
X176010790Y-120453913D01*
X176033000Y-120228408D01*
X176033000Y-119887383D01*
X181462680Y-119887383D01*
X181462680Y-120503297D01*
X181582839Y-121107376D01*
X181818539Y-121676407D01*
X182160722Y-122188521D01*
X182596239Y-122624038D01*
X183108353Y-122966221D01*
X183677384Y-123201921D01*
X184281463Y-123322080D01*
X184897377Y-123322080D01*
X185501456Y-123201921D01*
X186070487Y-122966221D01*
X186582601Y-122624038D01*
X187018118Y-122188521D01*
X187360301Y-121676407D01*
X187596001Y-121107376D01*
X187716160Y-120503297D01*
X187716160Y-119887383D01*
X187596001Y-119283304D01*
X187360301Y-118714273D01*
X187018118Y-118202159D01*
X186582601Y-117766642D01*
X186070487Y-117424459D01*
X185501456Y-117188759D01*
X184897377Y-117068600D01*
X184281463Y-117068600D01*
X183677384Y-117188759D01*
X183108353Y-117424459D01*
X182596239Y-117766642D01*
X182160722Y-118202159D01*
X181818539Y-118714273D01*
X181582839Y-119283304D01*
X181462680Y-119887383D01*
X176033000Y-119887383D01*
X176033000Y-118277592D01*
X176010790Y-118052087D01*
X175923017Y-117762739D01*
X175780481Y-117496073D01*
X175588661Y-117262339D01*
X175354926Y-117070519D01*
X175088260Y-116927983D01*
X174798912Y-116840210D01*
X174498000Y-116810573D01*
X174197087Y-116840210D01*
X173907739Y-116927983D01*
X173641073Y-117070519D01*
X173407339Y-117262339D01*
X173215519Y-117496074D01*
X173072983Y-117762740D01*
X172985210Y-118052088D01*
X172963000Y-118277593D01*
X172223000Y-118277593D01*
X172223000Y-118277592D01*
X172200790Y-118052087D01*
X172113017Y-117762739D01*
X171970481Y-117496073D01*
X171778661Y-117262339D01*
X171544926Y-117070519D01*
X171278260Y-116927983D01*
X170988912Y-116840210D01*
X170688000Y-116810573D01*
X170387087Y-116840210D01*
X170097739Y-116927983D01*
X169831073Y-117070519D01*
X169597339Y-117262339D01*
X169405519Y-117496074D01*
X169262983Y-117762740D01*
X169175210Y-118052088D01*
X169153000Y-118277593D01*
X168413000Y-118277593D01*
X168413000Y-118226000D01*
X168358729Y-117928977D01*
X168247554Y-117648249D01*
X168083748Y-117394604D01*
X167873606Y-117177790D01*
X167625204Y-117006138D01*
X167348087Y-116886245D01*
X167242740Y-116861964D01*
X167005000Y-116982622D01*
X166751000Y-116982622D01*
X166513260Y-116861964D01*
X166407913Y-116886245D01*
X166130796Y-117006138D01*
X165882394Y-117177790D01*
X165672252Y-117394604D01*
X165508446Y-117648249D01*
X165397271Y-117928977D01*
X165343000Y-118226000D01*
X164597919Y-118226000D01*
X164580790Y-118052087D01*
X164493017Y-117762739D01*
X164350481Y-117496073D01*
X164158661Y-117262339D01*
X163924926Y-117070519D01*
X163658260Y-116927983D01*
X163368912Y-116840210D01*
X163068000Y-116810573D01*
X162767087Y-116840210D01*
X162477739Y-116927983D01*
X162211073Y-117070519D01*
X161977339Y-117262339D01*
X161785519Y-117496074D01*
X161642983Y-117762740D01*
X161555210Y-118052088D01*
X161533000Y-118277593D01*
X160796072Y-118277593D01*
X160796072Y-117703000D01*
X160779008Y-117529746D01*
X160728472Y-117363150D01*
X160646405Y-117209614D01*
X160535962Y-117075038D01*
X160401386Y-116964595D01*
X160247850Y-116882528D01*
X160081254Y-116831992D01*
X159908000Y-116814928D01*
X158608000Y-116814928D01*
X158434746Y-116831992D01*
X158268150Y-116882528D01*
X158114614Y-116964595D01*
X157980038Y-117075038D01*
X157869595Y-117209614D01*
X157787528Y-117363150D01*
X157736992Y-117529746D01*
X157719928Y-117703000D01*
X157719928Y-118549710D01*
X157662953Y-118596468D01*
X157662951Y-118596470D01*
X157629183Y-118624183D01*
X157601470Y-118657951D01*
X154335422Y-121924000D01*
X121955189Y-121924000D01*
X111168189Y-111137000D01*
X114670928Y-111137000D01*
X114670928Y-112637000D01*
X114683188Y-112761482D01*
X114719498Y-112881180D01*
X114778463Y-112991494D01*
X114857815Y-113088185D01*
X114954506Y-113167537D01*
X115064820Y-113226502D01*
X115184518Y-113262812D01*
X115309000Y-113275072D01*
X117609000Y-113275072D01*
X117733482Y-113262812D01*
X117853180Y-113226502D01*
X117963494Y-113167537D01*
X118060185Y-113088185D01*
X118139537Y-112991494D01*
X118198502Y-112881180D01*
X118234812Y-112761482D01*
X118247072Y-112637000D01*
X118247072Y-111137000D01*
X118234812Y-111012518D01*
X118198502Y-110892820D01*
X118139537Y-110782506D01*
X118060185Y-110685815D01*
X117963494Y-110606463D01*
X117853180Y-110547498D01*
X117733482Y-110511188D01*
X117624126Y-110500418D01*
X117734061Y-110428028D01*
X117775937Y-110386712D01*
X167541893Y-110386712D01*
X167649726Y-110661338D01*
X167956384Y-110812216D01*
X168286585Y-110900369D01*
X168627639Y-110922409D01*
X168966439Y-110877489D01*
X169289966Y-110767336D01*
X169488274Y-110661338D01*
X169596107Y-110386712D01*
X172541893Y-110386712D01*
X172649726Y-110661338D01*
X172956384Y-110812216D01*
X173286585Y-110900369D01*
X173627639Y-110922409D01*
X173966439Y-110877489D01*
X174289966Y-110767336D01*
X174488274Y-110661338D01*
X174596107Y-110386712D01*
X174583395Y-110374000D01*
X181330928Y-110374000D01*
X181343188Y-110498482D01*
X181379498Y-110618180D01*
X181438463Y-110728494D01*
X181517815Y-110825185D01*
X181614506Y-110904537D01*
X181724820Y-110963502D01*
X181844518Y-110999812D01*
X181969000Y-111012072D01*
X183483250Y-111009000D01*
X183642000Y-110850250D01*
X183642000Y-109601000D01*
X183896000Y-109601000D01*
X183896000Y-110850250D01*
X184054750Y-111009000D01*
X185569000Y-111012072D01*
X185693482Y-110999812D01*
X185813180Y-110963502D01*
X185923494Y-110904537D01*
X186020185Y-110825185D01*
X186099537Y-110728494D01*
X186158502Y-110618180D01*
X186194812Y-110498482D01*
X186207072Y-110374000D01*
X186204000Y-109759750D01*
X186045250Y-109601000D01*
X183896000Y-109601000D01*
X183642000Y-109601000D01*
X181492750Y-109601000D01*
X181334000Y-109759750D01*
X181330928Y-110374000D01*
X174583395Y-110374000D01*
X173569000Y-109359605D01*
X172541893Y-110386712D01*
X169596107Y-110386712D01*
X168569000Y-109359605D01*
X167541893Y-110386712D01*
X117775937Y-110386712D01*
X117928145Y-110236540D01*
X118081142Y-110010868D01*
X118187173Y-109759684D01*
X118201318Y-109688185D01*
X118078656Y-109474000D01*
X116586000Y-109474000D01*
X116586000Y-109494000D01*
X116332000Y-109494000D01*
X116332000Y-109474000D01*
X114839344Y-109474000D01*
X114716682Y-109688185D01*
X114730827Y-109759684D01*
X114836858Y-110010868D01*
X114989855Y-110236540D01*
X115183939Y-110428028D01*
X115293874Y-110500418D01*
X115184518Y-110511188D01*
X115064820Y-110547498D01*
X114954506Y-110606463D01*
X114857815Y-110685815D01*
X114778463Y-110782506D01*
X114719498Y-110892820D01*
X114683188Y-111012518D01*
X114670928Y-111137000D01*
X111168189Y-111137000D01*
X110486000Y-110454812D01*
X110486000Y-109238639D01*
X166826591Y-109238639D01*
X166871511Y-109577439D01*
X166981664Y-109900966D01*
X167087662Y-110099274D01*
X167362288Y-110207107D01*
X168389395Y-109180000D01*
X168748605Y-109180000D01*
X169775712Y-110207107D01*
X170050338Y-110099274D01*
X170201216Y-109792616D01*
X170289369Y-109462415D01*
X170303830Y-109238639D01*
X171826591Y-109238639D01*
X171871511Y-109577439D01*
X171981664Y-109900966D01*
X172087662Y-110099274D01*
X172362288Y-110207107D01*
X173389395Y-109180000D01*
X173748605Y-109180000D01*
X174775712Y-110207107D01*
X175050338Y-110099274D01*
X175201216Y-109792616D01*
X175289369Y-109462415D01*
X175311409Y-109121361D01*
X175266489Y-108782561D01*
X175195480Y-108574000D01*
X181330928Y-108574000D01*
X181334000Y-109188250D01*
X181492750Y-109347000D01*
X183642000Y-109347000D01*
X183642000Y-108097750D01*
X183896000Y-108097750D01*
X183896000Y-109347000D01*
X186045250Y-109347000D01*
X186204000Y-109188250D01*
X186207072Y-108574000D01*
X186194812Y-108449518D01*
X186158502Y-108329820D01*
X186099537Y-108219506D01*
X186020185Y-108122815D01*
X185923494Y-108043463D01*
X185813180Y-107984498D01*
X185693482Y-107948188D01*
X185569000Y-107935928D01*
X184054750Y-107939000D01*
X183896000Y-108097750D01*
X183642000Y-108097750D01*
X183483250Y-107939000D01*
X181969000Y-107935928D01*
X181844518Y-107948188D01*
X181724820Y-107984498D01*
X181614506Y-108043463D01*
X181517815Y-108122815D01*
X181438463Y-108219506D01*
X181379498Y-108329820D01*
X181343188Y-108449518D01*
X181330928Y-108574000D01*
X175195480Y-108574000D01*
X175156336Y-108459034D01*
X175050338Y-108260726D01*
X174775712Y-108152893D01*
X173748605Y-109180000D01*
X173389395Y-109180000D01*
X172362288Y-108152893D01*
X172087662Y-108260726D01*
X171936784Y-108567384D01*
X171848631Y-108897585D01*
X171826591Y-109238639D01*
X170303830Y-109238639D01*
X170311409Y-109121361D01*
X170266489Y-108782561D01*
X170156336Y-108459034D01*
X170050338Y-108260726D01*
X169775712Y-108152893D01*
X168748605Y-109180000D01*
X168389395Y-109180000D01*
X167362288Y-108152893D01*
X167087662Y-108260726D01*
X166936784Y-108567384D01*
X166848631Y-108897585D01*
X166826591Y-109238639D01*
X110486000Y-109238639D01*
X110486000Y-106807000D01*
X114667299Y-106807000D01*
X114694040Y-107078507D01*
X114773236Y-107339581D01*
X114901843Y-107580188D01*
X115074919Y-107791081D01*
X115285812Y-107964157D01*
X115501578Y-108079486D01*
X115411651Y-108116028D01*
X115183939Y-108265972D01*
X114989855Y-108457460D01*
X114836858Y-108683132D01*
X114730827Y-108934316D01*
X114716682Y-109005815D01*
X114839344Y-109220000D01*
X116332000Y-109220000D01*
X116332000Y-109200000D01*
X116586000Y-109200000D01*
X116586000Y-109220000D01*
X118078656Y-109220000D01*
X118201318Y-109005815D01*
X118187173Y-108934316D01*
X118081142Y-108683132D01*
X117928145Y-108457460D01*
X117734061Y-108265972D01*
X117506349Y-108116028D01*
X117416422Y-108079486D01*
X117632188Y-107964157D01*
X117843081Y-107791081D01*
X118016157Y-107580188D01*
X118144764Y-107339581D01*
X118223960Y-107078507D01*
X118250701Y-106807000D01*
X118223960Y-106535493D01*
X118144764Y-106274419D01*
X118016157Y-106033812D01*
X117843081Y-105822919D01*
X117632188Y-105649843D01*
X117391581Y-105521236D01*
X117130507Y-105442040D01*
X116927037Y-105422000D01*
X115990963Y-105422000D01*
X115787493Y-105442040D01*
X115526419Y-105521236D01*
X115285812Y-105649843D01*
X115074919Y-105822919D01*
X114901843Y-106033812D01*
X114773236Y-106274419D01*
X114694040Y-106535493D01*
X114667299Y-106807000D01*
X110486000Y-106807000D01*
X110486000Y-103236578D01*
X113000579Y-100722000D01*
X114259408Y-100722000D01*
X114484913Y-100699790D01*
X114774261Y-100612017D01*
X115040927Y-100469481D01*
X115274661Y-100277661D01*
X115466481Y-100043927D01*
X115609017Y-99777261D01*
X115696790Y-99487913D01*
X115726427Y-99187000D01*
X115696790Y-98886087D01*
X115609017Y-98596739D01*
X115466481Y-98330073D01*
X115274661Y-98096339D01*
X115040927Y-97904519D01*
X114774261Y-97761983D01*
X114484913Y-97674210D01*
X114259408Y-97652000D01*
X112308592Y-97652000D01*
X112083087Y-97674210D01*
X111793739Y-97761983D01*
X111527073Y-97904519D01*
X111293339Y-98096339D01*
X111101519Y-98330073D01*
X110958983Y-98596739D01*
X110871210Y-98886087D01*
X110841573Y-99187000D01*
X110871210Y-99487913D01*
X110958983Y-99777261D01*
X111101519Y-100043927D01*
X111134864Y-100084558D01*
X109374940Y-101844482D01*
X109374940Y-95377000D01*
X110841573Y-95377000D01*
X110871210Y-95677913D01*
X110958983Y-95967261D01*
X111101519Y-96233927D01*
X111293339Y-96467661D01*
X111527073Y-96659481D01*
X111793739Y-96802017D01*
X112083087Y-96889790D01*
X112308592Y-96912000D01*
X114259408Y-96912000D01*
X114484913Y-96889790D01*
X114774261Y-96802017D01*
X115040927Y-96659481D01*
X115274661Y-96467661D01*
X115466481Y-96233927D01*
X115609017Y-95967261D01*
X115696790Y-95677913D01*
X115726427Y-95377000D01*
X115696790Y-95076087D01*
X115609017Y-94786739D01*
X115466481Y-94520073D01*
X115274661Y-94286339D01*
X115040927Y-94094519D01*
X114774261Y-93951983D01*
X114484913Y-93864210D01*
X114259408Y-93842000D01*
X112308592Y-93842000D01*
X112083087Y-93864210D01*
X111793739Y-93951983D01*
X111527073Y-94094519D01*
X111293339Y-94286339D01*
X111101519Y-94520073D01*
X110958983Y-94786739D01*
X110871210Y-95076087D01*
X110841573Y-95377000D01*
X109374940Y-95377000D01*
X109374940Y-91567000D01*
X110841573Y-91567000D01*
X110871210Y-91867913D01*
X110958983Y-92157261D01*
X111101519Y-92423927D01*
X111293339Y-92657661D01*
X111527073Y-92849481D01*
X111793739Y-92992017D01*
X112083087Y-93079790D01*
X112308592Y-93102000D01*
X114259408Y-93102000D01*
X114484913Y-93079790D01*
X114774261Y-92992017D01*
X115040927Y-92849481D01*
X115274661Y-92657661D01*
X115466481Y-92423927D01*
X115609017Y-92157261D01*
X115696790Y-91867913D01*
X115726427Y-91567000D01*
X115696790Y-91266087D01*
X115609017Y-90976739D01*
X115466481Y-90710073D01*
X115274661Y-90476339D01*
X115040927Y-90284519D01*
X114774261Y-90141983D01*
X114484913Y-90054210D01*
X114259408Y-90032000D01*
X112308592Y-90032000D01*
X112083087Y-90054210D01*
X111793739Y-90141983D01*
X111527073Y-90284519D01*
X111293339Y-90476339D01*
X111101519Y-90710073D01*
X110958983Y-90976739D01*
X110871210Y-91266087D01*
X110841573Y-91567000D01*
X109374940Y-91567000D01*
X109374940Y-88657000D01*
X110845928Y-88657000D01*
X110858188Y-88781482D01*
X110894498Y-88901180D01*
X110953463Y-89011494D01*
X111032815Y-89108185D01*
X111129506Y-89187537D01*
X111239820Y-89246502D01*
X111359518Y-89282812D01*
X111484000Y-89295072D01*
X112998250Y-89292000D01*
X113157000Y-89133250D01*
X113157000Y-87884000D01*
X113411000Y-87884000D01*
X113411000Y-89133250D01*
X113569750Y-89292000D01*
X115084000Y-89295072D01*
X115208482Y-89282812D01*
X115328180Y-89246502D01*
X115438494Y-89187537D01*
X115535185Y-89108185D01*
X115614537Y-89011494D01*
X115673502Y-88901180D01*
X115709812Y-88781482D01*
X115722072Y-88657000D01*
X115719000Y-88042750D01*
X115560250Y-87884000D01*
X113411000Y-87884000D01*
X113157000Y-87884000D01*
X111007750Y-87884000D01*
X110849000Y-88042750D01*
X110845928Y-88657000D01*
X109374940Y-88657000D01*
X109374940Y-86857000D01*
X110845928Y-86857000D01*
X110849000Y-87471250D01*
X111007750Y-87630000D01*
X113157000Y-87630000D01*
X113157000Y-86380750D01*
X113411000Y-86380750D01*
X113411000Y-87630000D01*
X115560250Y-87630000D01*
X115719000Y-87471250D01*
X115722072Y-86857000D01*
X115709812Y-86732518D01*
X115673502Y-86612820D01*
X115614537Y-86502506D01*
X115535185Y-86405815D01*
X115438494Y-86326463D01*
X115328180Y-86267498D01*
X115208482Y-86231188D01*
X115084000Y-86218928D01*
X113569750Y-86222000D01*
X113411000Y-86380750D01*
X113157000Y-86380750D01*
X112998250Y-86222000D01*
X111484000Y-86218928D01*
X111359518Y-86231188D01*
X111239820Y-86267498D01*
X111129506Y-86326463D01*
X111032815Y-86405815D01*
X110953463Y-86502506D01*
X110894498Y-86612820D01*
X110858188Y-86732518D01*
X110845928Y-86857000D01*
X109374940Y-86857000D01*
X109374940Y-84328000D01*
X121569805Y-84328000D01*
X121564188Y-84346518D01*
M02*
