M48
; DRILL file {KiCad (5.1.2-1)-1} date Friday, 26 July 2019 at 11:47:51
; FORMAT={-:-/ absolute / inch / decimal}
; #@! TF.CreationDate,2019-07-26T11:47:51+01:00
; #@! TF.GenerationSoftware,Kicad,Pcbnew,(5.1.2-1)-1
; #@! TF.FileFunction,Plated,1,2,PTH
FMAT,2
INCH
T1C0.0157
T2C0.0394
T3C0.0433
T4C0.0472
T5C0.1260
%
G90
G05
T1
X5.24Y-4.34
X5.43Y-4.105
X5.43Y-4.25
X5.9181Y-4.4551
X6.105Y-4.075
X6.175Y-3.8
T2
X4.85Y-3.365
X4.85Y-3.465
X4.85Y-3.565
X4.85Y-3.665
X4.85Y-3.765
X4.85Y-3.865
X4.85Y-3.965
X4.85Y-4.065
X5.75Y-3.365
X5.75Y-3.465
X5.75Y-3.565
X5.75Y-3.665
X5.75Y-3.765
X5.75Y-3.865
X5.75Y-3.965
X5.75Y-4.065
X4.585Y-4.205
X4.585Y-4.305
X4.585Y-4.405
X4.9984Y-3.7646
X4.9984Y-3.8646
X6.035Y-3.8
X6.3342Y-3.8
T3
X6.6366Y-4.1016
X6.6366Y-4.2984
X6.8334Y-4.1016
X6.8334Y-4.2984
T4
X6.27Y-4.695
X6.42Y-4.695
X6.57Y-4.695
X6.72Y-4.695
X6.87Y-4.695
X4.46Y-3.455
X4.46Y-3.605
X4.46Y-3.755
X4.46Y-3.905
X7.235Y-4.16
X7.235Y-4.31
X7.235Y-3.515
X7.235Y-3.665
X7.235Y-3.815
T5
X4.4327Y-3.1179
X4.4327Y-4.7321
X7.2673Y-3.1179
X7.2673Y-4.7321
T0
M30
