G04 #@! TF.GenerationSoftware,KiCad,Pcbnew,(5.1.2-1)-1*
G04 #@! TF.CreationDate,2019-07-26T11:47:48+01:00*
G04 #@! TF.ProjectId,tool-lockers-pcb,746f6f6c-2d6c-46f6-936b-6572732d7063,rev?*
G04 #@! TF.SameCoordinates,Original*
G04 #@! TF.FileFunction,Legend,Bot*
G04 #@! TF.FilePolarity,Positive*
%FSLAX46Y46*%
G04 Gerber Fmt 4.6, Leading zero omitted, Abs format (unit mm)*
G04 Created by KiCad (PCBNEW (5.1.2-1)-1) date 2019-07-26 11:47:48*
%MOMM*%
%LPD*%
G04 APERTURE LIST*
%ADD10C,0.300000*%
G04 APERTURE END LIST*
D10*
X149601428Y-110743571D02*
X149601428Y-109243571D01*
X149244285Y-109243571D01*
X149030000Y-109315000D01*
X148887142Y-109457857D01*
X148815714Y-109600714D01*
X148744285Y-109886428D01*
X148744285Y-110100714D01*
X148815714Y-110386428D01*
X148887142Y-110529285D01*
X149030000Y-110672142D01*
X149244285Y-110743571D01*
X149601428Y-110743571D01*
X147530000Y-110672142D02*
X147672857Y-110743571D01*
X147958571Y-110743571D01*
X148101428Y-110672142D01*
X148172857Y-110529285D01*
X148172857Y-109957857D01*
X148101428Y-109815000D01*
X147958571Y-109743571D01*
X147672857Y-109743571D01*
X147530000Y-109815000D01*
X147458571Y-109957857D01*
X147458571Y-110100714D01*
X148172857Y-110243571D01*
X146887142Y-110672142D02*
X146744285Y-110743571D01*
X146458571Y-110743571D01*
X146315714Y-110672142D01*
X146244285Y-110529285D01*
X146244285Y-110457857D01*
X146315714Y-110315000D01*
X146458571Y-110243571D01*
X146672857Y-110243571D01*
X146815714Y-110172142D01*
X146887142Y-110029285D01*
X146887142Y-109957857D01*
X146815714Y-109815000D01*
X146672857Y-109743571D01*
X146458571Y-109743571D01*
X146315714Y-109815000D01*
X145601428Y-110743571D02*
X145601428Y-109743571D01*
X145601428Y-109243571D02*
X145672857Y-109315000D01*
X145601428Y-109386428D01*
X145530000Y-109315000D01*
X145601428Y-109243571D01*
X145601428Y-109386428D01*
X144244285Y-109743571D02*
X144244285Y-110957857D01*
X144315714Y-111100714D01*
X144387142Y-111172142D01*
X144530000Y-111243571D01*
X144744285Y-111243571D01*
X144887142Y-111172142D01*
X144244285Y-110672142D02*
X144387142Y-110743571D01*
X144672857Y-110743571D01*
X144815714Y-110672142D01*
X144887142Y-110600714D01*
X144958571Y-110457857D01*
X144958571Y-110029285D01*
X144887142Y-109886428D01*
X144815714Y-109815000D01*
X144672857Y-109743571D01*
X144387142Y-109743571D01*
X144244285Y-109815000D01*
X143530000Y-109743571D02*
X143530000Y-110743571D01*
X143530000Y-109886428D02*
X143458571Y-109815000D01*
X143315714Y-109743571D01*
X143101428Y-109743571D01*
X142958571Y-109815000D01*
X142887142Y-109957857D01*
X142887142Y-110743571D01*
X141601428Y-110672142D02*
X141744285Y-110743571D01*
X142030000Y-110743571D01*
X142172857Y-110672142D01*
X142244285Y-110529285D01*
X142244285Y-109957857D01*
X142172857Y-109815000D01*
X142030000Y-109743571D01*
X141744285Y-109743571D01*
X141601428Y-109815000D01*
X141530000Y-109957857D01*
X141530000Y-110100714D01*
X142244285Y-110243571D01*
X140244285Y-110743571D02*
X140244285Y-109243571D01*
X140244285Y-110672142D02*
X140387142Y-110743571D01*
X140672857Y-110743571D01*
X140815714Y-110672142D01*
X140887142Y-110600714D01*
X140958571Y-110457857D01*
X140958571Y-110029285D01*
X140887142Y-109886428D01*
X140815714Y-109815000D01*
X140672857Y-109743571D01*
X140387142Y-109743571D01*
X140244285Y-109815000D01*
X138387142Y-110743571D02*
X138387142Y-109243571D01*
X138387142Y-109815000D02*
X138244285Y-109743571D01*
X137958571Y-109743571D01*
X137815714Y-109815000D01*
X137744285Y-109886428D01*
X137672857Y-110029285D01*
X137672857Y-110457857D01*
X137744285Y-110600714D01*
X137815714Y-110672142D01*
X137958571Y-110743571D01*
X138244285Y-110743571D01*
X138387142Y-110672142D01*
X137172857Y-109743571D02*
X136815714Y-110743571D01*
X136458571Y-109743571D02*
X136815714Y-110743571D01*
X136958571Y-111100714D01*
X137030000Y-111172142D01*
X137172857Y-111243571D01*
X134958571Y-109243571D02*
X134101428Y-109243571D01*
X134530000Y-110743571D02*
X134530000Y-109243571D01*
X133601428Y-110743571D02*
X133601428Y-109743571D01*
X133601428Y-109243571D02*
X133672857Y-109315000D01*
X133601428Y-109386428D01*
X133530000Y-109315000D01*
X133601428Y-109243571D01*
X133601428Y-109386428D01*
X132887142Y-110743571D02*
X132887142Y-109743571D01*
X132887142Y-109886428D02*
X132815714Y-109815000D01*
X132672857Y-109743571D01*
X132458571Y-109743571D01*
X132315714Y-109815000D01*
X132244285Y-109957857D01*
X132244285Y-110743571D01*
X132244285Y-109957857D02*
X132172857Y-109815000D01*
X132030000Y-109743571D01*
X131815714Y-109743571D01*
X131672857Y-109815000D01*
X131601428Y-109957857D01*
X131601428Y-110743571D01*
X129744285Y-110743571D02*
X129744285Y-109243571D01*
X129744285Y-109957857D02*
X128887142Y-109957857D01*
X128887142Y-110743571D02*
X128887142Y-109243571D01*
X127530000Y-110743571D02*
X127530000Y-109957857D01*
X127601428Y-109815000D01*
X127744285Y-109743571D01*
X128030000Y-109743571D01*
X128172857Y-109815000D01*
X127530000Y-110672142D02*
X127672857Y-110743571D01*
X128030000Y-110743571D01*
X128172857Y-110672142D01*
X128244285Y-110529285D01*
X128244285Y-110386428D01*
X128172857Y-110243571D01*
X128030000Y-110172142D01*
X127672857Y-110172142D01*
X127530000Y-110100714D01*
X126958571Y-109743571D02*
X126672857Y-110743571D01*
X126387142Y-110029285D01*
X126101428Y-110743571D01*
X125815714Y-109743571D01*
X124672857Y-110672142D02*
X124815714Y-110743571D01*
X125101428Y-110743571D01*
X125244285Y-110672142D01*
X125315714Y-110529285D01*
X125315714Y-109957857D01*
X125244285Y-109815000D01*
X125101428Y-109743571D01*
X124815714Y-109743571D01*
X124672857Y-109815000D01*
X124601428Y-109957857D01*
X124601428Y-110100714D01*
X125315714Y-110243571D01*
X124030000Y-110672142D02*
X123887142Y-110743571D01*
X123601428Y-110743571D01*
X123458571Y-110672142D01*
X123387142Y-110529285D01*
X123387142Y-110457857D01*
X123458571Y-110315000D01*
X123601428Y-110243571D01*
X123815714Y-110243571D01*
X123958571Y-110172142D01*
X124030000Y-110029285D01*
X124030000Y-109957857D01*
X123958571Y-109815000D01*
X123815714Y-109743571D01*
X123601428Y-109743571D01*
X123458571Y-109815000D01*
X149137142Y-112293571D02*
X148565714Y-112293571D01*
X148922857Y-113293571D02*
X148922857Y-112007857D01*
X148851428Y-111865000D01*
X148708571Y-111793571D01*
X148565714Y-111793571D01*
X147851428Y-113293571D02*
X147994285Y-113222142D01*
X148065714Y-113150714D01*
X148137142Y-113007857D01*
X148137142Y-112579285D01*
X148065714Y-112436428D01*
X147994285Y-112365000D01*
X147851428Y-112293571D01*
X147637142Y-112293571D01*
X147494285Y-112365000D01*
X147422857Y-112436428D01*
X147351428Y-112579285D01*
X147351428Y-113007857D01*
X147422857Y-113150714D01*
X147494285Y-113222142D01*
X147637142Y-113293571D01*
X147851428Y-113293571D01*
X146708571Y-113293571D02*
X146708571Y-112293571D01*
X146708571Y-112579285D02*
X146637142Y-112436428D01*
X146565714Y-112365000D01*
X146422857Y-112293571D01*
X146280000Y-112293571D01*
X144637142Y-112507857D02*
X144137142Y-112507857D01*
X143922857Y-113293571D02*
X144637142Y-113293571D01*
X144637142Y-111793571D01*
X143922857Y-111793571D01*
X142637142Y-113293571D02*
X142637142Y-111793571D01*
X142637142Y-113222142D02*
X142780000Y-113293571D01*
X143065714Y-113293571D01*
X143208571Y-113222142D01*
X143280000Y-113150714D01*
X143351428Y-113007857D01*
X143351428Y-112579285D01*
X143280000Y-112436428D01*
X143208571Y-112365000D01*
X143065714Y-112293571D01*
X142780000Y-112293571D01*
X142637142Y-112365000D01*
X141922857Y-113293571D02*
X141922857Y-112293571D01*
X141922857Y-111793571D02*
X141994285Y-111865000D01*
X141922857Y-111936428D01*
X141851428Y-111865000D01*
X141922857Y-111793571D01*
X141922857Y-111936428D01*
X141208571Y-112293571D02*
X141208571Y-113293571D01*
X141208571Y-112436428D02*
X141137142Y-112365000D01*
X140994285Y-112293571D01*
X140780000Y-112293571D01*
X140637142Y-112365000D01*
X140565714Y-112507857D01*
X140565714Y-113293571D01*
X139851428Y-113293571D02*
X139851428Y-111793571D01*
X139851428Y-112365000D02*
X139708571Y-112293571D01*
X139422857Y-112293571D01*
X139280000Y-112365000D01*
X139208571Y-112436428D01*
X139137142Y-112579285D01*
X139137142Y-113007857D01*
X139208571Y-113150714D01*
X139280000Y-113222142D01*
X139422857Y-113293571D01*
X139708571Y-113293571D01*
X139851428Y-113222142D01*
X137851428Y-112293571D02*
X137851428Y-113293571D01*
X138494285Y-112293571D02*
X138494285Y-113079285D01*
X138422857Y-113222142D01*
X138280000Y-113293571D01*
X138065714Y-113293571D01*
X137922857Y-113222142D01*
X137851428Y-113150714D01*
X137137142Y-113293571D02*
X137137142Y-112293571D01*
X137137142Y-112579285D02*
X137065714Y-112436428D01*
X136994285Y-112365000D01*
X136851428Y-112293571D01*
X136708571Y-112293571D01*
X135565714Y-112293571D02*
X135565714Y-113507857D01*
X135637142Y-113650714D01*
X135708571Y-113722142D01*
X135851428Y-113793571D01*
X136065714Y-113793571D01*
X136208571Y-113722142D01*
X135565714Y-113222142D02*
X135708571Y-113293571D01*
X135994285Y-113293571D01*
X136137142Y-113222142D01*
X136208571Y-113150714D01*
X136280000Y-113007857D01*
X136280000Y-112579285D01*
X136208571Y-112436428D01*
X136137142Y-112365000D01*
X135994285Y-112293571D01*
X135708571Y-112293571D01*
X135565714Y-112365000D01*
X134851428Y-113293571D02*
X134851428Y-111793571D01*
X134208571Y-113293571D02*
X134208571Y-112507857D01*
X134280000Y-112365000D01*
X134422857Y-112293571D01*
X134637142Y-112293571D01*
X134780000Y-112365000D01*
X134851428Y-112436428D01*
X132351428Y-113293571D02*
X132351428Y-111793571D01*
X132351428Y-112507857D02*
X131494285Y-112507857D01*
X131494285Y-113293571D02*
X131494285Y-111793571D01*
X130137142Y-113293571D02*
X130137142Y-112507857D01*
X130208571Y-112365000D01*
X130351428Y-112293571D01*
X130637142Y-112293571D01*
X130780000Y-112365000D01*
X130137142Y-113222142D02*
X130280000Y-113293571D01*
X130637142Y-113293571D01*
X130780000Y-113222142D01*
X130851428Y-113079285D01*
X130851428Y-112936428D01*
X130780000Y-112793571D01*
X130637142Y-112722142D01*
X130280000Y-112722142D01*
X130137142Y-112650714D01*
X128780000Y-113222142D02*
X128922857Y-113293571D01*
X129208571Y-113293571D01*
X129351428Y-113222142D01*
X129422857Y-113150714D01*
X129494285Y-113007857D01*
X129494285Y-112579285D01*
X129422857Y-112436428D01*
X129351428Y-112365000D01*
X129208571Y-112293571D01*
X128922857Y-112293571D01*
X128780000Y-112365000D01*
X128137142Y-113293571D02*
X128137142Y-111793571D01*
X127994285Y-112722142D02*
X127565714Y-113293571D01*
X127565714Y-112293571D02*
X128137142Y-112865000D01*
X126708571Y-113293571D02*
X126851428Y-113222142D01*
X126922857Y-113079285D01*
X126922857Y-111793571D01*
X125494285Y-113293571D02*
X125494285Y-112507857D01*
X125565714Y-112365000D01*
X125708571Y-112293571D01*
X125994285Y-112293571D01*
X126137142Y-112365000D01*
X125494285Y-113222142D02*
X125637142Y-113293571D01*
X125994285Y-113293571D01*
X126137142Y-113222142D01*
X126208571Y-113079285D01*
X126208571Y-112936428D01*
X126137142Y-112793571D01*
X125994285Y-112722142D01*
X125637142Y-112722142D01*
X125494285Y-112650714D01*
X124780000Y-113293571D02*
X124780000Y-111793571D01*
X124780000Y-112365000D02*
X124637142Y-112293571D01*
X124351428Y-112293571D01*
X124208571Y-112365000D01*
X124137142Y-112436428D01*
X124065714Y-112579285D01*
X124065714Y-113007857D01*
X124137142Y-113150714D01*
X124208571Y-113222142D01*
X124351428Y-113293571D01*
X124637142Y-113293571D01*
X124780000Y-113222142D01*
X152744285Y-117393571D02*
X152172857Y-117393571D01*
X152530000Y-116893571D02*
X152530000Y-118179285D01*
X152458571Y-118322142D01*
X152315714Y-118393571D01*
X152172857Y-118393571D01*
X151672857Y-118393571D02*
X151672857Y-117393571D01*
X151672857Y-116893571D02*
X151744285Y-116965000D01*
X151672857Y-117036428D01*
X151601428Y-116965000D01*
X151672857Y-116893571D01*
X151672857Y-117036428D01*
X150958571Y-118393571D02*
X150958571Y-117393571D01*
X150958571Y-117536428D02*
X150887142Y-117465000D01*
X150744285Y-117393571D01*
X150530000Y-117393571D01*
X150387142Y-117465000D01*
X150315714Y-117607857D01*
X150315714Y-118393571D01*
X150315714Y-117607857D02*
X150244285Y-117465000D01*
X150101428Y-117393571D01*
X149887142Y-117393571D01*
X149744285Y-117465000D01*
X149672857Y-117607857D01*
X149672857Y-118393571D01*
X148958571Y-118393571D02*
X148958571Y-116893571D01*
X148315714Y-118393571D02*
X148315714Y-117607857D01*
X148387142Y-117465000D01*
X148530000Y-117393571D01*
X148744285Y-117393571D01*
X148887142Y-117465000D01*
X148958571Y-117536428D01*
X146958571Y-118393571D02*
X146958571Y-117607857D01*
X147030000Y-117465000D01*
X147172857Y-117393571D01*
X147458571Y-117393571D01*
X147601428Y-117465000D01*
X146958571Y-118322142D02*
X147101428Y-118393571D01*
X147458571Y-118393571D01*
X147601428Y-118322142D01*
X147672857Y-118179285D01*
X147672857Y-118036428D01*
X147601428Y-117893571D01*
X147458571Y-117822142D01*
X147101428Y-117822142D01*
X146958571Y-117750714D01*
X146387142Y-117393571D02*
X146101428Y-118393571D01*
X145815714Y-117679285D01*
X145530000Y-118393571D01*
X145244285Y-117393571D01*
X144101428Y-118322142D02*
X144244285Y-118393571D01*
X144530000Y-118393571D01*
X144672857Y-118322142D01*
X144744285Y-118179285D01*
X144744285Y-117607857D01*
X144672857Y-117465000D01*
X144530000Y-117393571D01*
X144244285Y-117393571D01*
X144101428Y-117465000D01*
X144030000Y-117607857D01*
X144030000Y-117750714D01*
X144744285Y-117893571D01*
X143458571Y-118322142D02*
X143315714Y-118393571D01*
X143030000Y-118393571D01*
X142887142Y-118322142D01*
X142815714Y-118179285D01*
X142815714Y-118107857D01*
X142887142Y-117965000D01*
X143030000Y-117893571D01*
X143244285Y-117893571D01*
X143387142Y-117822142D01*
X143458571Y-117679285D01*
X143458571Y-117607857D01*
X143387142Y-117465000D01*
X143244285Y-117393571D01*
X143030000Y-117393571D01*
X142887142Y-117465000D01*
X142172857Y-118250714D02*
X142101428Y-118322142D01*
X142172857Y-118393571D01*
X142244285Y-118322142D01*
X142172857Y-118250714D01*
X142172857Y-118393571D01*
X140815714Y-118322142D02*
X140958571Y-118393571D01*
X141244285Y-118393571D01*
X141387142Y-118322142D01*
X141458571Y-118250714D01*
X141530000Y-118107857D01*
X141530000Y-117679285D01*
X141458571Y-117536428D01*
X141387142Y-117465000D01*
X141244285Y-117393571D01*
X140958571Y-117393571D01*
X140815714Y-117465000D01*
X139958571Y-118393571D02*
X140101428Y-118322142D01*
X140172857Y-118250714D01*
X140244285Y-118107857D01*
X140244285Y-117679285D01*
X140172857Y-117536428D01*
X140101428Y-117465000D01*
X139958571Y-117393571D01*
X139744285Y-117393571D01*
X139601428Y-117465000D01*
X139530000Y-117536428D01*
X139458571Y-117679285D01*
X139458571Y-118107857D01*
X139530000Y-118250714D01*
X139601428Y-118322142D01*
X139744285Y-118393571D01*
X139958571Y-118393571D01*
X138815714Y-118393571D02*
X138815714Y-117393571D01*
X138815714Y-117536428D02*
X138744285Y-117465000D01*
X138601428Y-117393571D01*
X138387142Y-117393571D01*
X138244285Y-117465000D01*
X138172857Y-117607857D01*
X138172857Y-118393571D01*
X138172857Y-117607857D02*
X138101428Y-117465000D01*
X137958571Y-117393571D01*
X137744285Y-117393571D01*
X137601428Y-117465000D01*
X137530000Y-117607857D01*
X137530000Y-118393571D01*
X135744285Y-116822142D02*
X137030000Y-118750714D01*
X135244285Y-117393571D02*
X135244285Y-118893571D01*
X135244285Y-117465000D02*
X135101428Y-117393571D01*
X134815714Y-117393571D01*
X134672857Y-117465000D01*
X134601428Y-117536428D01*
X134530000Y-117679285D01*
X134530000Y-118107857D01*
X134601428Y-118250714D01*
X134672857Y-118322142D01*
X134815714Y-118393571D01*
X135101428Y-118393571D01*
X135244285Y-118322142D01*
X133244285Y-118322142D02*
X133387142Y-118393571D01*
X133672857Y-118393571D01*
X133815714Y-118322142D01*
X133887142Y-118250714D01*
X133958571Y-118107857D01*
X133958571Y-117679285D01*
X133887142Y-117536428D01*
X133815714Y-117465000D01*
X133672857Y-117393571D01*
X133387142Y-117393571D01*
X133244285Y-117465000D01*
X132601428Y-118393571D02*
X132601428Y-116893571D01*
X132601428Y-117465000D02*
X132458571Y-117393571D01*
X132172857Y-117393571D01*
X132030000Y-117465000D01*
X131958571Y-117536428D01*
X131887142Y-117679285D01*
X131887142Y-118107857D01*
X131958571Y-118250714D01*
X132030000Y-118322142D01*
X132172857Y-118393571D01*
X132458571Y-118393571D01*
X132601428Y-118322142D01*
X130172857Y-116822142D02*
X131458571Y-118750714D01*
X129458571Y-118393571D02*
X129601428Y-118322142D01*
X129672857Y-118179285D01*
X129672857Y-116893571D01*
X128672857Y-118393571D02*
X128815714Y-118322142D01*
X128887142Y-118250714D01*
X128958571Y-118107857D01*
X128958571Y-117679285D01*
X128887142Y-117536428D01*
X128815714Y-117465000D01*
X128672857Y-117393571D01*
X128458571Y-117393571D01*
X128315714Y-117465000D01*
X128244285Y-117536428D01*
X128172857Y-117679285D01*
X128172857Y-118107857D01*
X128244285Y-118250714D01*
X128315714Y-118322142D01*
X128458571Y-118393571D01*
X128672857Y-118393571D01*
X126887142Y-118322142D02*
X127030000Y-118393571D01*
X127315714Y-118393571D01*
X127458571Y-118322142D01*
X127530000Y-118250714D01*
X127601428Y-118107857D01*
X127601428Y-117679285D01*
X127530000Y-117536428D01*
X127458571Y-117465000D01*
X127315714Y-117393571D01*
X127030000Y-117393571D01*
X126887142Y-117465000D01*
X126244285Y-118393571D02*
X126244285Y-116893571D01*
X126101428Y-117822142D02*
X125672857Y-118393571D01*
X125672857Y-117393571D02*
X126244285Y-117965000D01*
X124458571Y-118322142D02*
X124601428Y-118393571D01*
X124887142Y-118393571D01*
X125030000Y-118322142D01*
X125101428Y-118179285D01*
X125101428Y-117607857D01*
X125030000Y-117465000D01*
X124887142Y-117393571D01*
X124601428Y-117393571D01*
X124458571Y-117465000D01*
X124387142Y-117607857D01*
X124387142Y-117750714D01*
X125101428Y-117893571D01*
X123744285Y-118393571D02*
X123744285Y-117393571D01*
X123744285Y-117679285D02*
X123672857Y-117536428D01*
X123601428Y-117465000D01*
X123458571Y-117393571D01*
X123315714Y-117393571D01*
X121744285Y-116822142D02*
X123030000Y-118750714D01*
X121315714Y-117036428D02*
X121244285Y-116965000D01*
X121101428Y-116893571D01*
X120744285Y-116893571D01*
X120601428Y-116965000D01*
X120530000Y-117036428D01*
X120458571Y-117179285D01*
X120458571Y-117322142D01*
X120530000Y-117536428D01*
X121387142Y-118393571D01*
X120458571Y-118393571D01*
M02*
