G04 #@! TF.GenerationSoftware,KiCad,Pcbnew,(5.1.2-1)-1*
G04 #@! TF.CreationDate,2019-07-26T11:47:48+01:00*
G04 #@! TF.ProjectId,tool-lockers-pcb,746f6f6c-2d6c-46f6-936b-6572732d7063,rev?*
G04 #@! TF.SameCoordinates,Original*
G04 #@! TF.FileFunction,Copper,L1,Top*
G04 #@! TF.FilePolarity,Positive*
%FSLAX46Y46*%
G04 Gerber Fmt 4.6, Leading zero omitted, Abs format (unit mm)*
G04 Created by KiCad (PCBNEW (5.1.2-1)-1) date 2019-07-26 11:47:48*
%MOMM*%
%LPD*%
G04 APERTURE LIST*
%ADD10R,6.400000X5.800000*%
%ADD11R,2.200000X1.200000*%
%ADD12O,1.700000X1.700000*%
%ADD13R,1.700000X1.700000*%
%ADD14C,0.100000*%
%ADD15C,0.875000*%
%ADD16C,3.200400*%
%ADD17R,0.600000X0.700000*%
%ADD18C,2.200000*%
%ADD19R,2.000000X2.000000*%
%ADD20C,2.000000*%
%ADD21R,2.500000X1.800000*%
%ADD22O,3.600000X1.800000*%
%ADD23C,1.800000*%
%ADD24C,0.975000*%
%ADD25O,1.800000X3.600000*%
%ADD26O,2.000000X1.600000*%
%ADD27R,2.300000X1.500000*%
%ADD28O,2.300000X1.500000*%
%ADD29C,0.800000*%
%ADD30C,0.500000*%
%ADD31C,0.250000*%
%ADD32C,0.254000*%
G04 APERTURE END LIST*
D10*
X145030000Y-118110000D03*
D11*
X151330000Y-115830000D03*
X151330000Y-118110000D03*
X151330000Y-120390000D03*
D12*
X126960000Y-98160000D03*
D13*
X126960000Y-95620000D03*
D14*
G36*
X135749191Y-99856053D02*
G01*
X135770426Y-99859203D01*
X135791250Y-99864419D01*
X135811462Y-99871651D01*
X135830868Y-99880830D01*
X135849281Y-99891866D01*
X135866524Y-99904654D01*
X135882430Y-99919070D01*
X135896846Y-99934976D01*
X135909634Y-99952219D01*
X135920670Y-99970632D01*
X135929849Y-99990038D01*
X135937081Y-100010250D01*
X135942297Y-100031074D01*
X135945447Y-100052309D01*
X135946500Y-100073750D01*
X135946500Y-100586250D01*
X135945447Y-100607691D01*
X135942297Y-100628926D01*
X135937081Y-100649750D01*
X135929849Y-100669962D01*
X135920670Y-100689368D01*
X135909634Y-100707781D01*
X135896846Y-100725024D01*
X135882430Y-100740930D01*
X135866524Y-100755346D01*
X135849281Y-100768134D01*
X135830868Y-100779170D01*
X135811462Y-100788349D01*
X135791250Y-100795581D01*
X135770426Y-100800797D01*
X135749191Y-100803947D01*
X135727750Y-100805000D01*
X135290250Y-100805000D01*
X135268809Y-100803947D01*
X135247574Y-100800797D01*
X135226750Y-100795581D01*
X135206538Y-100788349D01*
X135187132Y-100779170D01*
X135168719Y-100768134D01*
X135151476Y-100755346D01*
X135135570Y-100740930D01*
X135121154Y-100725024D01*
X135108366Y-100707781D01*
X135097330Y-100689368D01*
X135088151Y-100669962D01*
X135080919Y-100649750D01*
X135075703Y-100628926D01*
X135072553Y-100607691D01*
X135071500Y-100586250D01*
X135071500Y-100073750D01*
X135072553Y-100052309D01*
X135075703Y-100031074D01*
X135080919Y-100010250D01*
X135088151Y-99990038D01*
X135097330Y-99970632D01*
X135108366Y-99952219D01*
X135121154Y-99934976D01*
X135135570Y-99919070D01*
X135151476Y-99904654D01*
X135168719Y-99891866D01*
X135187132Y-99880830D01*
X135206538Y-99871651D01*
X135226750Y-99864419D01*
X135247574Y-99859203D01*
X135268809Y-99856053D01*
X135290250Y-99855000D01*
X135727750Y-99855000D01*
X135749191Y-99856053D01*
X135749191Y-99856053D01*
G37*
D15*
X135509000Y-100330000D03*
D14*
G36*
X134174191Y-99856053D02*
G01*
X134195426Y-99859203D01*
X134216250Y-99864419D01*
X134236462Y-99871651D01*
X134255868Y-99880830D01*
X134274281Y-99891866D01*
X134291524Y-99904654D01*
X134307430Y-99919070D01*
X134321846Y-99934976D01*
X134334634Y-99952219D01*
X134345670Y-99970632D01*
X134354849Y-99990038D01*
X134362081Y-100010250D01*
X134367297Y-100031074D01*
X134370447Y-100052309D01*
X134371500Y-100073750D01*
X134371500Y-100586250D01*
X134370447Y-100607691D01*
X134367297Y-100628926D01*
X134362081Y-100649750D01*
X134354849Y-100669962D01*
X134345670Y-100689368D01*
X134334634Y-100707781D01*
X134321846Y-100725024D01*
X134307430Y-100740930D01*
X134291524Y-100755346D01*
X134274281Y-100768134D01*
X134255868Y-100779170D01*
X134236462Y-100788349D01*
X134216250Y-100795581D01*
X134195426Y-100800797D01*
X134174191Y-100803947D01*
X134152750Y-100805000D01*
X133715250Y-100805000D01*
X133693809Y-100803947D01*
X133672574Y-100800797D01*
X133651750Y-100795581D01*
X133631538Y-100788349D01*
X133612132Y-100779170D01*
X133593719Y-100768134D01*
X133576476Y-100755346D01*
X133560570Y-100740930D01*
X133546154Y-100725024D01*
X133533366Y-100707781D01*
X133522330Y-100689368D01*
X133513151Y-100669962D01*
X133505919Y-100649750D01*
X133500703Y-100628926D01*
X133497553Y-100607691D01*
X133496500Y-100586250D01*
X133496500Y-100073750D01*
X133497553Y-100052309D01*
X133500703Y-100031074D01*
X133505919Y-100010250D01*
X133513151Y-99990038D01*
X133522330Y-99970632D01*
X133533366Y-99952219D01*
X133546154Y-99934976D01*
X133560570Y-99919070D01*
X133576476Y-99904654D01*
X133593719Y-99891866D01*
X133612132Y-99880830D01*
X133631538Y-99871651D01*
X133651750Y-99864419D01*
X133672574Y-99859203D01*
X133693809Y-99856053D01*
X133715250Y-99855000D01*
X134152750Y-99855000D01*
X134174191Y-99856053D01*
X134174191Y-99856053D01*
G37*
D15*
X133934000Y-100330000D03*
D16*
X184589420Y-120195340D03*
X112590580Y-120195340D03*
X184589420Y-79194660D03*
X112590580Y-79194660D03*
D17*
X177670000Y-113665000D03*
X179070000Y-113665000D03*
D18*
X168569000Y-104180000D03*
X168569000Y-109180000D03*
X173569000Y-109180000D03*
X173569000Y-104180000D03*
D19*
X153289000Y-96520000D03*
D20*
X160889000Y-96520000D03*
D21*
X155194000Y-110363000D03*
X159194000Y-110363000D03*
D22*
X183769000Y-89281000D03*
X183769000Y-93091000D03*
D14*
G36*
X185343504Y-96002204D02*
G01*
X185367773Y-96005804D01*
X185391571Y-96011765D01*
X185414671Y-96020030D01*
X185436849Y-96030520D01*
X185457893Y-96043133D01*
X185477598Y-96057747D01*
X185495777Y-96074223D01*
X185512253Y-96092402D01*
X185526867Y-96112107D01*
X185539480Y-96133151D01*
X185549970Y-96155329D01*
X185558235Y-96178429D01*
X185564196Y-96202227D01*
X185567796Y-96226496D01*
X185569000Y-96251000D01*
X185569000Y-97551000D01*
X185567796Y-97575504D01*
X185564196Y-97599773D01*
X185558235Y-97623571D01*
X185549970Y-97646671D01*
X185539480Y-97668849D01*
X185526867Y-97689893D01*
X185512253Y-97709598D01*
X185495777Y-97727777D01*
X185477598Y-97744253D01*
X185457893Y-97758867D01*
X185436849Y-97771480D01*
X185414671Y-97781970D01*
X185391571Y-97790235D01*
X185367773Y-97796196D01*
X185343504Y-97799796D01*
X185319000Y-97801000D01*
X182219000Y-97801000D01*
X182194496Y-97799796D01*
X182170227Y-97796196D01*
X182146429Y-97790235D01*
X182123329Y-97781970D01*
X182101151Y-97771480D01*
X182080107Y-97758867D01*
X182060402Y-97744253D01*
X182042223Y-97727777D01*
X182025747Y-97709598D01*
X182011133Y-97689893D01*
X181998520Y-97668849D01*
X181988030Y-97646671D01*
X181979765Y-97623571D01*
X181973804Y-97599773D01*
X181970204Y-97575504D01*
X181969000Y-97551000D01*
X181969000Y-96251000D01*
X181970204Y-96226496D01*
X181973804Y-96202227D01*
X181979765Y-96178429D01*
X181988030Y-96155329D01*
X181998520Y-96133151D01*
X182011133Y-96112107D01*
X182025747Y-96092402D01*
X182042223Y-96074223D01*
X182060402Y-96057747D01*
X182080107Y-96043133D01*
X182101151Y-96030520D01*
X182123329Y-96020030D01*
X182146429Y-96011765D01*
X182170227Y-96005804D01*
X182194496Y-96002204D01*
X182219000Y-96001000D01*
X185319000Y-96001000D01*
X185343504Y-96002204D01*
X185343504Y-96002204D01*
G37*
D23*
X183769000Y-96901000D03*
D22*
X183769000Y-105664000D03*
D14*
G36*
X185343504Y-108575204D02*
G01*
X185367773Y-108578804D01*
X185391571Y-108584765D01*
X185414671Y-108593030D01*
X185436849Y-108603520D01*
X185457893Y-108616133D01*
X185477598Y-108630747D01*
X185495777Y-108647223D01*
X185512253Y-108665402D01*
X185526867Y-108685107D01*
X185539480Y-108706151D01*
X185549970Y-108728329D01*
X185558235Y-108751429D01*
X185564196Y-108775227D01*
X185567796Y-108799496D01*
X185569000Y-108824000D01*
X185569000Y-110124000D01*
X185567796Y-110148504D01*
X185564196Y-110172773D01*
X185558235Y-110196571D01*
X185549970Y-110219671D01*
X185539480Y-110241849D01*
X185526867Y-110262893D01*
X185512253Y-110282598D01*
X185495777Y-110300777D01*
X185477598Y-110317253D01*
X185457893Y-110331867D01*
X185436849Y-110344480D01*
X185414671Y-110354970D01*
X185391571Y-110363235D01*
X185367773Y-110369196D01*
X185343504Y-110372796D01*
X185319000Y-110374000D01*
X182219000Y-110374000D01*
X182194496Y-110372796D01*
X182170227Y-110369196D01*
X182146429Y-110363235D01*
X182123329Y-110354970D01*
X182101151Y-110344480D01*
X182080107Y-110331867D01*
X182060402Y-110317253D01*
X182042223Y-110300777D01*
X182025747Y-110282598D01*
X182011133Y-110262893D01*
X181998520Y-110241849D01*
X181988030Y-110219671D01*
X181979765Y-110196571D01*
X181973804Y-110172773D01*
X181970204Y-110148504D01*
X181969000Y-110124000D01*
X181969000Y-108824000D01*
X181970204Y-108799496D01*
X181973804Y-108775227D01*
X181979765Y-108751429D01*
X181988030Y-108728329D01*
X181998520Y-108706151D01*
X182011133Y-108685107D01*
X182025747Y-108665402D01*
X182042223Y-108647223D01*
X182060402Y-108630747D01*
X182080107Y-108616133D01*
X182101151Y-108603520D01*
X182123329Y-108593030D01*
X182146429Y-108584765D01*
X182170227Y-108578804D01*
X182194496Y-108575204D01*
X182219000Y-108574000D01*
X185319000Y-108574000D01*
X185343504Y-108575204D01*
X185343504Y-108575204D01*
G37*
D23*
X183769000Y-109474000D03*
D22*
X113284000Y-99187000D03*
X113284000Y-95377000D03*
X113284000Y-91567000D03*
D14*
G36*
X114858504Y-86858204D02*
G01*
X114882773Y-86861804D01*
X114906571Y-86867765D01*
X114929671Y-86876030D01*
X114951849Y-86886520D01*
X114972893Y-86899133D01*
X114992598Y-86913747D01*
X115010777Y-86930223D01*
X115027253Y-86948402D01*
X115041867Y-86968107D01*
X115054480Y-86989151D01*
X115064970Y-87011329D01*
X115073235Y-87034429D01*
X115079196Y-87058227D01*
X115082796Y-87082496D01*
X115084000Y-87107000D01*
X115084000Y-88407000D01*
X115082796Y-88431504D01*
X115079196Y-88455773D01*
X115073235Y-88479571D01*
X115064970Y-88502671D01*
X115054480Y-88524849D01*
X115041867Y-88545893D01*
X115027253Y-88565598D01*
X115010777Y-88583777D01*
X114992598Y-88600253D01*
X114972893Y-88614867D01*
X114951849Y-88627480D01*
X114929671Y-88637970D01*
X114906571Y-88646235D01*
X114882773Y-88652196D01*
X114858504Y-88655796D01*
X114834000Y-88657000D01*
X111734000Y-88657000D01*
X111709496Y-88655796D01*
X111685227Y-88652196D01*
X111661429Y-88646235D01*
X111638329Y-88637970D01*
X111616151Y-88627480D01*
X111595107Y-88614867D01*
X111575402Y-88600253D01*
X111557223Y-88583777D01*
X111540747Y-88565598D01*
X111526133Y-88545893D01*
X111513520Y-88524849D01*
X111503030Y-88502671D01*
X111494765Y-88479571D01*
X111488804Y-88455773D01*
X111485204Y-88431504D01*
X111484000Y-88407000D01*
X111484000Y-87107000D01*
X111485204Y-87082496D01*
X111488804Y-87058227D01*
X111494765Y-87034429D01*
X111503030Y-87011329D01*
X111513520Y-86989151D01*
X111526133Y-86968107D01*
X111540747Y-86948402D01*
X111557223Y-86930223D01*
X111575402Y-86913747D01*
X111595107Y-86899133D01*
X111616151Y-86886520D01*
X111638329Y-86876030D01*
X111661429Y-86867765D01*
X111685227Y-86861804D01*
X111709496Y-86858204D01*
X111734000Y-86857000D01*
X114834000Y-86857000D01*
X114858504Y-86858204D01*
X114858504Y-86858204D01*
G37*
D23*
X113284000Y-87757000D03*
D14*
G36*
X121003142Y-112416674D02*
G01*
X121026803Y-112420184D01*
X121050007Y-112425996D01*
X121072529Y-112434054D01*
X121094153Y-112444282D01*
X121114670Y-112456579D01*
X121133883Y-112470829D01*
X121151607Y-112486893D01*
X121167671Y-112504617D01*
X121181921Y-112523830D01*
X121194218Y-112544347D01*
X121204446Y-112565971D01*
X121212504Y-112588493D01*
X121218316Y-112611697D01*
X121221826Y-112635358D01*
X121223000Y-112659250D01*
X121223000Y-113146750D01*
X121221826Y-113170642D01*
X121218316Y-113194303D01*
X121212504Y-113217507D01*
X121204446Y-113240029D01*
X121194218Y-113261653D01*
X121181921Y-113282170D01*
X121167671Y-113301383D01*
X121151607Y-113319107D01*
X121133883Y-113335171D01*
X121114670Y-113349421D01*
X121094153Y-113361718D01*
X121072529Y-113371946D01*
X121050007Y-113380004D01*
X121026803Y-113385816D01*
X121003142Y-113389326D01*
X120979250Y-113390500D01*
X120066750Y-113390500D01*
X120042858Y-113389326D01*
X120019197Y-113385816D01*
X119995993Y-113380004D01*
X119973471Y-113371946D01*
X119951847Y-113361718D01*
X119931330Y-113349421D01*
X119912117Y-113335171D01*
X119894393Y-113319107D01*
X119878329Y-113301383D01*
X119864079Y-113282170D01*
X119851782Y-113261653D01*
X119841554Y-113240029D01*
X119833496Y-113217507D01*
X119827684Y-113194303D01*
X119824174Y-113170642D01*
X119823000Y-113146750D01*
X119823000Y-112659250D01*
X119824174Y-112635358D01*
X119827684Y-112611697D01*
X119833496Y-112588493D01*
X119841554Y-112565971D01*
X119851782Y-112544347D01*
X119864079Y-112523830D01*
X119878329Y-112504617D01*
X119894393Y-112486893D01*
X119912117Y-112470829D01*
X119931330Y-112456579D01*
X119951847Y-112444282D01*
X119973471Y-112434054D01*
X119995993Y-112425996D01*
X120019197Y-112420184D01*
X120042858Y-112416674D01*
X120066750Y-112415500D01*
X120979250Y-112415500D01*
X121003142Y-112416674D01*
X121003142Y-112416674D01*
G37*
D24*
X120523000Y-112903000D03*
D14*
G36*
X121003142Y-110541674D02*
G01*
X121026803Y-110545184D01*
X121050007Y-110550996D01*
X121072529Y-110559054D01*
X121094153Y-110569282D01*
X121114670Y-110581579D01*
X121133883Y-110595829D01*
X121151607Y-110611893D01*
X121167671Y-110629617D01*
X121181921Y-110648830D01*
X121194218Y-110669347D01*
X121204446Y-110690971D01*
X121212504Y-110713493D01*
X121218316Y-110736697D01*
X121221826Y-110760358D01*
X121223000Y-110784250D01*
X121223000Y-111271750D01*
X121221826Y-111295642D01*
X121218316Y-111319303D01*
X121212504Y-111342507D01*
X121204446Y-111365029D01*
X121194218Y-111386653D01*
X121181921Y-111407170D01*
X121167671Y-111426383D01*
X121151607Y-111444107D01*
X121133883Y-111460171D01*
X121114670Y-111474421D01*
X121094153Y-111486718D01*
X121072529Y-111496946D01*
X121050007Y-111505004D01*
X121026803Y-111510816D01*
X121003142Y-111514326D01*
X120979250Y-111515500D01*
X120066750Y-111515500D01*
X120042858Y-111514326D01*
X120019197Y-111510816D01*
X119995993Y-111505004D01*
X119973471Y-111496946D01*
X119951847Y-111486718D01*
X119931330Y-111474421D01*
X119912117Y-111460171D01*
X119894393Y-111444107D01*
X119878329Y-111426383D01*
X119864079Y-111407170D01*
X119851782Y-111386653D01*
X119841554Y-111365029D01*
X119833496Y-111342507D01*
X119827684Y-111319303D01*
X119824174Y-111295642D01*
X119823000Y-111271750D01*
X119823000Y-110784250D01*
X119824174Y-110760358D01*
X119827684Y-110736697D01*
X119833496Y-110713493D01*
X119841554Y-110690971D01*
X119851782Y-110669347D01*
X119864079Y-110648830D01*
X119878329Y-110629617D01*
X119894393Y-110611893D01*
X119912117Y-110595829D01*
X119931330Y-110581579D01*
X119951847Y-110569282D01*
X119973471Y-110559054D01*
X119995993Y-110550996D01*
X120019197Y-110545184D01*
X120042858Y-110541674D01*
X120066750Y-110540500D01*
X120979250Y-110540500D01*
X121003142Y-110541674D01*
X121003142Y-110541674D01*
G37*
D24*
X120523000Y-111028000D03*
D14*
G36*
X121003142Y-107209674D02*
G01*
X121026803Y-107213184D01*
X121050007Y-107218996D01*
X121072529Y-107227054D01*
X121094153Y-107237282D01*
X121114670Y-107249579D01*
X121133883Y-107263829D01*
X121151607Y-107279893D01*
X121167671Y-107297617D01*
X121181921Y-107316830D01*
X121194218Y-107337347D01*
X121204446Y-107358971D01*
X121212504Y-107381493D01*
X121218316Y-107404697D01*
X121221826Y-107428358D01*
X121223000Y-107452250D01*
X121223000Y-107939750D01*
X121221826Y-107963642D01*
X121218316Y-107987303D01*
X121212504Y-108010507D01*
X121204446Y-108033029D01*
X121194218Y-108054653D01*
X121181921Y-108075170D01*
X121167671Y-108094383D01*
X121151607Y-108112107D01*
X121133883Y-108128171D01*
X121114670Y-108142421D01*
X121094153Y-108154718D01*
X121072529Y-108164946D01*
X121050007Y-108173004D01*
X121026803Y-108178816D01*
X121003142Y-108182326D01*
X120979250Y-108183500D01*
X120066750Y-108183500D01*
X120042858Y-108182326D01*
X120019197Y-108178816D01*
X119995993Y-108173004D01*
X119973471Y-108164946D01*
X119951847Y-108154718D01*
X119931330Y-108142421D01*
X119912117Y-108128171D01*
X119894393Y-108112107D01*
X119878329Y-108094383D01*
X119864079Y-108075170D01*
X119851782Y-108054653D01*
X119841554Y-108033029D01*
X119833496Y-108010507D01*
X119827684Y-107987303D01*
X119824174Y-107963642D01*
X119823000Y-107939750D01*
X119823000Y-107452250D01*
X119824174Y-107428358D01*
X119827684Y-107404697D01*
X119833496Y-107381493D01*
X119841554Y-107358971D01*
X119851782Y-107337347D01*
X119864079Y-107316830D01*
X119878329Y-107297617D01*
X119894393Y-107279893D01*
X119912117Y-107263829D01*
X119931330Y-107249579D01*
X119951847Y-107237282D01*
X119973471Y-107227054D01*
X119995993Y-107218996D01*
X120019197Y-107213184D01*
X120042858Y-107209674D01*
X120066750Y-107208500D01*
X120979250Y-107208500D01*
X121003142Y-107209674D01*
X121003142Y-107209674D01*
G37*
D24*
X120523000Y-107696000D03*
D14*
G36*
X121003142Y-105334674D02*
G01*
X121026803Y-105338184D01*
X121050007Y-105343996D01*
X121072529Y-105352054D01*
X121094153Y-105362282D01*
X121114670Y-105374579D01*
X121133883Y-105388829D01*
X121151607Y-105404893D01*
X121167671Y-105422617D01*
X121181921Y-105441830D01*
X121194218Y-105462347D01*
X121204446Y-105483971D01*
X121212504Y-105506493D01*
X121218316Y-105529697D01*
X121221826Y-105553358D01*
X121223000Y-105577250D01*
X121223000Y-106064750D01*
X121221826Y-106088642D01*
X121218316Y-106112303D01*
X121212504Y-106135507D01*
X121204446Y-106158029D01*
X121194218Y-106179653D01*
X121181921Y-106200170D01*
X121167671Y-106219383D01*
X121151607Y-106237107D01*
X121133883Y-106253171D01*
X121114670Y-106267421D01*
X121094153Y-106279718D01*
X121072529Y-106289946D01*
X121050007Y-106298004D01*
X121026803Y-106303816D01*
X121003142Y-106307326D01*
X120979250Y-106308500D01*
X120066750Y-106308500D01*
X120042858Y-106307326D01*
X120019197Y-106303816D01*
X119995993Y-106298004D01*
X119973471Y-106289946D01*
X119951847Y-106279718D01*
X119931330Y-106267421D01*
X119912117Y-106253171D01*
X119894393Y-106237107D01*
X119878329Y-106219383D01*
X119864079Y-106200170D01*
X119851782Y-106179653D01*
X119841554Y-106158029D01*
X119833496Y-106135507D01*
X119827684Y-106112303D01*
X119824174Y-106088642D01*
X119823000Y-106064750D01*
X119823000Y-105577250D01*
X119824174Y-105553358D01*
X119827684Y-105529697D01*
X119833496Y-105506493D01*
X119841554Y-105483971D01*
X119851782Y-105462347D01*
X119864079Y-105441830D01*
X119878329Y-105422617D01*
X119894393Y-105404893D01*
X119912117Y-105388829D01*
X119931330Y-105374579D01*
X119951847Y-105362282D01*
X119973471Y-105352054D01*
X119995993Y-105343996D01*
X120019197Y-105338184D01*
X120042858Y-105334674D01*
X120066750Y-105333500D01*
X120979250Y-105333500D01*
X121003142Y-105334674D01*
X121003142Y-105334674D01*
G37*
D24*
X120523000Y-105821000D03*
D14*
G36*
X159932504Y-117454204D02*
G01*
X159956773Y-117457804D01*
X159980571Y-117463765D01*
X160003671Y-117472030D01*
X160025849Y-117482520D01*
X160046893Y-117495133D01*
X160066598Y-117509747D01*
X160084777Y-117526223D01*
X160101253Y-117544402D01*
X160115867Y-117564107D01*
X160128480Y-117585151D01*
X160138970Y-117607329D01*
X160147235Y-117630429D01*
X160153196Y-117654227D01*
X160156796Y-117678496D01*
X160158000Y-117703000D01*
X160158000Y-120803000D01*
X160156796Y-120827504D01*
X160153196Y-120851773D01*
X160147235Y-120875571D01*
X160138970Y-120898671D01*
X160128480Y-120920849D01*
X160115867Y-120941893D01*
X160101253Y-120961598D01*
X160084777Y-120979777D01*
X160066598Y-120996253D01*
X160046893Y-121010867D01*
X160025849Y-121023480D01*
X160003671Y-121033970D01*
X159980571Y-121042235D01*
X159956773Y-121048196D01*
X159932504Y-121051796D01*
X159908000Y-121053000D01*
X158608000Y-121053000D01*
X158583496Y-121051796D01*
X158559227Y-121048196D01*
X158535429Y-121042235D01*
X158512329Y-121033970D01*
X158490151Y-121023480D01*
X158469107Y-121010867D01*
X158449402Y-120996253D01*
X158431223Y-120979777D01*
X158414747Y-120961598D01*
X158400133Y-120941893D01*
X158387520Y-120920849D01*
X158377030Y-120898671D01*
X158368765Y-120875571D01*
X158362804Y-120851773D01*
X158359204Y-120827504D01*
X158358000Y-120803000D01*
X158358000Y-117703000D01*
X158359204Y-117678496D01*
X158362804Y-117654227D01*
X158368765Y-117630429D01*
X158377030Y-117607329D01*
X158387520Y-117585151D01*
X158400133Y-117564107D01*
X158414747Y-117544402D01*
X158431223Y-117526223D01*
X158449402Y-117509747D01*
X158469107Y-117495133D01*
X158490151Y-117482520D01*
X158512329Y-117472030D01*
X158535429Y-117463765D01*
X158559227Y-117457804D01*
X158583496Y-117454204D01*
X158608000Y-117453000D01*
X159908000Y-117453000D01*
X159932504Y-117454204D01*
X159932504Y-117454204D01*
G37*
D23*
X159258000Y-119253000D03*
D25*
X163068000Y-119253000D03*
X166878000Y-119253000D03*
X170688000Y-119253000D03*
X174498000Y-119253000D03*
D14*
G36*
X134174191Y-107476053D02*
G01*
X134195426Y-107479203D01*
X134216250Y-107484419D01*
X134236462Y-107491651D01*
X134255868Y-107500830D01*
X134274281Y-107511866D01*
X134291524Y-107524654D01*
X134307430Y-107539070D01*
X134321846Y-107554976D01*
X134334634Y-107572219D01*
X134345670Y-107590632D01*
X134354849Y-107610038D01*
X134362081Y-107630250D01*
X134367297Y-107651074D01*
X134370447Y-107672309D01*
X134371500Y-107693750D01*
X134371500Y-108206250D01*
X134370447Y-108227691D01*
X134367297Y-108248926D01*
X134362081Y-108269750D01*
X134354849Y-108289962D01*
X134345670Y-108309368D01*
X134334634Y-108327781D01*
X134321846Y-108345024D01*
X134307430Y-108360930D01*
X134291524Y-108375346D01*
X134274281Y-108388134D01*
X134255868Y-108399170D01*
X134236462Y-108408349D01*
X134216250Y-108415581D01*
X134195426Y-108420797D01*
X134174191Y-108423947D01*
X134152750Y-108425000D01*
X133715250Y-108425000D01*
X133693809Y-108423947D01*
X133672574Y-108420797D01*
X133651750Y-108415581D01*
X133631538Y-108408349D01*
X133612132Y-108399170D01*
X133593719Y-108388134D01*
X133576476Y-108375346D01*
X133560570Y-108360930D01*
X133546154Y-108345024D01*
X133533366Y-108327781D01*
X133522330Y-108309368D01*
X133513151Y-108289962D01*
X133505919Y-108269750D01*
X133500703Y-108248926D01*
X133497553Y-108227691D01*
X133496500Y-108206250D01*
X133496500Y-107693750D01*
X133497553Y-107672309D01*
X133500703Y-107651074D01*
X133505919Y-107630250D01*
X133513151Y-107610038D01*
X133522330Y-107590632D01*
X133533366Y-107572219D01*
X133546154Y-107554976D01*
X133560570Y-107539070D01*
X133576476Y-107524654D01*
X133593719Y-107511866D01*
X133612132Y-107500830D01*
X133631538Y-107491651D01*
X133651750Y-107484419D01*
X133672574Y-107479203D01*
X133693809Y-107476053D01*
X133715250Y-107475000D01*
X134152750Y-107475000D01*
X134174191Y-107476053D01*
X134174191Y-107476053D01*
G37*
D15*
X133934000Y-107950000D03*
D14*
G36*
X135749191Y-107476053D02*
G01*
X135770426Y-107479203D01*
X135791250Y-107484419D01*
X135811462Y-107491651D01*
X135830868Y-107500830D01*
X135849281Y-107511866D01*
X135866524Y-107524654D01*
X135882430Y-107539070D01*
X135896846Y-107554976D01*
X135909634Y-107572219D01*
X135920670Y-107590632D01*
X135929849Y-107610038D01*
X135937081Y-107630250D01*
X135942297Y-107651074D01*
X135945447Y-107672309D01*
X135946500Y-107693750D01*
X135946500Y-108206250D01*
X135945447Y-108227691D01*
X135942297Y-108248926D01*
X135937081Y-108269750D01*
X135929849Y-108289962D01*
X135920670Y-108309368D01*
X135909634Y-108327781D01*
X135896846Y-108345024D01*
X135882430Y-108360930D01*
X135866524Y-108375346D01*
X135849281Y-108388134D01*
X135830868Y-108399170D01*
X135811462Y-108408349D01*
X135791250Y-108415581D01*
X135770426Y-108420797D01*
X135749191Y-108423947D01*
X135727750Y-108425000D01*
X135290250Y-108425000D01*
X135268809Y-108423947D01*
X135247574Y-108420797D01*
X135226750Y-108415581D01*
X135206538Y-108408349D01*
X135187132Y-108399170D01*
X135168719Y-108388134D01*
X135151476Y-108375346D01*
X135135570Y-108360930D01*
X135121154Y-108345024D01*
X135108366Y-108327781D01*
X135097330Y-108309368D01*
X135088151Y-108289962D01*
X135080919Y-108269750D01*
X135075703Y-108248926D01*
X135072553Y-108227691D01*
X135071500Y-108206250D01*
X135071500Y-107693750D01*
X135072553Y-107672309D01*
X135075703Y-107651074D01*
X135080919Y-107630250D01*
X135088151Y-107610038D01*
X135097330Y-107590632D01*
X135108366Y-107572219D01*
X135121154Y-107554976D01*
X135135570Y-107539070D01*
X135151476Y-107524654D01*
X135168719Y-107511866D01*
X135187132Y-107500830D01*
X135206538Y-107491651D01*
X135226750Y-107484419D01*
X135247574Y-107479203D01*
X135268809Y-107476053D01*
X135290250Y-107475000D01*
X135727750Y-107475000D01*
X135749191Y-107476053D01*
X135749191Y-107476053D01*
G37*
D15*
X135509000Y-107950000D03*
D14*
G36*
X135749191Y-92236053D02*
G01*
X135770426Y-92239203D01*
X135791250Y-92244419D01*
X135811462Y-92251651D01*
X135830868Y-92260830D01*
X135849281Y-92271866D01*
X135866524Y-92284654D01*
X135882430Y-92299070D01*
X135896846Y-92314976D01*
X135909634Y-92332219D01*
X135920670Y-92350632D01*
X135929849Y-92370038D01*
X135937081Y-92390250D01*
X135942297Y-92411074D01*
X135945447Y-92432309D01*
X135946500Y-92453750D01*
X135946500Y-92966250D01*
X135945447Y-92987691D01*
X135942297Y-93008926D01*
X135937081Y-93029750D01*
X135929849Y-93049962D01*
X135920670Y-93069368D01*
X135909634Y-93087781D01*
X135896846Y-93105024D01*
X135882430Y-93120930D01*
X135866524Y-93135346D01*
X135849281Y-93148134D01*
X135830868Y-93159170D01*
X135811462Y-93168349D01*
X135791250Y-93175581D01*
X135770426Y-93180797D01*
X135749191Y-93183947D01*
X135727750Y-93185000D01*
X135290250Y-93185000D01*
X135268809Y-93183947D01*
X135247574Y-93180797D01*
X135226750Y-93175581D01*
X135206538Y-93168349D01*
X135187132Y-93159170D01*
X135168719Y-93148134D01*
X135151476Y-93135346D01*
X135135570Y-93120930D01*
X135121154Y-93105024D01*
X135108366Y-93087781D01*
X135097330Y-93069368D01*
X135088151Y-93049962D01*
X135080919Y-93029750D01*
X135075703Y-93008926D01*
X135072553Y-92987691D01*
X135071500Y-92966250D01*
X135071500Y-92453750D01*
X135072553Y-92432309D01*
X135075703Y-92411074D01*
X135080919Y-92390250D01*
X135088151Y-92370038D01*
X135097330Y-92350632D01*
X135108366Y-92332219D01*
X135121154Y-92314976D01*
X135135570Y-92299070D01*
X135151476Y-92284654D01*
X135168719Y-92271866D01*
X135187132Y-92260830D01*
X135206538Y-92251651D01*
X135226750Y-92244419D01*
X135247574Y-92239203D01*
X135268809Y-92236053D01*
X135290250Y-92235000D01*
X135727750Y-92235000D01*
X135749191Y-92236053D01*
X135749191Y-92236053D01*
G37*
D15*
X135509000Y-92710000D03*
D14*
G36*
X134174191Y-92236053D02*
G01*
X134195426Y-92239203D01*
X134216250Y-92244419D01*
X134236462Y-92251651D01*
X134255868Y-92260830D01*
X134274281Y-92271866D01*
X134291524Y-92284654D01*
X134307430Y-92299070D01*
X134321846Y-92314976D01*
X134334634Y-92332219D01*
X134345670Y-92350632D01*
X134354849Y-92370038D01*
X134362081Y-92390250D01*
X134367297Y-92411074D01*
X134370447Y-92432309D01*
X134371500Y-92453750D01*
X134371500Y-92966250D01*
X134370447Y-92987691D01*
X134367297Y-93008926D01*
X134362081Y-93029750D01*
X134354849Y-93049962D01*
X134345670Y-93069368D01*
X134334634Y-93087781D01*
X134321846Y-93105024D01*
X134307430Y-93120930D01*
X134291524Y-93135346D01*
X134274281Y-93148134D01*
X134255868Y-93159170D01*
X134236462Y-93168349D01*
X134216250Y-93175581D01*
X134195426Y-93180797D01*
X134174191Y-93183947D01*
X134152750Y-93185000D01*
X133715250Y-93185000D01*
X133693809Y-93183947D01*
X133672574Y-93180797D01*
X133651750Y-93175581D01*
X133631538Y-93168349D01*
X133612132Y-93159170D01*
X133593719Y-93148134D01*
X133576476Y-93135346D01*
X133560570Y-93120930D01*
X133546154Y-93105024D01*
X133533366Y-93087781D01*
X133522330Y-93069368D01*
X133513151Y-93049962D01*
X133505919Y-93029750D01*
X133500703Y-93008926D01*
X133497553Y-92987691D01*
X133496500Y-92966250D01*
X133496500Y-92453750D01*
X133497553Y-92432309D01*
X133500703Y-92411074D01*
X133505919Y-92390250D01*
X133513151Y-92370038D01*
X133522330Y-92350632D01*
X133533366Y-92332219D01*
X133546154Y-92314976D01*
X133560570Y-92299070D01*
X133576476Y-92284654D01*
X133593719Y-92271866D01*
X133612132Y-92260830D01*
X133631538Y-92251651D01*
X133651750Y-92244419D01*
X133672574Y-92239203D01*
X133693809Y-92236053D01*
X133715250Y-92235000D01*
X134152750Y-92235000D01*
X134174191Y-92236053D01*
X134174191Y-92236053D01*
G37*
D15*
X133934000Y-92710000D03*
D26*
X123190000Y-88011000D03*
D19*
X123190000Y-85471000D03*
D26*
X123190000Y-90551000D03*
X123190000Y-93091000D03*
X123190000Y-95631000D03*
X123190000Y-98171000D03*
X123190000Y-100711000D03*
X123190000Y-103251000D03*
X146050000Y-103251000D03*
X146050000Y-100711000D03*
X146050000Y-98171000D03*
X146050000Y-95631000D03*
X146050000Y-93091000D03*
X146050000Y-90551000D03*
X146050000Y-88011000D03*
X146050000Y-85471000D03*
D27*
X116459000Y-111887000D03*
D28*
X116459000Y-109347000D03*
X116459000Y-106807000D03*
D29*
X133096000Y-110236000D03*
X150320000Y-113160000D03*
X156845000Y-96520000D03*
X155067000Y-103505000D03*
X137922000Y-104267000D03*
X137922000Y-107950000D03*
D30*
X118110000Y-111887000D02*
X119126000Y-112903000D01*
X116459000Y-111887000D02*
X118110000Y-111887000D01*
X163068000Y-118353000D02*
X163068000Y-119253000D01*
X163068000Y-113887000D02*
X163068000Y-117203000D01*
X159544000Y-110363000D02*
X163068000Y-113887000D01*
X163068000Y-117203000D02*
X163068000Y-119253000D01*
X159194000Y-110363000D02*
X159544000Y-110363000D01*
X155161000Y-106680000D02*
X158844000Y-110363000D01*
X132207000Y-106680000D02*
X155161000Y-106680000D01*
X158844000Y-110363000D02*
X159194000Y-110363000D01*
X125984000Y-112903000D02*
X132207000Y-106680000D01*
X119126000Y-112903000D02*
X125984000Y-112903000D01*
X116059000Y-111887000D02*
X116459000Y-111887000D01*
X110363000Y-97398000D02*
X110363000Y-106191000D01*
X110363000Y-106191000D02*
X116059000Y-111887000D01*
X112384000Y-95377000D02*
X110363000Y-97398000D01*
X113284000Y-95377000D02*
X112384000Y-95377000D01*
X118872000Y-109347000D02*
X120523000Y-107696000D01*
X116459000Y-109347000D02*
X118872000Y-109347000D01*
X118842000Y-109347000D02*
X120523000Y-111028000D01*
D31*
X116459000Y-109347000D02*
X118842000Y-109347000D01*
X133934000Y-109398000D02*
X133096000Y-110236000D01*
X133934000Y-107950000D02*
X133934000Y-109398000D01*
X176490000Y-109180000D02*
X173569000Y-109180000D01*
X179070000Y-111760000D02*
X176490000Y-109180000D01*
X179070000Y-113665000D02*
X179070000Y-111760000D01*
D30*
X151330000Y-114170000D02*
X150320000Y-113160000D01*
X151330000Y-115830000D02*
X151330000Y-114170000D01*
D31*
X146050000Y-104301000D02*
X146050000Y-103251000D01*
X144530000Y-105821000D02*
X146050000Y-104301000D01*
X120523000Y-105821000D02*
X144530000Y-105821000D01*
D30*
X181719000Y-89281000D02*
X183769000Y-89281000D01*
X113284000Y-91567000D02*
X114508998Y-91567000D01*
X117348000Y-102646000D02*
X117348000Y-91567000D01*
X120523000Y-105821000D02*
X117348000Y-102646000D01*
X181469000Y-89281000D02*
X183769000Y-89281000D01*
X119634000Y-89281000D02*
X181469000Y-89281000D01*
X117348000Y-91567000D02*
X119634000Y-89281000D01*
X113284000Y-91567000D02*
X117348000Y-91567000D01*
X119223000Y-105821000D02*
X120523000Y-105821000D01*
X118237000Y-106807000D02*
X119223000Y-105821000D01*
X116459000Y-106807000D02*
X118237000Y-106807000D01*
D31*
X145034000Y-115316000D02*
X145034000Y-118110000D01*
D30*
X155194000Y-115189000D02*
X156210000Y-116205000D01*
X155194000Y-110363000D02*
X155194000Y-115189000D01*
X156210000Y-116205000D02*
X159258000Y-119253000D01*
X155835000Y-115830000D02*
X156210000Y-116205000D01*
X158115000Y-118110000D02*
X159258000Y-119253000D01*
X151330000Y-118110000D02*
X158115000Y-118110000D01*
X151330000Y-118110000D02*
X145030000Y-118110000D01*
D31*
X170688000Y-119253000D02*
X170688000Y-118353000D01*
X153416000Y-93091000D02*
X156845000Y-96520000D01*
X146050000Y-93091000D02*
X153416000Y-93091000D01*
X155067000Y-103505000D02*
X157226000Y-103505000D01*
X170688000Y-116967000D02*
X170688000Y-119253000D01*
X157226000Y-103505000D02*
X170688000Y-116967000D01*
X174560000Y-119191000D02*
X174498000Y-119253000D01*
X174498000Y-118745000D02*
X174498000Y-119253000D01*
X177670000Y-115573000D02*
X174498000Y-118745000D01*
X177670000Y-113665000D02*
X177670000Y-115573000D01*
X123190000Y-95631000D02*
X130810000Y-95631000D01*
X130810000Y-95631000D02*
X135509000Y-100330000D01*
X158126000Y-101981000D02*
X174498000Y-118353000D01*
X137160000Y-101981000D02*
X158126000Y-101981000D01*
X174498000Y-118353000D02*
X174498000Y-119253000D01*
X135509000Y-100330000D02*
X137160000Y-101981000D01*
X168569000Y-104180000D02*
X173569000Y-104180000D01*
X163830000Y-99441000D02*
X167469001Y-103080001D01*
X144399000Y-98933000D02*
X144907000Y-99441000D01*
X144399000Y-96032000D02*
X144399000Y-98933000D01*
X167469001Y-103080001D02*
X168569000Y-104180000D01*
X146050000Y-95631000D02*
X144800000Y-95631000D01*
X144800000Y-95631000D02*
X144399000Y-96032000D01*
X144907000Y-99441000D02*
X163830000Y-99441000D01*
X182285000Y-104180000D02*
X173569000Y-104180000D01*
X183769000Y-105664000D02*
X182285000Y-104180000D01*
X147300000Y-98171000D02*
X146050000Y-98171000D01*
X176639000Y-98171000D02*
X147300000Y-98171000D01*
X181719000Y-93091000D02*
X176639000Y-98171000D01*
X183769000Y-93091000D02*
X181719000Y-93091000D01*
X150024990Y-94505990D02*
X152039000Y-96520000D01*
X137304990Y-94505990D02*
X150024990Y-94505990D01*
X152039000Y-96520000D02*
X153289000Y-96520000D01*
X135509000Y-92710000D02*
X137304990Y-94505990D01*
X126946000Y-104267000D02*
X137922000Y-104267000D01*
X123390000Y-100711000D02*
X126946000Y-104267000D01*
X123190000Y-100711000D02*
X123390000Y-100711000D01*
X150834000Y-120390000D02*
X151334000Y-120390000D01*
X135509000Y-107950000D02*
X137922000Y-107950000D01*
X136650000Y-122650000D02*
X150010000Y-122650000D01*
X150010000Y-122650000D02*
X151330000Y-121330000D01*
X135509000Y-121509000D02*
X136650000Y-122650000D01*
X151330000Y-121330000D02*
X151330000Y-120390000D01*
X135509000Y-107950000D02*
X135509000Y-121509000D01*
X133553000Y-93091000D02*
X133934000Y-92710000D01*
X123190000Y-93091000D02*
X133553000Y-93091000D01*
X123190000Y-98171000D02*
X131775000Y-98171000D01*
X131775000Y-98171000D02*
X133934000Y-100330000D01*
D32*
G36*
X148450189Y-109644376D02*
G01*
X148613850Y-109694022D01*
X148764672Y-109774638D01*
X148896870Y-109883130D01*
X149005362Y-110015328D01*
X149085978Y-110166150D01*
X149135624Y-110329811D01*
X149153000Y-110506234D01*
X149153000Y-121223766D01*
X149135624Y-121400189D01*
X149085978Y-121563850D01*
X149005362Y-121714672D01*
X148896870Y-121846870D01*
X148844316Y-121890000D01*
X136964802Y-121890000D01*
X136269000Y-121194199D01*
X136269000Y-109820865D01*
X136325328Y-109774638D01*
X136476150Y-109694022D01*
X136639811Y-109644376D01*
X136816234Y-109627000D01*
X148273766Y-109627000D01*
X148450189Y-109644376D01*
X148450189Y-109644376D01*
G37*
X148450189Y-109644376D02*
X148613850Y-109694022D01*
X148764672Y-109774638D01*
X148896870Y-109883130D01*
X149005362Y-110015328D01*
X149085978Y-110166150D01*
X149135624Y-110329811D01*
X149153000Y-110506234D01*
X149153000Y-121223766D01*
X149135624Y-121400189D01*
X149085978Y-121563850D01*
X149005362Y-121714672D01*
X148896870Y-121846870D01*
X148844316Y-121890000D01*
X136964802Y-121890000D01*
X136269000Y-121194199D01*
X136269000Y-109820865D01*
X136325328Y-109774638D01*
X136476150Y-109694022D01*
X136639811Y-109644376D01*
X136816234Y-109627000D01*
X148273766Y-109627000D01*
X148450189Y-109644376D01*
M02*
