G04 #@! TF.GenerationSoftware,KiCad,Pcbnew,(5.1.2-1)-1*
G04 #@! TF.CreationDate,2019-07-26T11:47:48+01:00*
G04 #@! TF.ProjectId,tool-lockers-pcb,746f6f6c-2d6c-46f6-936b-6572732d7063,rev?*
G04 #@! TF.SameCoordinates,Original*
G04 #@! TF.FileFunction,Legend,Top*
G04 #@! TF.FilePolarity,Positive*
%FSLAX46Y46*%
G04 Gerber Fmt 4.6, Leading zero omitted, Abs format (unit mm)*
G04 Created by KiCad (PCBNEW (5.1.2-1)-1) date 2019-07-26 11:47:48*
%MOMM*%
%LPD*%
G04 APERTURE LIST*
%ADD10C,0.150000*%
%ADD11C,0.120000*%
G04 APERTURE END LIST*
D10*
X172267857Y-115149380D02*
X172839285Y-115149380D01*
X172553571Y-116149380D02*
X172553571Y-115149380D01*
X173363095Y-115149380D02*
X173553571Y-115149380D01*
X173648809Y-115197000D01*
X173744047Y-115292238D01*
X173791666Y-115482714D01*
X173791666Y-115816047D01*
X173744047Y-116006523D01*
X173648809Y-116101761D01*
X173553571Y-116149380D01*
X173363095Y-116149380D01*
X173267857Y-116101761D01*
X173172619Y-116006523D01*
X173125000Y-115816047D01*
X173125000Y-115482714D01*
X173172619Y-115292238D01*
X173267857Y-115197000D01*
X173363095Y-115149380D01*
X174220238Y-115149380D02*
X174220238Y-115958904D01*
X174267857Y-116054142D01*
X174315476Y-116101761D01*
X174410714Y-116149380D01*
X174601190Y-116149380D01*
X174696428Y-116101761D01*
X174744047Y-116054142D01*
X174791666Y-115958904D01*
X174791666Y-115149380D01*
X175839285Y-116054142D02*
X175791666Y-116101761D01*
X175648809Y-116149380D01*
X175553571Y-116149380D01*
X175410714Y-116101761D01*
X175315476Y-116006523D01*
X175267857Y-115911285D01*
X175220238Y-115720809D01*
X175220238Y-115577952D01*
X175267857Y-115387476D01*
X175315476Y-115292238D01*
X175410714Y-115197000D01*
X175553571Y-115149380D01*
X175648809Y-115149380D01*
X175791666Y-115197000D01*
X175839285Y-115244619D01*
X176267857Y-116149380D02*
X176267857Y-115149380D01*
X176267857Y-115625571D02*
X176839285Y-115625571D01*
X176839285Y-116149380D02*
X176839285Y-115149380D01*
X167648095Y-116022380D02*
X167648095Y-115022380D01*
X168029047Y-115022380D01*
X168124285Y-115070000D01*
X168171904Y-115117619D01*
X168219523Y-115212857D01*
X168219523Y-115355714D01*
X168171904Y-115450952D01*
X168124285Y-115498571D01*
X168029047Y-115546190D01*
X167648095Y-115546190D01*
X168838571Y-115022380D02*
X169029047Y-115022380D01*
X169124285Y-115070000D01*
X169219523Y-115165238D01*
X169267142Y-115355714D01*
X169267142Y-115689047D01*
X169219523Y-115879523D01*
X169124285Y-115974761D01*
X169029047Y-116022380D01*
X168838571Y-116022380D01*
X168743333Y-115974761D01*
X168648095Y-115879523D01*
X168600476Y-115689047D01*
X168600476Y-115355714D01*
X168648095Y-115165238D01*
X168743333Y-115070000D01*
X168838571Y-115022380D01*
X169648095Y-115974761D02*
X169790952Y-116022380D01*
X170029047Y-116022380D01*
X170124285Y-115974761D01*
X170171904Y-115927142D01*
X170219523Y-115831904D01*
X170219523Y-115736666D01*
X170171904Y-115641428D01*
X170124285Y-115593809D01*
X170029047Y-115546190D01*
X169838571Y-115498571D01*
X169743333Y-115450952D01*
X169695714Y-115403333D01*
X169648095Y-115308095D01*
X169648095Y-115212857D01*
X169695714Y-115117619D01*
X169743333Y-115070000D01*
X169838571Y-115022380D01*
X170076666Y-115022380D01*
X170219523Y-115070000D01*
X160075714Y-116022380D02*
X159599523Y-116022380D01*
X159599523Y-115022380D01*
X160599523Y-115022380D02*
X160790000Y-115022380D01*
X160885238Y-115070000D01*
X160980476Y-115165238D01*
X161028095Y-115355714D01*
X161028095Y-115689047D01*
X160980476Y-115879523D01*
X160885238Y-115974761D01*
X160790000Y-116022380D01*
X160599523Y-116022380D01*
X160504285Y-115974761D01*
X160409047Y-115879523D01*
X160361428Y-115689047D01*
X160361428Y-115355714D01*
X160409047Y-115165238D01*
X160504285Y-115070000D01*
X160599523Y-115022380D01*
X162028095Y-115927142D02*
X161980476Y-115974761D01*
X161837619Y-116022380D01*
X161742380Y-116022380D01*
X161599523Y-115974761D01*
X161504285Y-115879523D01*
X161456666Y-115784285D01*
X161409047Y-115593809D01*
X161409047Y-115450952D01*
X161456666Y-115260476D01*
X161504285Y-115165238D01*
X161599523Y-115070000D01*
X161742380Y-115022380D01*
X161837619Y-115022380D01*
X161980476Y-115070000D01*
X162028095Y-115117619D01*
X162456666Y-116022380D02*
X162456666Y-115022380D01*
X163028095Y-116022380D02*
X162599523Y-115450952D01*
X163028095Y-115022380D02*
X162456666Y-115593809D01*
X178147404Y-93543380D02*
X178147404Y-92543380D01*
X178385500Y-92543380D01*
X178528357Y-92591000D01*
X178623595Y-92686238D01*
X178671214Y-92781476D01*
X178718833Y-92971952D01*
X178718833Y-93114809D01*
X178671214Y-93305285D01*
X178623595Y-93400523D01*
X178528357Y-93495761D01*
X178385500Y-93543380D01*
X178147404Y-93543380D01*
X179099785Y-93257666D02*
X179575976Y-93257666D01*
X179004547Y-93543380D02*
X179337880Y-92543380D01*
X179671214Y-93543380D01*
X179861690Y-92543380D02*
X180433119Y-92543380D01*
X180147404Y-93543380D02*
X180147404Y-92543380D01*
X180718833Y-93257666D02*
X181195023Y-93257666D01*
X180623595Y-93543380D02*
X180956928Y-92543380D01*
X181290261Y-93543380D01*
X180290261Y-88733380D02*
X179814071Y-88733380D01*
X179766452Y-89209571D01*
X179814071Y-89161952D01*
X179909309Y-89114333D01*
X180147404Y-89114333D01*
X180242642Y-89161952D01*
X180290261Y-89209571D01*
X180337880Y-89304809D01*
X180337880Y-89542904D01*
X180290261Y-89638142D01*
X180242642Y-89685761D01*
X180147404Y-89733380D01*
X179909309Y-89733380D01*
X179814071Y-89685761D01*
X179766452Y-89638142D01*
X180623595Y-88733380D02*
X180956928Y-89733380D01*
X181290261Y-88733380D01*
X179099785Y-96274000D02*
X179004547Y-96226380D01*
X178861690Y-96226380D01*
X178718833Y-96274000D01*
X178623595Y-96369238D01*
X178575976Y-96464476D01*
X178528357Y-96654952D01*
X178528357Y-96797809D01*
X178575976Y-96988285D01*
X178623595Y-97083523D01*
X178718833Y-97178761D01*
X178861690Y-97226380D01*
X178956928Y-97226380D01*
X179099785Y-97178761D01*
X179147404Y-97131142D01*
X179147404Y-96797809D01*
X178956928Y-96797809D01*
X179575976Y-97226380D02*
X179575976Y-96226380D01*
X180147404Y-97226380D01*
X180147404Y-96226380D01*
X180623595Y-97226380D02*
X180623595Y-96226380D01*
X180861690Y-96226380D01*
X181004547Y-96274000D01*
X181099785Y-96369238D01*
X181147404Y-96464476D01*
X181195023Y-96654952D01*
X181195023Y-96797809D01*
X181147404Y-96988285D01*
X181099785Y-97083523D01*
X181004547Y-97178761D01*
X180861690Y-97226380D01*
X180623595Y-97226380D01*
X116477023Y-99512380D02*
X116143690Y-99036190D01*
X115905595Y-99512380D02*
X115905595Y-98512380D01*
X116286547Y-98512380D01*
X116381785Y-98560000D01*
X116429404Y-98607619D01*
X116477023Y-98702857D01*
X116477023Y-98845714D01*
X116429404Y-98940952D01*
X116381785Y-98988571D01*
X116286547Y-99036190D01*
X115905595Y-99036190D01*
X116905595Y-98988571D02*
X117238928Y-98988571D01*
X117381785Y-99512380D02*
X116905595Y-99512380D01*
X116905595Y-98512380D01*
X117381785Y-98512380D01*
X118286547Y-99512380D02*
X117810357Y-99512380D01*
X117810357Y-98512380D01*
X116429404Y-95956380D02*
X115857976Y-95956380D01*
X116143690Y-95956380D02*
X116143690Y-94956380D01*
X116048452Y-95099238D01*
X115953214Y-95194476D01*
X115857976Y-95242095D01*
X116810357Y-95051619D02*
X116857976Y-95004000D01*
X116953214Y-94956380D01*
X117191309Y-94956380D01*
X117286547Y-95004000D01*
X117334166Y-95051619D01*
X117381785Y-95146857D01*
X117381785Y-95242095D01*
X117334166Y-95384952D01*
X116762738Y-95956380D01*
X117381785Y-95956380D01*
X117667500Y-94956380D02*
X118000833Y-95956380D01*
X118334166Y-94956380D01*
X116381785Y-90892380D02*
X115905595Y-90892380D01*
X115857976Y-91368571D01*
X115905595Y-91320952D01*
X116000833Y-91273333D01*
X116238928Y-91273333D01*
X116334166Y-91320952D01*
X116381785Y-91368571D01*
X116429404Y-91463809D01*
X116429404Y-91701904D01*
X116381785Y-91797142D01*
X116334166Y-91844761D01*
X116238928Y-91892380D01*
X116000833Y-91892380D01*
X115905595Y-91844761D01*
X115857976Y-91797142D01*
X116715119Y-90892380D02*
X117048452Y-91892380D01*
X117381785Y-90892380D01*
X116429404Y-87384000D02*
X116334166Y-87336380D01*
X116191309Y-87336380D01*
X116048452Y-87384000D01*
X115953214Y-87479238D01*
X115905595Y-87574476D01*
X115857976Y-87764952D01*
X115857976Y-87907809D01*
X115905595Y-88098285D01*
X115953214Y-88193523D01*
X116048452Y-88288761D01*
X116191309Y-88336380D01*
X116286547Y-88336380D01*
X116429404Y-88288761D01*
X116477023Y-88241142D01*
X116477023Y-87907809D01*
X116286547Y-87907809D01*
X116905595Y-88336380D02*
X116905595Y-87336380D01*
X117477023Y-88336380D01*
X117477023Y-87336380D01*
X117953214Y-88336380D02*
X117953214Y-87336380D01*
X118191309Y-87336380D01*
X118334166Y-87384000D01*
X118429404Y-87479238D01*
X118477023Y-87574476D01*
X118524642Y-87764952D01*
X118524642Y-87907809D01*
X118477023Y-88098285D01*
X118429404Y-88193523D01*
X118334166Y-88288761D01*
X118191309Y-88336380D01*
X117953214Y-88336380D01*
D11*
X149600000Y-114930000D02*
X150700000Y-114930000D01*
X149600000Y-114660000D02*
X149600000Y-114930000D01*
X148100000Y-114660000D02*
X149600000Y-114660000D01*
X149600000Y-121290000D02*
X152430000Y-121290000D01*
X149600000Y-121560000D02*
X149600000Y-121290000D01*
X148100000Y-121560000D02*
X149600000Y-121560000D01*
X125630000Y-94290000D02*
X126960000Y-94290000D01*
X125630000Y-95620000D02*
X125630000Y-94290000D01*
X125630000Y-96890000D02*
X128290000Y-96890000D01*
X128290000Y-96890000D02*
X128290000Y-99490000D01*
X125630000Y-96890000D02*
X125630000Y-99490000D01*
X125630000Y-99490000D02*
X128290000Y-99490000D01*
X134884279Y-100840000D02*
X134558721Y-100840000D01*
X134884279Y-99820000D02*
X134558721Y-99820000D01*
D10*
X168918000Y-85209000D02*
X169918000Y-85209000D01*
X169918000Y-85209000D02*
X169918000Y-87209000D01*
X169918000Y-87209000D02*
X168918000Y-87209000D01*
X168918000Y-87209000D02*
X168918000Y-85209000D01*
X168918000Y-88209000D02*
X169918000Y-88209000D01*
X169918000Y-88209000D02*
X169918000Y-90209000D01*
X169918000Y-90209000D02*
X168918000Y-90209000D01*
X168918000Y-90209000D02*
X168918000Y-88209000D01*
X170918000Y-85209000D02*
X170918000Y-90209000D01*
X170918000Y-90209000D02*
X171918000Y-90209000D01*
X171918000Y-90209000D02*
X171918000Y-88209000D01*
X171918000Y-88209000D02*
X173418000Y-88209000D01*
X170918000Y-85209000D02*
X171918000Y-85209000D01*
X171918000Y-85209000D02*
X171918000Y-87209000D01*
X171918000Y-87209000D02*
X173418000Y-87209000D01*
X167918000Y-85209000D02*
X167918000Y-90209000D01*
X167918000Y-90209000D02*
X166918000Y-90209000D01*
X166918000Y-90209000D02*
X166918000Y-88209000D01*
X166918000Y-88209000D02*
X165418000Y-88209000D01*
X167918000Y-85209000D02*
X166918000Y-85209000D01*
X166918000Y-85209000D02*
X166918000Y-87209000D01*
X166918000Y-87209000D02*
X165418000Y-87209000D01*
X166918000Y-84209000D02*
X167918000Y-84209000D01*
X167918000Y-84209000D02*
X167918000Y-79209000D01*
X167918000Y-79209000D02*
X166918000Y-79209000D01*
X166918000Y-79209000D02*
X166918000Y-81209000D01*
X166918000Y-81209000D02*
X165418000Y-81209000D01*
X166918000Y-84209000D02*
X166918000Y-82209000D01*
X166918000Y-82209000D02*
X165418000Y-82209000D01*
X170918000Y-79209000D02*
X170918000Y-80209000D01*
X170918000Y-80209000D02*
X168918000Y-80209000D01*
X168918000Y-80209000D02*
X168918000Y-81209000D01*
X168918000Y-81209000D02*
X170918000Y-81209000D01*
X170918000Y-81209000D02*
X170918000Y-82209000D01*
X170918000Y-82209000D02*
X168918000Y-82209000D01*
X168918000Y-82209000D02*
X168918000Y-83209000D01*
X168918000Y-83209000D02*
X170918000Y-83209000D01*
X170918000Y-83209000D02*
X170918000Y-84209000D01*
X170918000Y-84209000D02*
X171918000Y-84209000D01*
X171918000Y-84209000D02*
X171918000Y-82209000D01*
X171918000Y-82209000D02*
X173418000Y-82209000D01*
X170918000Y-79209000D02*
X171918000Y-79209000D01*
X171918000Y-79209000D02*
X171918000Y-81209000D01*
X171918000Y-81209000D02*
X173418000Y-81209000D01*
X173918000Y-82709000D02*
X173918000Y-86709000D01*
X174918000Y-82709000D02*
X174918000Y-86709000D01*
X164918000Y-82709000D02*
X164918000Y-86709000D01*
X163918000Y-82709000D02*
X163918000Y-86709000D01*
X173918000Y-82709000D02*
G75*
G03X173418000Y-82209000I-500000J0D01*
G01*
X174918000Y-82709000D02*
G75*
G03X173418000Y-81209000I-1500000J0D01*
G01*
X173418000Y-87209000D02*
G75*
G03X173918000Y-86709000I0J500000D01*
G01*
X173418000Y-88209000D02*
G75*
G03X174918000Y-86709000I0J1500000D01*
G01*
X165418000Y-82209000D02*
G75*
G03X164918000Y-82709000I0J-500000D01*
G01*
X165418000Y-81209000D02*
G75*
G03X163918000Y-82709000I0J-1500000D01*
G01*
X164918000Y-86709000D02*
G75*
G03X165418000Y-87209000I500000J0D01*
G01*
X163918000Y-86709000D02*
G75*
G03X165418000Y-88209000I1500000J0D01*
G01*
D11*
X179070000Y-114265000D02*
X177220000Y-114265000D01*
X179070000Y-113065000D02*
X177220000Y-113065000D01*
X177220000Y-113065000D02*
X177220000Y-114265000D01*
X165669001Y-104060000D02*
G75*
G02X165669001Y-109299999I5399999J-2620000D01*
G01*
X165669000Y-104060000D02*
X165669001Y-109299999D01*
X163189000Y-96520000D02*
G75*
G03X163189000Y-96520000I-6100000J0D01*
G01*
X160594000Y-112013000D02*
X155194000Y-112013000D01*
X160594000Y-108713000D02*
X155194000Y-108713000D01*
X160594000Y-112013000D02*
X160594000Y-108713000D01*
X181169000Y-97201000D02*
X181169000Y-96601000D01*
X181769000Y-96901000D02*
X181169000Y-97201000D01*
X181169000Y-96601000D02*
X181769000Y-96901000D01*
X188569000Y-99611000D02*
X188569000Y-86571000D01*
X182459000Y-92041000D02*
X182459000Y-90331000D01*
X182459000Y-95851000D02*
X182459000Y-94141000D01*
X182459000Y-86571000D02*
X182459000Y-88231000D01*
X182459000Y-99611000D02*
X182459000Y-97951000D01*
X191879000Y-86571000D02*
X182459000Y-86571000D01*
X191879000Y-99611000D02*
X191879000Y-86571000D01*
X182459000Y-99611000D02*
X191879000Y-99611000D01*
X181169000Y-109774000D02*
X181169000Y-109174000D01*
X181769000Y-109474000D02*
X181169000Y-109774000D01*
X181169000Y-109174000D02*
X181769000Y-109474000D01*
X188569000Y-112184000D02*
X188569000Y-102954000D01*
X182459000Y-108424000D02*
X182459000Y-106714000D01*
X182459000Y-102954000D02*
X182459000Y-104614000D01*
X182459000Y-112184000D02*
X182459000Y-110524000D01*
X191879000Y-102954000D02*
X182459000Y-102954000D01*
X191879000Y-112184000D02*
X191879000Y-102954000D01*
X182459000Y-112184000D02*
X191879000Y-112184000D01*
X115884000Y-87457000D02*
X115884000Y-88057000D01*
X115284000Y-87757000D02*
X115884000Y-87457000D01*
X115884000Y-88057000D02*
X115284000Y-87757000D01*
X108484000Y-85047000D02*
X108484000Y-101897000D01*
X114594000Y-96427000D02*
X114594000Y-98137000D01*
X114594000Y-92617000D02*
X114594000Y-94327000D01*
X114594000Y-88807000D02*
X114594000Y-90517000D01*
X114594000Y-101897000D02*
X114594000Y-100237000D01*
X114594000Y-85047000D02*
X114594000Y-86707000D01*
X105174000Y-101897000D02*
X114594000Y-101897000D01*
X105174000Y-85047000D02*
X105174000Y-101897000D01*
X114594000Y-85047000D02*
X105174000Y-85047000D01*
X119813000Y-112224078D02*
X119813000Y-111706922D01*
X121233000Y-112224078D02*
X121233000Y-111706922D01*
X119813000Y-106499922D02*
X119813000Y-107017078D01*
X121233000Y-106499922D02*
X121233000Y-107017078D01*
X156548000Y-117943000D02*
X156548000Y-127363000D01*
X156548000Y-127363000D02*
X177208000Y-127363000D01*
X177208000Y-127363000D02*
X177208000Y-117943000D01*
X156548000Y-117943000D02*
X158208000Y-117943000D01*
X177208000Y-117943000D02*
X175548000Y-117943000D01*
X160308000Y-117943000D02*
X162018000Y-117943000D01*
X164118000Y-117943000D02*
X165828000Y-117943000D01*
X167928000Y-117943000D02*
X169638000Y-117943000D01*
X171738000Y-117943000D02*
X173448000Y-117943000D01*
X156548000Y-124053000D02*
X177208000Y-124053000D01*
X159558000Y-116653000D02*
X159258000Y-117253000D01*
X159258000Y-117253000D02*
X158958000Y-116653000D01*
X158958000Y-116653000D02*
X159558000Y-116653000D01*
X134884279Y-107440000D02*
X134558721Y-107440000D01*
X134884279Y-108460000D02*
X134558721Y-108460000D01*
X134884279Y-93220000D02*
X134558721Y-93220000D01*
X134884279Y-92200000D02*
X134558721Y-92200000D01*
X124230000Y-111591000D02*
X147550000Y-111591000D01*
X121690000Y-104691000D02*
X121690000Y-79261000D01*
X147550000Y-111591000D02*
X147550000Y-79261000D01*
X145430000Y-77131000D02*
X123820000Y-77131000D01*
D10*
G36*
X120650000Y-84836000D02*
G01*
X120650000Y-86106000D01*
X121285000Y-85471000D01*
X120650000Y-84836000D01*
G37*
X120650000Y-84836000D02*
X120650000Y-86106000D01*
X121285000Y-85471000D01*
X120650000Y-84836000D01*
D11*
X121690000Y-104691000D02*
X124230000Y-104691000D01*
X124230000Y-104691000D02*
X124230000Y-111591000D01*
X121690000Y-79261000D02*
G75*
G02X123820000Y-77131000I2130000J0D01*
G01*
X145420000Y-77131000D02*
G75*
G02X147550000Y-79261000I0J-2130000D01*
G01*
X109899000Y-115258000D02*
X109899000Y-103537000D01*
X118519000Y-115258000D02*
X118519000Y-103537000D01*
X109899000Y-115258000D02*
X118519000Y-115258000D01*
X109899000Y-103537000D02*
X118519000Y-103537000D01*
X117519000Y-115498000D02*
X118759000Y-115498000D01*
X118759000Y-115498000D02*
X118759000Y-114258000D01*
D10*
X147034761Y-123157619D02*
X146939523Y-123110000D01*
X146844285Y-123014761D01*
X146701428Y-122871904D01*
X146606190Y-122824285D01*
X146510952Y-122824285D01*
X146558571Y-123062380D02*
X146463333Y-123014761D01*
X146368095Y-122919523D01*
X146320476Y-122729047D01*
X146320476Y-122395714D01*
X146368095Y-122205238D01*
X146463333Y-122110000D01*
X146558571Y-122062380D01*
X146749047Y-122062380D01*
X146844285Y-122110000D01*
X146939523Y-122205238D01*
X146987142Y-122395714D01*
X146987142Y-122729047D01*
X146939523Y-122919523D01*
X146844285Y-123014761D01*
X146749047Y-123062380D01*
X146558571Y-123062380D01*
X147939523Y-123062380D02*
X147368095Y-123062380D01*
X147653809Y-123062380D02*
X147653809Y-122062380D01*
X147558571Y-122205238D01*
X147463333Y-122300476D01*
X147368095Y-122348095D01*
X131913333Y-100782380D02*
X131580000Y-100306190D01*
X131341904Y-100782380D02*
X131341904Y-99782380D01*
X131722857Y-99782380D01*
X131818095Y-99830000D01*
X131865714Y-99877619D01*
X131913333Y-99972857D01*
X131913333Y-100115714D01*
X131865714Y-100210952D01*
X131818095Y-100258571D01*
X131722857Y-100306190D01*
X131341904Y-100306190D01*
X132246666Y-99782380D02*
X132865714Y-99782380D01*
X132532380Y-100163333D01*
X132675238Y-100163333D01*
X132770476Y-100210952D01*
X132818095Y-100258571D01*
X132865714Y-100353809D01*
X132865714Y-100591904D01*
X132818095Y-100687142D01*
X132770476Y-100734761D01*
X132675238Y-100782380D01*
X132389523Y-100782380D01*
X132294285Y-100734761D01*
X132246666Y-100687142D01*
X137289166Y-100115714D02*
X137289166Y-100782380D01*
X137051071Y-99734761D02*
X136812976Y-100449047D01*
X137432023Y-100449047D01*
X137717738Y-99782380D02*
X138384404Y-99782380D01*
X137955833Y-100782380D01*
X138955833Y-99782380D02*
X139051071Y-99782380D01*
X139146309Y-99830000D01*
X139193928Y-99877619D01*
X139241547Y-99972857D01*
X139289166Y-100163333D01*
X139289166Y-100401428D01*
X139241547Y-100591904D01*
X139193928Y-100687142D01*
X139146309Y-100734761D01*
X139051071Y-100782380D01*
X138955833Y-100782380D01*
X138860595Y-100734761D01*
X138812976Y-100687142D01*
X138765357Y-100591904D01*
X138717738Y-100401428D01*
X138717738Y-100163333D01*
X138765357Y-99972857D01*
X138812976Y-99877619D01*
X138860595Y-99830000D01*
X138955833Y-99782380D01*
X139717738Y-100782380D02*
X139717738Y-99782380D01*
X140289166Y-100782380D02*
X139860595Y-100210952D01*
X140289166Y-99782380D02*
X139717738Y-100353809D01*
X177631904Y-112817380D02*
X177631904Y-111817380D01*
X177870000Y-111817380D01*
X178012857Y-111865000D01*
X178108095Y-111960238D01*
X178155714Y-112055476D01*
X178203333Y-112245952D01*
X178203333Y-112388809D01*
X178155714Y-112579285D01*
X178108095Y-112674523D01*
X178012857Y-112769761D01*
X177870000Y-112817380D01*
X177631904Y-112817380D01*
X178584285Y-111912619D02*
X178631904Y-111865000D01*
X178727142Y-111817380D01*
X178965238Y-111817380D01*
X179060476Y-111865000D01*
X179108095Y-111912619D01*
X179155714Y-112007857D01*
X179155714Y-112103095D01*
X179108095Y-112245952D01*
X178536666Y-112817380D01*
X179155714Y-112817380D01*
X169735666Y-107084761D02*
X169878523Y-107132380D01*
X170116619Y-107132380D01*
X170211857Y-107084761D01*
X170259476Y-107037142D01*
X170307095Y-106941904D01*
X170307095Y-106846666D01*
X170259476Y-106751428D01*
X170211857Y-106703809D01*
X170116619Y-106656190D01*
X169926142Y-106608571D01*
X169830904Y-106560952D01*
X169783285Y-106513333D01*
X169735666Y-106418095D01*
X169735666Y-106322857D01*
X169783285Y-106227619D01*
X169830904Y-106180000D01*
X169926142Y-106132380D01*
X170164238Y-106132380D01*
X170307095Y-106180000D01*
X170640428Y-106132380D02*
X170878523Y-107132380D01*
X171069000Y-106418095D01*
X171259476Y-107132380D01*
X171497571Y-106132380D01*
X172402333Y-107132380D02*
X171830904Y-107132380D01*
X172116619Y-107132380D02*
X172116619Y-106132380D01*
X172021380Y-106275238D01*
X171926142Y-106370476D01*
X171830904Y-106418095D01*
X156446142Y-96972380D02*
X155969952Y-96972380D01*
X155969952Y-95972380D01*
X156731857Y-96924761D02*
X156874714Y-96972380D01*
X157112809Y-96972380D01*
X157208047Y-96924761D01*
X157255666Y-96877142D01*
X157303285Y-96781904D01*
X157303285Y-96686666D01*
X157255666Y-96591428D01*
X157208047Y-96543809D01*
X157112809Y-96496190D01*
X156922333Y-96448571D01*
X156827095Y-96400952D01*
X156779476Y-96353333D01*
X156731857Y-96258095D01*
X156731857Y-96162857D01*
X156779476Y-96067619D01*
X156827095Y-96020000D01*
X156922333Y-95972380D01*
X157160428Y-95972380D01*
X157303285Y-96020000D01*
X158255666Y-96972380D02*
X157684238Y-96972380D01*
X157969952Y-96972380D02*
X157969952Y-95972380D01*
X157874714Y-96115238D01*
X157779476Y-96210476D01*
X157684238Y-96258095D01*
X152898047Y-94051428D02*
X153659952Y-94051428D01*
X153279000Y-94432380D02*
X153279000Y-93670476D01*
X156455904Y-108402380D02*
X156455904Y-107402380D01*
X156694000Y-107402380D01*
X156836857Y-107450000D01*
X156932095Y-107545238D01*
X156979714Y-107640476D01*
X157027333Y-107830952D01*
X157027333Y-107973809D01*
X156979714Y-108164285D01*
X156932095Y-108259523D01*
X156836857Y-108354761D01*
X156694000Y-108402380D01*
X156455904Y-108402380D01*
X157979714Y-108402380D02*
X157408285Y-108402380D01*
X157694000Y-108402380D02*
X157694000Y-107402380D01*
X157598761Y-107545238D01*
X157503523Y-107640476D01*
X157408285Y-107688095D01*
X186523380Y-93297333D02*
X187237666Y-93297333D01*
X187380523Y-93344952D01*
X187475761Y-93440190D01*
X187523380Y-93583047D01*
X187523380Y-93678285D01*
X186856714Y-92392571D02*
X187523380Y-92392571D01*
X186475761Y-92630666D02*
X187190047Y-92868761D01*
X187190047Y-92249714D01*
X186523380Y-107907333D02*
X187237666Y-107907333D01*
X187380523Y-107954952D01*
X187475761Y-108050190D01*
X187523380Y-108193047D01*
X187523380Y-108288285D01*
X186523380Y-107526380D02*
X186523380Y-106907333D01*
X186904333Y-107240666D01*
X186904333Y-107097809D01*
X186951952Y-107002571D01*
X186999571Y-106954952D01*
X187094809Y-106907333D01*
X187332904Y-106907333D01*
X187428142Y-106954952D01*
X187475761Y-107002571D01*
X187523380Y-107097809D01*
X187523380Y-107383523D01*
X187475761Y-107478761D01*
X187428142Y-107526380D01*
X180141571Y-109830904D02*
X180189190Y-109688047D01*
X180236809Y-109640428D01*
X180332047Y-109592809D01*
X180474904Y-109592809D01*
X180570142Y-109640428D01*
X180617761Y-109688047D01*
X180665380Y-109783285D01*
X180665380Y-110164238D01*
X179665380Y-110164238D01*
X179665380Y-109830904D01*
X179713000Y-109735666D01*
X179760619Y-109688047D01*
X179855857Y-109640428D01*
X179951095Y-109640428D01*
X180046333Y-109688047D01*
X180093952Y-109735666D01*
X180141571Y-109830904D01*
X180141571Y-110164238D01*
X179665380Y-109164238D02*
X180474904Y-109164238D01*
X180570142Y-109116619D01*
X180617761Y-109069000D01*
X180665380Y-108973761D01*
X180665380Y-108783285D01*
X180617761Y-108688047D01*
X180570142Y-108640428D01*
X180474904Y-108592809D01*
X179665380Y-108592809D01*
X179665380Y-108259476D02*
X179665380Y-107688047D01*
X180665380Y-107973761D02*
X179665380Y-107973761D01*
X179665380Y-107497571D02*
X179665380Y-106926142D01*
X180665380Y-107211857D02*
X179665380Y-107211857D01*
X179665380Y-106402333D02*
X179665380Y-106211857D01*
X179713000Y-106116619D01*
X179808238Y-106021380D01*
X179998714Y-105973761D01*
X180332047Y-105973761D01*
X180522523Y-106021380D01*
X180617761Y-106116619D01*
X180665380Y-106211857D01*
X180665380Y-106402333D01*
X180617761Y-106497571D01*
X180522523Y-106592809D01*
X180332047Y-106640428D01*
X179998714Y-106640428D01*
X179808238Y-106592809D01*
X179713000Y-106497571D01*
X179665380Y-106402333D01*
X180665380Y-105545190D02*
X179665380Y-105545190D01*
X180665380Y-104973761D01*
X179665380Y-104973761D01*
X109688380Y-93932333D02*
X110402666Y-93932333D01*
X110545523Y-93979952D01*
X110640761Y-94075190D01*
X110688380Y-94218047D01*
X110688380Y-94313285D01*
X109783619Y-93503761D02*
X109736000Y-93456142D01*
X109688380Y-93360904D01*
X109688380Y-93122809D01*
X109736000Y-93027571D01*
X109783619Y-92979952D01*
X109878857Y-92932333D01*
X109974095Y-92932333D01*
X110116952Y-92979952D01*
X110688380Y-93551380D01*
X110688380Y-92932333D01*
X122388333Y-112371142D02*
X122340714Y-112418761D01*
X122197857Y-112466380D01*
X122102619Y-112466380D01*
X121959761Y-112418761D01*
X121864523Y-112323523D01*
X121816904Y-112228285D01*
X121769285Y-112037809D01*
X121769285Y-111894952D01*
X121816904Y-111704476D01*
X121864523Y-111609238D01*
X121959761Y-111514000D01*
X122102619Y-111466380D01*
X122197857Y-111466380D01*
X122340714Y-111514000D01*
X122388333Y-111561619D01*
X123340714Y-112466380D02*
X122769285Y-112466380D01*
X123055000Y-112466380D02*
X123055000Y-111466380D01*
X122959761Y-111609238D01*
X122864523Y-111704476D01*
X122769285Y-111752095D01*
X122388333Y-107164142D02*
X122340714Y-107211761D01*
X122197857Y-107259380D01*
X122102619Y-107259380D01*
X121959761Y-107211761D01*
X121864523Y-107116523D01*
X121816904Y-107021285D01*
X121769285Y-106830809D01*
X121769285Y-106687952D01*
X121816904Y-106497476D01*
X121864523Y-106402238D01*
X121959761Y-106307000D01*
X122102619Y-106259380D01*
X122197857Y-106259380D01*
X122340714Y-106307000D01*
X122388333Y-106354619D01*
X122769285Y-106354619D02*
X122816904Y-106307000D01*
X122912142Y-106259380D01*
X123150238Y-106259380D01*
X123245476Y-106307000D01*
X123293095Y-106354619D01*
X123340714Y-106449857D01*
X123340714Y-106545095D01*
X123293095Y-106687952D01*
X122721666Y-107259380D01*
X123340714Y-107259380D01*
X166544666Y-122007380D02*
X166544666Y-122721666D01*
X166497047Y-122864523D01*
X166401809Y-122959761D01*
X166258952Y-123007380D01*
X166163714Y-123007380D01*
X167544666Y-123007380D02*
X166973238Y-123007380D01*
X167258952Y-123007380D02*
X167258952Y-122007380D01*
X167163714Y-122150238D01*
X167068476Y-122245476D01*
X166973238Y-122293095D01*
X165663714Y-129611380D02*
X165187523Y-129611380D01*
X165187523Y-128611380D01*
X166187523Y-128611380D02*
X166378000Y-128611380D01*
X166473238Y-128659000D01*
X166568476Y-128754238D01*
X166616095Y-128944714D01*
X166616095Y-129278047D01*
X166568476Y-129468523D01*
X166473238Y-129563761D01*
X166378000Y-129611380D01*
X166187523Y-129611380D01*
X166092285Y-129563761D01*
X165997047Y-129468523D01*
X165949428Y-129278047D01*
X165949428Y-128944714D01*
X165997047Y-128754238D01*
X166092285Y-128659000D01*
X166187523Y-128611380D01*
X167616095Y-129516142D02*
X167568476Y-129563761D01*
X167425619Y-129611380D01*
X167330380Y-129611380D01*
X167187523Y-129563761D01*
X167092285Y-129468523D01*
X167044666Y-129373285D01*
X166997047Y-129182809D01*
X166997047Y-129039952D01*
X167044666Y-128849476D01*
X167092285Y-128754238D01*
X167187523Y-128659000D01*
X167330380Y-128611380D01*
X167425619Y-128611380D01*
X167568476Y-128659000D01*
X167616095Y-128706619D01*
X168044666Y-129611380D02*
X168044666Y-128611380D01*
X168616095Y-129611380D02*
X168187523Y-129039952D01*
X168616095Y-128611380D02*
X168044666Y-129182809D01*
X131913333Y-108402380D02*
X131580000Y-107926190D01*
X131341904Y-108402380D02*
X131341904Y-107402380D01*
X131722857Y-107402380D01*
X131818095Y-107450000D01*
X131865714Y-107497619D01*
X131913333Y-107592857D01*
X131913333Y-107735714D01*
X131865714Y-107830952D01*
X131818095Y-107878571D01*
X131722857Y-107926190D01*
X131341904Y-107926190D01*
X132865714Y-108402380D02*
X132294285Y-108402380D01*
X132580000Y-108402380D02*
X132580000Y-107402380D01*
X132484761Y-107545238D01*
X132389523Y-107640476D01*
X132294285Y-107688095D01*
X137384404Y-108402380D02*
X136812976Y-108402380D01*
X137098690Y-108402380D02*
X137098690Y-107402380D01*
X137003452Y-107545238D01*
X136908214Y-107640476D01*
X136812976Y-107688095D01*
X138003452Y-107402380D02*
X138098690Y-107402380D01*
X138193928Y-107450000D01*
X138241547Y-107497619D01*
X138289166Y-107592857D01*
X138336785Y-107783333D01*
X138336785Y-108021428D01*
X138289166Y-108211904D01*
X138241547Y-108307142D01*
X138193928Y-108354761D01*
X138098690Y-108402380D01*
X138003452Y-108402380D01*
X137908214Y-108354761D01*
X137860595Y-108307142D01*
X137812976Y-108211904D01*
X137765357Y-108021428D01*
X137765357Y-107783333D01*
X137812976Y-107592857D01*
X137860595Y-107497619D01*
X137908214Y-107450000D01*
X138003452Y-107402380D01*
X138765357Y-108402380D02*
X138765357Y-107402380D01*
X139336785Y-108402380D02*
X138908214Y-107830952D01*
X139336785Y-107402380D02*
X138765357Y-107973809D01*
X131913333Y-93162380D02*
X131580000Y-92686190D01*
X131341904Y-93162380D02*
X131341904Y-92162380D01*
X131722857Y-92162380D01*
X131818095Y-92210000D01*
X131865714Y-92257619D01*
X131913333Y-92352857D01*
X131913333Y-92495714D01*
X131865714Y-92590952D01*
X131818095Y-92638571D01*
X131722857Y-92686190D01*
X131341904Y-92686190D01*
X132294285Y-92257619D02*
X132341904Y-92210000D01*
X132437142Y-92162380D01*
X132675238Y-92162380D01*
X132770476Y-92210000D01*
X132818095Y-92257619D01*
X132865714Y-92352857D01*
X132865714Y-92448095D01*
X132818095Y-92590952D01*
X132246666Y-93162380D01*
X132865714Y-93162380D01*
X137384404Y-93162380D02*
X136812976Y-93162380D01*
X137098690Y-93162380D02*
X137098690Y-92162380D01*
X137003452Y-92305238D01*
X136908214Y-92400476D01*
X136812976Y-92448095D01*
X137812976Y-93162380D02*
X137812976Y-92162380D01*
X138384404Y-93162380D02*
X137955833Y-92590952D01*
X138384404Y-92162380D02*
X137812976Y-92733809D01*
X134112095Y-87082380D02*
X134112095Y-87891904D01*
X134159714Y-87987142D01*
X134207333Y-88034761D01*
X134302571Y-88082380D01*
X134493047Y-88082380D01*
X134588285Y-88034761D01*
X134635904Y-87987142D01*
X134683523Y-87891904D01*
X134683523Y-87082380D01*
X135112095Y-87177619D02*
X135159714Y-87130000D01*
X135254952Y-87082380D01*
X135493047Y-87082380D01*
X135588285Y-87130000D01*
X135635904Y-87177619D01*
X135683523Y-87272857D01*
X135683523Y-87368095D01*
X135635904Y-87510952D01*
X135064476Y-88082380D01*
X135683523Y-88082380D01*
X113625380Y-110108904D02*
X114434904Y-110108904D01*
X114530142Y-110061285D01*
X114577761Y-110013666D01*
X114625380Y-109918428D01*
X114625380Y-109727952D01*
X114577761Y-109632714D01*
X114530142Y-109585095D01*
X114434904Y-109537476D01*
X113625380Y-109537476D01*
X114625380Y-108537476D02*
X114625380Y-109108904D01*
X114625380Y-108823190D02*
X113625380Y-108823190D01*
X113768238Y-108918428D01*
X113863476Y-109013666D01*
X113911095Y-109108904D01*
M02*
